<svg xmlns="http://www.w3.org/2000/svg" width="31" height="31" viewBox="0 0 32 32">
    <g fill="#6599cd">
        <path d="M.25 16.2499814335C.25 7.3859779959 7.3859784315.25 16.2499824102.25s16.0000336169 7.1359779959 16.0000336169 15.9999814335-7.1360296383 16.0000326403-16.0000336169 16.0000326403S.25 25.113984871.25 16.2499814335z"/>
        <path d="M.25 16.2499814335C.25 7.3859779959 7.3859784315.25 16.2499824102.25s16.0000336169 7.1359779959 16.0000336169 15.9999814335-7.1360296383 16.0000326403-16.0000336169 16.0000326403S.25 25.113984871.25 16.2499814335z"/>
    </g>
    <g>
        <path d="M5.648529149 7.4754234182c.0676346829-.1226328718.1593007007-.212770814.2394606879-.3090023547-.238451215-.2245296048-.3733383532-.4957554849-.1697090522-.7800573451.2386472292-.3332041076.5842403918-.3198148155.9044883122-.1925270227-.2044917634-.2396772806-.2894736986-.5386216808.0112708136-.8633407881.4228613286-.4565914858 1.2607238181-.1361436522 1.9613862025.3505513614-.1003886475-.3493556605-.0494249682-.6642086371.3137990548-.7989711589C10.0482143973 4.459552508 11.334655272 7.632565368 11.334655272 7.632565368l-4.3835428704 6.6909115892s-3.6928484181-2.5137661616-1.3025832526-6.848053539z" fill="#e4eded"/>
        <path d="M7.4061004496 13.3172020589l2.8837013891-4.2871437134s-1.7206318212-1.753952508-3.0337600226.1609784232c-1.2338404773 1.7994015296.1500586335 4.1261652902.1500586335 4.1261652902z" fill="#f5b7c7"/>
        <path d="M26.8381293346 7.4754234182c-.0676248822-.1226328718-.1593007007-.212770814-.2394508872-.3090023547.238451215-.2245296048.3733285525-.4957554849.1697090522-.7800573451-.2386472292-.3332041076-.5842391667-.3198148155-.9044478842-.1925270227.204501564-.2396772806.2894736985-.5386216808-.0112708137-.8633407881-.4228613286-.4565914858-1.2607238181-.1361436522-1.9613764018.3505513614.1003788468-.3493556605.0494151675-.6642086371-.3137990548-.7989711589-1.1389990302-.4225236021-2.4254399049 2.7504892579-2.4254399049 2.7504892579l4.3834448633 6.6909755305c.0000588042-.0000639413 3.6929059973-2.5138301029 1.3026310311-6.8481174803z" fill="#e4eded"/>
        <path d="M25.0618693097 13.0613796195l-2.8837013891-4.2872140487s1.7206318212-1.753952508 3.0337698234.1609784232c1.2337914737 1.7994015296-.1500684343 4.1262356255-.1500684343 4.1262356255z" fill="#f5b7c7"/>
        <path d="M26.3125376019 18.7286692564c0 7.0524677347-4.4848625852 8.9146663392-10.0172738652 8.9146663392s-10.017214927-1.8621986045-10.017214927-8.9146663392S10.7629015942 5.9590637069 16.2953127402 5.9590637069s10.0172248617 5.7171378148 10.0172248617 12.7696055495z" fill="#e4eded"/>
        <path d="M20.0456515634 17.0242263376c-.1341128823-1.1378787892.2514077504-2.1529585282.8643636028-2.275962259s1.2144252756.6940372676 1.3485185565 1.8319224853-.251388149 2.1529585781-.8643636028 2.275962309-1.2144056742-.6940372177-1.3485185565-1.8319225353z" fill="#3d3d3d"/>
        <path d="M20.367330387 16.4142846666c0-.467180168.1749818328-.8432888456.3923615266-.8432888456s.3923615266.3761086776.3923615266.8432888456-.1750014343.8432823765-.3923615266.8432823765-.3923615266-.3761022742-.3923615266-.8432823765z" fill="#fff"/>
        <path d="M10.8631922347 18.8544544305c-.6129656532-.1229973367-.9984764852-1.1380770413-.8643734036-2.2759559148s.7355529034-1.954919822 1.3485185565-1.8319224853.9984862858 1.1380770757.8643734035 2.275962259-.7355431026 1.954919872-1.3485185564 1.8319161411z" fill="#3d3d3d"/>
        <path d="M11.1052109072 16.4142846666c0-.467180168.1749916335-.8432888456.3923615266-.8432888456s.3923713273.3761086776.3923713273.8432888456-.1750014343.8432823765-.3923713273.8432823765-.3923615266-.3761022742-.3923615266-.8432823765z" fill="#fff"/>
        <path d="M7.2589820283 19.4092850116c0-.7007700286.5610317037-1.264929834 1.2579208157-1.264929834s1.2579306165.5641598054 1.2579306165 1.264929834-.5610317038 1.2649300338-1.2579306165 1.2649300338-1.2579208157-.5641598053-1.2579208157-1.2649300338z" fill="#f5b7c7"/>
        <path d="M22.4847536546 19.4092850116c0-.7007700286.5610317037-1.264929834 1.2579208157-1.264929834s1.2579208158.5641598054 1.2579208158 1.264929834-.5610317038 1.2649300338-1.2579208158 1.2649300338-1.2579208157-.5641598053-1.2579208157-1.2649300338z" fill="#f5b7c7"/>
        <path d="M16.3991708383 18.6262162347c2.1465608382 0 2.4466389024.9336119925 0 2.6803966893 0 0-3.7853370158-2.6803966893 0-2.6803966893z" fill="#3d3d3d"/>
        <path d="M14.1371872011 22.0294045097c1.4832782089.89388591 2.9249818928.9532873063 4.3162022087 0" stroke="#3d3d3d" fill="none" stroke-width=".5"/>
        <path d="M16.3991708383 21.306612924v1.4154736491" stroke="#3d3d3d" fill="none" stroke-width=".5"/>
        <path d="M22.6193369709 13.0747689117c-.1216267808.5098928893-.5368827603.1030860398-1.1129683508-.1308685013s-1.0949546504-.2064853917-.9733278696-.7163784808.6872256144-.7335401053 1.2633700092-.4995855642.9445725935.8369332628.8229262112 1.3468325463z" fill="#c2d3d2"/>
        <path d="M10.0437354739 13.0410782812c.133720854.5605535204.5438118606.1321856905 1.1199072519-.1018327919s1.1001196232-.18486047.9663889685-.7454141902-.7091497971-.8253149428-1.2852353877-.5913604017-.9347914874.8780472695-.8010608327 1.4386073838z" fill="#c2d3d2"/>
        <path d="M13.1461298516 18.1443551776s3.569917454-1.826366018 6.3973138548.2924096072c0 0-2.6988699218-3.963371236-6.3973138548-.2924096072z" fill="#c2d3d2" opacity=".5"/>
    </g>
</svg>