<svg xmlns="http://www.w3.org/2000/svg" width="117" height="92" viewBox="0 0 117 92">
    <style>
        <![CDATA[.B{fill:none}.C{stroke:#80bece}.D{stroke-width:.27}.E{fill-rule:nonzero}.F{stroke:none}.G{stroke-linejoin:miter}.H{stroke-linecap:butt}.I{stroke-width:.0299999634}]]>
    </style>
    <defs>
        <clipPath id="A">
            <path d="M.0301297889 78.5565179962S-3.9000355936 3.2151425938 48.8682123532.0499494817c55.9419361161-3.3550753435 59.0497763845 61.0234986974 62.1577504731 78.5065685145 0 0-63.045647484 25.5752356062-110.9958330374 0z" fill="#000" transform="translate(-16.7157012084 -5.8986895593)" class="E F G H I"/>
        </clipPath>
        <clipPath id="B">
            <path d="M.0301297889 78.5565179962S-3.9000355936 3.2151425938 48.8682123532.0499494817c55.9419361161-3.3550753435 59.0497763845 61.0234986974 62.1577504731 78.5065685145 0 0-63.045647484 25.5752356062-110.9958330374 0z" fill="#000" transform="translate(-7.4834457779 -29.2215269803)" class="E F G H I"/>
        </clipPath>
        <clipPath id="C">
            <path d="M.0301297889 78.5565179962S-3.9000355936 3.2151425938 48.8682123532.0499494817c55.9419361161-3.3550753435 59.0497763845 61.0234986974 62.1577504731 78.5065685145 0 0-63.045647484 25.5752356062-110.9958330374 0z" fill="#000" transform="translate(-42.2076459245 .6792851725)" class="E F G H I"/>
        </clipPath>
        <clipPath id="D">
            <path d="M.0301297889 78.5565179962S-3.9000355936 3.2151425938 48.8682123532.0499494817c55.9419361161-3.3550753435 59.0497763845 61.0234986974 62.1577504731 78.5065685145 0 0-63.045647484 25.5752356062-110.9958330374 0z" fill="#000" transform="translate(-59.5348189263 .4803646086)" class="E F G H I"/>
        </clipPath>
    </defs>
    <path d="M-37.9773282715 27.0467152588c0-1.7722167969-6.7946777343-3.1989440918-15.2348027229-3.1989440918s-15.2347407341 1.4267272949-15.2347407341 3.1989440918 6.7947382927 3.1989135742 15.2347407341 3.1989135742 15.2348027229-1.4267272949 15.2348027229-3.1989135742z" stroke="#d8ae80" stroke-width=".4569" class="B"/>
    <g transform="translate(.5 .5)">
        <g fill="#fff">
            <path d="M.0660864064 78.6331498594S-3.8640789939 3.2917764268 48.9041691928.1265833975c55.9419363706-3.3550752558 59.0497766531 61.0234971019 62.1577507559 78.5065664619 0 0-63.0456477708 25.5752349376-110.9958335423 0z" fill="#ccf2ff" class="C D"/>
            <path d="M1.0619862734 58.4951355985s60.7033844782 14.8865953983 110.8735218811-3.8236007658" class="B C D"/>
            <path d="M33.6377481593 11.4227866174s-7.7350750952 6.7032751991-9.8866362415 24.2971999206" class="B C D"/>
            <path d="M33.6377792015 36.9554200029S29.155204023 47.8217355541 31.596887359 63.1335972761" class="B C D"/>
            <path d="M16.7157688255 61.2762310336s-2.7750294496 11.2938969819-1.0543693414 23.8354715671" class="B C D"/>
            <path d="M55.5311684449 13.078294508c0 0 3.8287296901 7.1126266711 3.8176226137 24.6996760801" class="B C D"/>
            <path d="M78.2070123368 11.0673880865c1.1096370833 1.1399113646 7.4096243732 10.7205434758 9.9202251113 22.8953314242" class="B C D"/>
            <path d="M66.0643066648 37.3821533155c0 0 4.3293510515 6.6152093983 4.3142293691 25.8395874446" class="B C D"/>
            <path d="M54.3431955404 63.8847828036c0 0 1.8950278264 12.9942621924 1.1879218992 26.1152171964" class="B C D"/>
            <path d="M66.7952829072 89.083383607s-3.809058121-45.1132506092 14.0713276588-50.9598927694l25.6404936159 3.324638479s8.4771080941 7.2530684481 6.3308997557 39.6326225034l-20.1515905471 7.9168062567-25.8911304833.0858255303z" fill="#ccf2ff"/>
            <path d="M100.7615464518 42.7731626841c-4.4274496205 4.7333822879-9.5756464647 16.2133001683-7.8410690559 45.8248068479l19.9174052003-7.5181154005s2.513946243-20.8957736399-3.7420142017-36.4005303658c-1.6712804551-4.141796409-5.4310927432-5.0105578081-8.3343219427-1.9061610816z" class="B C D"/>
            <path d="M96.2625427743 85.3516295182l14.7994517209-5.6386057169s.910914089-32.465302335-5.0319070919-33.8314810069c-10.9515857424-2.5166733827-9.767544629 39.4700867238-9.767544629 39.4700867238z" fill="#80bece"/>
            <path d="M0 0c0 0 21.7551496181 14.0960901677 75.2548590081 2.8188781305" clip-path="url(#A)" transform="translate(16.7158650803 5.8987994098)" class="B C D"/>
            <g transform="translate(.0001266407)" class="B C D">
                <path d="M0 3.2449157542S50.7443515095 17.4283764663 96.0307207797 0" clip-path="url(#B)" transform="translate(7.483445812 29.2215262163)"/>
            </g>
            <g transform="translate(0 .0002093996)" class="B C D">
                <path d="M4.7725635479 0S1.7396625763 3.7992667946 0 13.262246086" clip-path="url(#C)" transform="translate(42.2076461165 -.6792851547)"/>
            </g>
            <g transform="translate(.0001169053 .0000675673)" class="B C D">
                <path d="M0 0c0 0 3.3544709078 6.9318600275 4.6863833403 13.0625530204" clip-path="url(#D)" transform="translate(59.5348191971 -.480364596)"/>
            </g>
            <path d="M67.8824884652 59.3905877533c0 0 19.5378827545 3.0376521196 25.6976264767 1.8856123948l3.838097104.2604893685" class="B C D"/>
            <path d="M66.0644728781 78.6878171584s20.3318379903 3.3414018815 26.4529076752 1.2818981556l4.4851177622-1.6235780123" class="B C D"/>
            <path d="M74.8289331842 42.334257433c0 0 17.1462481726 1.7846457268 24.1736904236 2.6655354862l2.2172668636 4.213176058" class="B C D"/>
            <path d="M80.0612370778 60.9366786957s-1.6107937254 10.2299230578-.7708043415 19.3723897886" class="B C D"/>
            <path d="M84.5300800781 43.3648978026s2.2948825786-3.4324804596 4.4234266508-4.3020143658" class="B C D"/>
            <path d="M110.330476613 48.1536144597l-2.0805026211 2.9388484713" class="B C D"/>
            <path d="M112.8792161075 59.3904979222l-3.8892164197 1.5461728085" class="B C D"/>
            <path d="M110.3304925643 74.842888869h3.044677149" class="B C D"/>
            <path d="M92.6554526941 88.726485362l-25.8595489165.356898245s-4.4635727103-43.5511641561 14.0711938386-50.9598927694l23.9975830428 2.7869735904v6.5089124318" class="B C D"/>
        </g>
        <g>
            <path d="M1.5 41.4999674558c0-16.6199509441 13.3800159801-29.9999670982 30-29.9999670982s30 13.3800161541 30 29.9999670982-13.3799498515 30.0000329018-30 30.0000329018-30-13.3799831223-30-30.0000329018z" fill="#f0b90b"/>
            <path d="M19.0029654589 40.0818190412l-4.5900213068 4.622048178-4.6219815341-4.622048178 4.6219815341-4.622048178 4.5900213068 4.622048178zM30.190909351 28.8938750036l7.9055614471 7.9054954863L42.718518916 32.17728902l-7.9044961062-7.8734353829-4.6231134588-4.622048178L17.6953926606 32.176256971l4.6219815341 4.6221147618 7.8735351563-7.9044967292zm15.7778981517 6.5658958596l-4.5899547799 4.622048178 4.6221147586 4.622048178 4.5898880823-4.622048178-4.622048061-4.622048178zM30.190909351 51.2697620383l-7.9044300427-7.9055610297-4.5900213068 4.622048178L30.190909351 60.4818315828l12.5265442241-12.5265771587-4.6220481179-4.5899880746-7.9044961062 7.9044956888zm0-6.5658948191l4.6220481179-4.622048178-4.6220481179-4.622048178-4.6221147018 4.622048178 4.6221147018 4.622048178z" fill="#fffdfa"/>
            <path d="M1.8761719815 40.3244538071c0-15.7603872789 12.687943892-28.448298044 28.4482643821-28.448298044s28.4482643821 12.6879107651 28.4482643821 28.448298044-12.6878778284 28.4482638417-28.4482643821 28.4482638417S1.8761719815 56.0847734617 1.8761719815 40.3244538071z" stroke="#191326" opacity=".1" stroke-width="3" class="B"/>
        </g>
        <g>
            <path d="M53.9999997616 44.0000010445c0-13.8499671812 11.1499609135-25.0000005677 25.0000002838-25.0000005677s24.9999997162 11.1500333865 24.9999997162 25.0000005677-11.1499603459 24.9999994323-24.9999997162 24.9999994323-25.0000002838-11.1499970561-25.0000002838-24.9999994323z" fill="#f0b90b"/>
            <path d="M55.3685029315 43.8540668254c0-13.1336760097 10.5733240153-23.7069271566 23.7069269168-23.7069271566s23.7067810274 10.5732511469 23.7067810274 23.7069271566-10.5731781259 23.7068896908-23.7067810274 23.7068896908-23.7069269168-10.5732874773-23.7069269168-23.7068896908z" stroke="#191326" opacity=".1" stroke-width="3" class="B"/>
            <path d="M79.2060348574 25.8296299741l4.2108444462 4.2978923502L72.813910209 40.6952512426l-4.2108444463-4.1967483746zm6.3922699702 6.3710168741l4.2108444462 4.2978560198L72.813910209 53.4372486604l-4.2108444463-4.1967483747zm-19.1766645889 6.3709805437l4.2106991245 4.2978560197-4.2106991245 4.1968210356-4.2107717853-4.1968210356zm25.5689345591 0l4.2106991244 4.2978560197-16.9952390648 16.9387446571-4.2106991245-4.1967472393z" stroke="#f0b90b" stroke-width=".4445" fill="#fff"/>
        </g>
    </g>
</svg>