<svg xmlns="http://www.w3.org/2000/svg" width="404" height="404" viewBox="0 0 404 404">
    <path d="M395.4656825687 248.8040626231c-26.6027740773 107.1412015814-135.3799959531 172.0724455219-242.3823192729 145.508481916S-19.2481205562 259.1340978903 7.3538397193 152.2911281326C33.9566137965 45.1497138731 142.4392425982-19.7813269122 249.7410449819 6.7824335385c107.2969167915 26.8575228601 172.3266010412 135.1786593269 145.7246375868 242.0216290846z" fill="#f7941d"/>
    <path d="M284.9109019595 166.6186023979c3.83372203-26.5635572955-16.2370359795-40.731803629-43.9890547279-50.4692415461l8.8573039396-36.00783592-21.8474203707-5.6056612478-8.8532402104 35.121672967-17.4163301634-4.1319734758 8.8524274646-35.4199047907-21.8425438957-5.6056612478-8.8577103125 36.0074296096-13.8760093742-3.2458105228-30.1081688788-7.6762189775-5.9050047507 23.318153083 15.9428219929 3.8378111046c8.8524274647 2.359850725 10.6250260967 7.9701845422 10.331218483 12.689682837l-10.331218483 41.0255628642c.5880216003.2939655646 1.4739145435.2939655646 2.3602138595.5924005435-.5924917023-.2937624094-1.4787910184-.2937624094-2.3602138595-.5924005435l-14.4685010765 57.5534607354c-1.1801069297 2.6582857039-3.8341284029 6.7902591797-10.0378172422 5.3118988383.2986840886.2937624095-15.937945518-3.8382110664-15.937945518-3.8382110664l-10.9237101853 25.0902750404 28.6338479624 7.0840215891 15.6490143792 4.1319734759-9.1511115533 36.3013983486 21.8425438958 5.6056612477 8.8577103124-36.0078390943c5.9050047507 1.7721227509 11.8047266536 3.2458105228 17.4163301634 4.4257358853l-8.8573039395 35.7136703745 21.8470139977 5.605864403 9.1519242991-36.3013951743c37.4915582749 7.0840215892 65.532914535 4.1319734758 77.3433304093-29.5160148935 9.4453255399-27.1559571447-.5924917024-42.7974856342-20.0752281115-53.1273177462 14.1702233608-2.9522512685 24.8005323053-12.3959204275 27.7528314942-31.8756561147zm-50.1882734652 70.2476090187c-6.7908976938 27.1559578391-52.5480809517 12.3957172723-67.5993207808 8.8561443401l12.0989406402-48.1095876277c15.0561163039 3.5397760875 62.5858981939 10.9220295004 55.5003801406 39.2534432876zm6.7908976938-70.5413714282c-6.1984059915 24.7916345255-44.2824559687 12.1021548438-56.6800806974 9.1499035752l10.9237101853-43.683848568c12.3980311016 2.9520481133 52.2493968631 8.5579125163 45.7563705121 34.5339449928z" fill="#fffdfa"/>
    <path d="M1.4185 201.1282867934C1.4185 90.4890634464 90.5283609405 1.4185 201.2159743006 1.4185s199.7978912027 89.0705634464 199.7978912027 199.7097867934-89.1098609405 199.7095702311-199.7978912027 199.7095702311S1.4185 311.7675101404 1.4185 201.1282867934z" stroke="#191326" fill="none" opacity=".2" stroke-width="2.837"/>
</svg>