<svg xmlns="http://www.w3.org/2000/svg" width="402" height="402" viewBox="0 0 402 402">
    <path d="M.5 200.4998506885C.5 89.7001790157 89.6999417493.5 200.5000083526.5S400.5 89.7001790157 400.5 200.4998506885 311.3000582507 400.5 200.5000083526 400.5.5 311.3001020413.5 200.4998506885z" fill="#f0b90b"/>
    <path d="M11.4478814149 199.3326648818c0-105.0692008404 84.586124009-189.6552673614 189.6551351153-189.6552673614s189.6551184102 84.586066521 189.6551184102 189.6552673614-84.5861240089 189.6552849274-189.6551184102 189.6552849274-189.6551351153-84.586347578-189.6551351153-189.6552849274z" fill="none" opacity=".1" stroke="#191326" stroke-width="3"/>
    <path d="M202.149023484 55.1374238141l33.6860547705 34.3831060512-84.8240214805 84.5419230086-33.686589334-33.5739429963zm51.1374154413 50.9682786353l33.686589334 34.3828074282L151.011056774 275.9984480305l-33.686589334-33.5739429962zM99.8731067692 157.0734014047l33.6860547704 34.3828249942-33.6860547704 33.5745051103-33.6860547705-33.5745051103zm204.551282161 0l33.6860547705 34.3828249942-135.9614202167 135.509938153-33.686589334-33.5739429963z" fill="#fff" stroke="#f0b90b" stroke-width=".4445"/>
</svg>