<svg xmlns="http://www.w3.org/2000/svg" width="117" height="92" viewBox="0 0 117 92">
    <style>
        <![CDATA[.B{fill:none}.C{stroke:#80bece}.D{stroke-width:.27}.E{fill-rule:nonzero}.F{stroke:none}.G{stroke-linejoin:miter}.H{stroke-linecap:butt}.I{stroke-width:.0299999634}.J{fill:#612f01}.K{fill:#fedc90}.L{fill:#d1884f}.M{fill:#9e7200}]]>
    </style>
    <defs>
        <clipPath id="A">
            <path d="M.0301297889 78.5565179962S-3.9000355936 3.2151425938 48.8682123532.0499494817c55.9419361161-3.3550753435 59.0497763845 61.0234986974 62.1577504731 78.5065685145 0 0-63.045647484 25.5752356062-110.9958330374 0z" fill="#000" transform="translate(-16.7157012084 -5.8986895593)" class="E F G H I"/>
        </clipPath>
        <clipPath id="B">
            <path d="M.0301297889 78.5565179962S-3.9000355936 3.2151425938 48.8682123532.0499494817c55.9419361161-3.3550753435 59.0497763845 61.0234986974 62.1577504731 78.5065685145 0 0-63.045647484 25.5752356062-110.9958330374 0z" fill="#000" transform="translate(-7.4834457779 -29.2215269803)" class="E F G H I"/>
        </clipPath>
        <clipPath id="C">
            <path d="M.0301297889 78.5565179962S-3.9000355936 3.2151425938 48.8682123532.0499494817c55.9419361161-3.3550753435 59.0497763845 61.0234986974 62.1577504731 78.5065685145 0 0-63.045647484 25.5752356062-110.9958330374 0z" fill="#000" transform="translate(-42.2076459245 .6792851725)" class="E F G H I"/>
        </clipPath>
        <clipPath id="D">
            <path d="M.0301297889 78.5565179962S-3.9000355936 3.2151425938 48.8682123532.0499494817c55.9419361161-3.3550753435 59.0497763845 61.0234986974 62.1577504731 78.5065685145 0 0-63.045647484 25.5752356062-110.9958330374 0z" fill="#000" transform="translate(-59.5348189263 .4803646086)" class="E F G H I"/>
        </clipPath>
        <linearGradient id="E" x1="50.00%" y1="0.00%" x2="50.00%" y2="100.00%">
            <stop stop-color="#54dade" offset="0%"/>
            <stop offset="76.2%" stop-color="#24c7d6"/>
        </linearGradient>
        <linearGradient id="F" x1="50.54%" y1="0.96%" x2="50.54%" y2="99.25%">
            <stop stop-color="#9f4a08" offset="0%"/>
            <stop offset="37%" stop-color="#7d3900"/>
            <stop offset="100%" stop-color="#8d4104"/>
        </linearGradient>
    </defs>
    <g transform="translate(.5 .5)">
        <g>
            <g fill="#fff">
                <path d="M.0660864064 78.6331498594S-3.8640789939 3.2917764268 48.9041691928.1265833975c55.9419363706-3.3550752558 59.0497766531 61.0234971019 62.1577507559 78.5065664619 0 0-63.0456477708 25.5752349376-110.9958335423 0z" fill="#ccf2ff" class="C D"/>
                <path d="M1.0619862734 58.4951355985s60.7033844782 14.8865953983 110.8735218811-3.8236007658" class="B C D"/>
                <path d="M33.6377481593 11.4227866174s-7.7350750952 6.7032751991-9.8866362415 24.2971999206" class="B C D"/>
                <path d="M33.6377792015 36.9554200029S29.155204023 47.8217355541 31.596887359 63.1335972761" class="B C D"/>
                <path d="M16.7157688255 61.2762310336s-2.7750294496 11.2938969819-1.0543693414 23.8354715671" class="B C D"/>
                <path d="M55.5311684449 13.078294508c0 0 3.8287296901 7.1126266711 3.8176226137 24.6996760801" class="B C D"/>
                <path d="M78.2070123368 11.0673880865c1.1096370833 1.1399113646 7.4096243732 10.7205434758 9.9202251113 22.8953314242" class="B C D"/>
                <path d="M66.0643066648 37.3821533155c0 0 4.3293510515 6.6152093983 4.3142293691 25.8395874446" class="B C D"/>
                <path d="M54.3431955404 63.8847828036c0 0 1.8950278264 12.9942621924 1.1879218992 26.1152171964" class="B C D"/>
                <path d="M66.7952829072 89.083383607s-3.809058121-45.1132506092 14.0713276588-50.9598927694l25.6404936159 3.324638479s8.4771080941 7.2530684481 6.3308997557 39.6326225034l-20.1515905471 7.9168062567-25.8911304833.0858255303z" fill="#ccf2ff"/>
                <path d="M100.7615464518 42.7731626841c-4.4274496205 4.7333822879-9.5756464647 16.2133001683-7.8410690559 45.8248068479l19.9174052003-7.5181154005s2.513946243-20.8957736399-3.7420142017-36.4005303658c-1.6712804551-4.141796409-5.4310927432-5.0105578081-8.3343219427-1.9061610816z" class="B C D"/>
                <path d="M96.2625427743 85.3516295182l14.7994517209-5.6386057169s.910914089-32.465302335-5.0319070919-33.8314810069c-10.9515857424-2.5166733827-9.767544629 39.4700867238-9.767544629 39.4700867238z" fill="#80bece"/>
                <path d="M0 0c0 0 21.7551496181 14.0960901677 75.2548590081 2.8188781305" clip-path="url(#A)" transform="translate(16.7158650803 5.8987994098)" class="B C D"/>
                <g transform="translate(.0001266407)" class="B C D">
                    <path d="M0 3.2449157542S50.7443515095 17.4283764663 96.0307207797 0" clip-path="url(#B)" transform="translate(7.483445812 29.2215262163)"/>
                </g>
                <g transform="translate(0 .0002093996)" class="B C D">
                    <path d="M4.7725635479 0S1.7396625763 3.7992667946 0 13.262246086" clip-path="url(#C)" transform="translate(42.2076461165 -.6792851547)"/>
                </g>
                <g transform="translate(.0001169053 .0000675673)" class="B C D">
                    <path d="M0 0c0 0 3.3544709078 6.9318600275 4.6863833403 13.0625530204" clip-path="url(#D)" transform="translate(59.5348191971 -.480364596)"/>
                </g>
                <path d="M67.8824884652 59.3905877533c0 0 19.5378827545 3.0376521196 25.6976264767 1.8856123948l3.838097104.2604893685" class="B C D"/>
                <path d="M66.0644728781 78.6878171584s20.3318379903 3.3414018815 26.4529076752 1.2818981556l4.4851177622-1.6235780123" class="B C D"/>
                <path d="M74.8289331842 42.334257433c0 0 17.1462481726 1.7846457268 24.1736904236 2.6655354862l2.2172668636 4.213176058" class="B C D"/>
                <path d="M80.0612370778 60.9366786957s-1.6107937254 10.2299230578-.7708043415 19.3723897886" class="B C D"/>
                <path d="M84.5300800781 43.3648978026s2.2948825786-3.4324804596 4.4234266508-4.3020143658" class="B C D"/>
                <path d="M110.330476613 48.1536144597l-2.0805026211 2.9388484713" class="B C D"/>
                <path d="M112.8792161075 59.3904979222l-3.8892164197 1.5461728085" class="B C D"/>
                <path d="M110.3304925643 74.842888869h3.044677149" class="B C D"/>
                <path d="M92.6554526941 88.726485362l-25.8595489165.356898245s-4.4635727103-43.5511641561 14.0711938386-50.9598927694l23.9975830428 2.7869735904v6.5089124318" class="B C D"/>
            </g>
            <g>
                <path d="M56.5 43.9999812674C56.5 30.1500223464 67.6499927187 19 81.5000010441 19S106.5 30.1500223464 106.5 43.9999812674 95.3500072813 69 81.5000010441 69 56.5 57.8500126485 56.5 43.9999812674z" fill="#f0b90b"/>
                <path d="M72.5997353602 44.2686911762l-3.8250024463 3.8517102848-3.8516638018-3.8517102848 3.8516638018-3.8517102849 3.8250024463 3.8517102849zm9.3232576184-9.3232902927l6.5879608193 6.5879032103 3.8517306222-3.8517102849-6.5870921536-6.561202797-3.8525992879-3.8517102848-10.4128985333 10.4120347787 3.8516638018 3.8517805491 6.5612347315-6.5870951714zm13.1482579765 5.4715800078l-3.8249356258 3.8517102849 3.8517306222 3.8517102848 3.8249356258-3.8517102848-3.8517306222-3.8517102849zM81.9229929786 53.5919836646l-6.5870274214-6.5879756703-3.8250024462 3.8517102849L81.9229929786 61.268703821l10.4388227758-10.4388076521-3.8517306222-3.8250098715-6.5870921536 6.5870973672zm0-5.4715822036l3.8517306222-3.8517102848-3.8517306222-3.8517102849-3.8517306223 3.8517102849 3.8517306223 3.8517102848z" fill="#fffdfa"/>
                <path d="M57.0029702658 44.790137791c0-13.133650069 10.5732655011-23.7069083551 23.7068918894-23.7069083551s23.7068898013 10.5732582861 23.7068898013 23.7069083551-10.5732655011 23.7069105509-23.7068898013 23.7069105509S57.0029702658 57.9237549236 57.0029702658 44.790137791z" opacity=".1" stroke="#191326" stroke-width="3" class="B"/>
            </g>
        </g>
        <g transform="translate(4 11.5)">
            <path d="M0 30.0000006577C0 13.3800006735 13.3800012602 0 30.0000013154 0S60 13.3800006735 60 30.0000006577 46.6200013707 60 30.0000013154 60 0 46.6199999842 0 30.0000006577z" fill="url(#E)"/>
            <path d="M10.513746624 33.2965839237l-.0075767784.3372508082c0 .4261937634.0372104004.8475889008.1096949132 1.262059705h-.1096949132v.6530972185c0 .3166461813.0204573016.6329345703.0613719047.9469078327.7944673031 6.0944866312 9.1910533988 10.8896610654 19.432416321 10.8896610654s18.6386221803-4.7951744342 19.4330894835-10.8896610654c.0409146031-.3139732624.0614560911-.6302616514.0613719046-.9469078327v-.6530972185h-.1096107268c.0724003265-.4144708042.1096107268-.8358659416.1096107268-1.262059705 0-.1131044585-.0026939656-.2255143791-.0075767783-.3372508082-.2944841185-6.3806790319-8.9061662041-11.4986242097-19.4868846098-11.4986242097S10.8075572511 26.9152103538 10.513746624 33.2965839237zm-1.6013941974 0c.1448848393-3.8930958715 2.7903590933-7.1634443875 6.4730946321-9.3993094872 3.8172651189-2.3172312769 8.9883321559-3.6992987271 14.6145110126-3.6992987271s10.797919385 1.3813729122 14.6145110125 3.6992987271c3.68273521 2.2358650997 6.3282936503 5.5062136157 6.4730943032 9.3993094872h.0062297956v2.2524077317c0 4.0413902134-2.6910191105 7.4365655307-6.4793240988 9.7365596376-3.8165916275 2.3179258149-8.9875744781 3.6986041891-14.6145110125 3.6986041891s-10.7972458937-1.3813518655-14.6145110126-3.6986041891c-3.7882211307-2.2999941069-6.4792402412-5.6951694242-6.4792402412-9.7365596376v-2.2524077317h.0061456091z" fill="#606063"/>
            <path d="M49.4943957757 35.5491839714c0 6.5372440733-8.7275226079 11.8358743602-19.4937878968 11.8358743602s-19.494461717-5.2993037783-19.494461717-11.8358743602v-1.8737792969h38.9882496138v1.8737792969z" fill="#bebebe"/>
            <path d="M49.4943957757 33.6339596768c0 6.5372440733-8.7275226079 11.8365478516-19.4937878968 11.8365478516s-19.494461717-5.2993037783-19.494461717-11.8365478516 8.7276071232-11.8358750179 19.494461717-11.8358750179 19.4937878968 5.2993248249 19.4937878968 11.8365485093z" fill="#f5f3f3"/>
            <path d="M13.5053500106 30.289726075v.0220568427c0 .5379301926.0779566305 1.0655265019.2275559097 1.5772536705h-.2275559097v.6931068157c0 .306207065.0248349957.6082679486.0745049871.9062036975.7427768375 4.5006903287 6.9607020832 8.013095198 14.5206431474 8.013095198s13.7779504964-3.5130994073 14.5214008253-8.013095198c.0489965-.2979357489.0745049871-.6006911705.0745049871-.9062036975v-.6931068157h-.2275559097c.146400195-.498046875.2230098427-1.0140044114.2275559097-1.5331189386v-.0661915746c-.0192786915-4.9158773751-6.5469257989-8.8972427105-14.5951481345-8.8972427105S13.52538638 25.3738486999 13.5053500106 30.289726075zm-1.5992898656 0h0v2.2930908203c0 3.231032799 2.1372411284 5.8972378024 5.0406625919 7.6717403017 2.9310346113 1.7910240437 6.8792938092 2.8468901536 11.1545330861 2.8468901536s8.2234142883-1.0558661099 11.155122391-2.8468901536c2.90350565-1.7745024993 5.0399887717-4.4407075027 5.0399887717-7.6717403017v-2.220690497l.0007576778-.0496489426c0-3.2310334568-2.1372407995-5.8972385012-5.0407464495-7.6724144509-2.9310346112-1.7910240436-6.8792938091-2.8475846915-11.1544488996-2.8475846915s-8.2234984748 1.0558661099-11.1552065775 2.8475846915c-2.897191668 1.7703352304-5.0303076615 4.4289634968-5.0399891005 7.6496630702z" class="J"/>
            <path d="M42.6965774401 32.5828322215c0 4.9262106007-6.5344662079 8.92001448-14.5951481346 8.92001448s-14.5959058124-3.9938038793-14.5959058124-8.92001448v-2.0931059739h29.191053947v2.0931059739z" class="K"/>
            <path d="M42.6965774401 30.311955991c0 4.9262106007-6.5344662079 8.9200144595-14.5951481346 8.9200144595s-14.5959058124-3.9931093208-14.5959058124-8.9200144595 6.5351396993-8.9199940912 14.5959058124-8.9199940912 14.5951481346 3.9937828327 14.5951481346 8.9199940912z" class="L"/>
            <path d="M17.9048102552 25.4910485495v.0220778893c0 .5379301926.0779566305 1.0655054552.2275559097 1.5772326239h-.2282294012v.6931068157c0 .3062077227.0255084872.6082686063.0744208007.9062043552.743450329 4.5006903287 6.9613755747 8.013095198 14.5214008253 8.013095198s13.7779504964-3.5124048693 14.5214008253-8.013095198c.0489965-.2979357489.0745049871-.6006911705.0745049871-.9062043552v-.6931068157h-.2276400962c.1464843815-.4980258284.2230940292-1.0140044114.2276400962-1.533097892v-.0662126212c-.0200363694-4.9158556708-6.5469257989-8.8972420528-14.5959058124-8.8972420528s-14.575869443 3.981386382-14.5951481345 8.8972420528zm-1.6000472146 0h0v2.2931118669c0 3.2310334567 2.1365673081 5.8972385012 5.0407464495 7.6717199128 2.9310346112 1.7910240437 6.8786203177 2.8468901125 11.1544488996 2.8468901125s8.2234984748-1.0558660688 11.1545330861-2.8468901125c2.9040949549-1.7744814116 5.040662263-4.4406864561 5.040662263-7.6717199128v-2.2703604863c0-3.231032799-2.1365673081-5.8972378434-5.0399887716-7.6724137931-2.9317081027-1.7917185816-6.8792938092-2.8475846915-11.1552065775-2.8475846915s-8.2234142884 1.0558661099-11.1544488996 2.8475846915c-2.8972758544 1.770356277-5.0303915191 4.4289634968-5.0407464495 7.6496624125z" class="J"/>
            <path d="M47.094401488 27.7841655276c0 4.9261902118-6.5344662079 8.9199940911-14.5951481346 8.9199940911S17.903347541 32.7103557394 17.903347541 27.7841655276v-2.0931059739h29.191053947v2.0931059739z" class="K"/>
            <path d="M47.094401488 25.5132994813c0 4.9261902118-6.5344662079 8.9199940911-14.5951481346 8.9199940911S17.903347541 30.4394896931 17.903347541 25.5132994813s6.5345503943-8.9200144801 14.5959058124-8.9200144801 14.5951481346 3.9938038793 14.5951481346 8.9200144801z" class="L"/>
            <path d="M13.5053500106 20.6925009569v.0220778893c0 .5386247306.0779566305 1.0655054553.2275559097 1.5772326239h-.2275559097v.6931068157c0 .306207065.0248349957.6082679486.0745049871.9062036975.7427768375 4.5006909864 6.9607020832 8.0131169023 14.5206431474 8.0131169023s13.7779504964-3.5124259159 14.5214008253-8.0131169023c.0489965-.2979357489.0745049871-.6006911705.0745049871-.9062036975v-.6931068157h-.2275559097c.146400195-.4980258284.2230098427-1.0139833648.2275559097-1.533097892v-.0662126212c-.0192786915-4.9158556708-6.5469257989-8.8972420528-14.5951481345-8.8972420528s-14.575869443 3.981386382-14.5959058124 8.8972420528zm-1.5992898656 0h0v2.2931118669c0 3.2310327991 2.1372411284 5.8972385012 5.0406625919 7.6717199128 2.9310346113 1.7910450903 6.8792938092 2.8475846916 11.1545330861 2.8475846916s8.2234142883-1.0558661099 11.155122391-2.8475846916c2.90350565-1.7744814116 5.0399887717-4.4406871137 5.0399887717-7.6717199128v-2.220690497l.0007576778-.0496489426c0-3.2310327991-2.1372407995-5.8972588901-5.0407464495-7.6717403018-2.9310346112-1.7917185816-6.8792938091-2.8475846915-11.1544488996-2.8475846915s-8.2234984748 1.0558661099-11.1552065775 2.8475846915c-2.897191668 1.770356277-5.0303076615 4.4282900054-5.0399891005 7.6496624125z" class="J"/>
            <path d="M42.6965774401 22.9857632574c0 4.9262106007-6.5344662079 8.9199940911-14.5951481346 8.9199940911s-14.5959058124-3.9937834904-14.5959058124-8.9199940911v-2.0931059739h29.191053947v2.0931059739z" class="K"/>
            <path d="M42.6965774401 20.7146120696c0 4.9262106007-6.5344662079 8.9199940911-14.5951481346 8.9199940911s-14.5959058124-3.9937834904-14.5959058124-8.9199940911 6.5351396993-8.9199934335 14.5959058124-8.9199934335 14.5951481346 3.9937828327 14.5951481346 8.9199934335z" class="L"/>
            <path d="M16.9571474767 21.2698957198c0 1.6448343211 1.1951946914 3.1179283405 3.0807180769 4.1089709052l-1.3069100789 2.2627626616h.0006734914l-.0006734914 5.7261927375c.0007576779.7568990773.6141399785 1.370281351 1.3710601356 1.3710390288s1.3702182713-.6141399515 1.3709759491-1.3710390288v-4.5537909146l1.4055765703-2.4344825745c.8986059122.1903455011 1.8633823554.2937895676 2.8675580459.2937895676 4.8537683971 0 8.7883052076-2.4193073141 8.7883052076-5.4034423828s-3.9345368105-5.4034423828-8.7883052076-5.4034423828-8.7889786989 2.4193073141-8.7889786989 5.4034423828z" fill="url(#F)"/>
            <path d="M20.03857059 25.3779595965l-.5999966589-.3468901536c-1.5352236664-.9731108567-2.4800479266-2.2993206156-2.4800479266-3.7620807516 0-2.9841350687 3.9345368105-5.4034423828 8.7883052075-5.4034423828s8.788978699 2.4193073141 8.788978699 5.4034423828-3.934452624 5.4034634294-8.788978699 5.4034634294c-.9632610875.0019783809-1.9240807686-.0964776401-2.8668845545-.2938106142l-1.4054923839 2.4344825744v4.5538119612c-.0007576778.7568780308-.6141399784 1.3702603045-1.3710601355 1.3710179823s-1.3703024577-.6141399515-1.3710601356-1.3710179823v-5.726213784l1.3062365875-2.2627626616zm-2.7054991758 2.2869031182v5.7020733274c.0010944236 1.5295410157 1.240739548 2.7691860857 2.7703227239 2.770343649s2.7699017917-1.2405290275 2.7709962152-2.770343649v-4.1786351697l.7289702637-1.2627549007c.710280877.0983724923 1.4264548039.1474531766 2.143470595.1469059648 2.6434537797 0 5.103465337-.6558760281 6.9475690008-1.7896566719 1.8221310066-1.1200161638 3.2407564729-2.8531199489 3.2407564729-5.0131120353s-1.4186254663-3.8930958715-3.2407564729-5.0131120353c-1.8441036638-1.1344751819-4.3041152211-1.7896349677-6.9475690008-1.7896349677s-5.1027918455.6558543238-6.9475690007 1.7896349677c-1.8213733288 1.1200161638-3.2406722865 2.8531199488-3.2406722865 5.0131120353 0 1.8958571861 1.0861732696 3.457241716 2.5944572797 4.5751742659l-.6227269939 1.0793120285c-.0600249218.100644868-.1073376933.2083824421-.1407597044.3206871296-.0401569253.1365082839-.059267244.2783834523-.056489092.4206795528z" fill="#633001"/>
            <path d="M19.7040199841 18.9933060727c0 1.5462099272 1.9696256252 2.7993037783 4.3985723911 2.7993037783s4.3986565776-1.2530938511 4.3986565776-2.7993037783-1.9689521337-2.7993037783-4.3986565776-2.7993037783-4.3985723911 1.253093851-4.3985723911 2.7993037783z" class="M"/>
            <path d="M19.7034780464 17.7933415164h8.7972289687v1.1992987271h-8.7972289687v-1.1992987271z" class="M"/>
            <path d="M19.7040199841 17.7932354468c0 1.5462099273 1.9696256252 2.7993037783 4.3985723911 2.7993037783s4.3986565776-1.253093851 4.3986565776-2.7993037783-1.9689521337-2.7993248249-4.3986565776-2.7993248249-4.3985723911 1.2531148976-4.3985723911 2.7993248249z" fill="#f0b90b"/>
            <path d="M22.4329098509 17.4559846386l1.2393083786-.7889741043c.2619039717-.1665838833.5966292019-.1665838833.8586173599 0l1.2399818701.7889741043c.1151670309.0734737001.1848733917.2006372912.1848733917.3372508082s-.0697063608.263777108-.1848733917.3372297615l-1.2399818701.7889741043c-.261988158.1665838834-.5967133882.1665838834-.8586173599 0l-1.2393083786-.7889741043c-.1152512174-.0734526535-.1849575782-.2006162446-.1849575782-.3372297615s.0697063608-.2637771081.1849575782-.3372508082z" class="M"/>
            <path d="M20.2398350413 14.6332788837c1.0530880041-.6696608971 2.422043479-1.0386289399 3.8620522976-1.0386289399s2.8089642934.3689680428 3.8613788061 1.0386289399c1.0365874647.6593059672 1.9365403597 1.7427431304 1.9365403597 3.1600005051v1.1999932651c0 1.4172363282-.899952895 2.500694538-1.9365403597 3.1600005051-1.0524145127.6703343885-2.422043479 1.0386078934-3.8613788061 1.0386078934s-2.8089642935-.3689469963-3.8620522976-1.0386078934c-1.0358297868-.6593059671-1.9365403597-1.7427641769-1.9365403597-3.1600005051v-1.1999932651c0-1.4172573747.9007105729-2.5006945379 1.9365403597-3.1600005051zm3.8620522976.3606756803c-2.4296202574 0-4.3985723912 1.2531148976-4.3985723912 2.7993248248v1.1999932651c0 1.5462099273 1.9689521338 2.7993037783 4.3985723912 2.7993037783s4.3986565775-1.253093851 4.3986565775-2.7993037783v-1.1999932651c0-1.5462099272-1.9697098115-2.7993248248-4.3986565775-2.7993248248z" fill="#633001"/>
            <path d="M.9779095256 30.0002647525c0-16.0782182627 12.9439155729-29.0220701283 29.0220917898-29.0220701283s29.0220891589 12.9438518656 29.0220891589 29.0220701283-12.9438287557 29.0220898596-29.0220891589 29.0220898596S.9779095256 46.0785034042.9779095256 30.0002647525z" opacity=".2" stroke="#191326" stroke-width="2.837" class="B"/>
        </g>
    </g>
</svg>