<svg xmlns="http://www.w3.org/2000/svg" width="402" height="403" viewBox="0 0 402 403">
    <defs>
        <linearGradient id="A" x1="50.00%" y1="0.00%" x2="50.00%" y2="100.00%">
            <stop stop-color="#54dade" offset="0%"/>
            <stop offset="76.2%" stop-color="#24c7d6"/>
        </linearGradient>
        <linearGradient id="B" x1="50.54%" y1="0.96%" x2="50.54%" y2="99.25%">
            <stop stop-color="#9f4a08" offset="0%"/>
            <stop offset="37%" stop-color="#7d3900"/>
            <stop offset="100%" stop-color="#8d4104"/>
        </linearGradient>
    </defs>
    <g transform="translate(.5 .5)">
        <path d="M0 200.0000043847C0 89.2000044899 89.2000084011 0 200.0000087694 0S400 89.2000044899 400 200.0000043847 310.8000091377 400 200.0000087694 400 0 310.7999998948 0 200.0000043847z" fill="url(#A)"/>
        <path d="M70.0916441596 221.9772261576l-.0505118557 2.2483387212c0 2.8412917565.2480693356 5.6505926724.7312994215 8.4137313668h-.7312994215v4.3539814565c0 2.110974542.1363820103 4.2195638021.4091460309 6.3127188847 5.2964486877 40.6299108746 61.2736893259 72.5977404364 129.54944214 72.5977404364s124.2574812026-31.9678295618 129.5539298903-72.5977404364c.2727640206-2.0931550826.4097072737-4.2017443427.4091460309-6.3127188847v-4.3539814565h-.7307381786c.482668843-2.7631386944.7307381786-5.5724396103.7307381786-8.4137313668 0-.7540297234-.0179597709-1.5034291936-.0505118557-2.2483387212-1.9632274568-42.5378602127-59.3744413606-76.6574947314-129.9125640655-76.6574947314S72.0503816736 179.4347356917 70.0916441596 221.9772261576zm-10.6759613158 0c.9658989288-25.9539724767 18.602393955-47.7562959167 43.1539642138-62.6620632479 25.4484341259-15.4482085129 59.9222143731-24.661991514 97.4300734172-24.661991514s71.9861292339 9.2091527478 97.4300734171 24.661991514c24.5515680665 14.9057673312 42.1886243355 36.7080907712 43.1539620215 62.6620632479h.0415319702v15.0160515445c0 26.9426014232-17.940127403 49.5771035381-43.1954939917 64.9103975844-25.4439441832 15.4528387662-59.9171631875 24.6573612608-97.4300734171 24.6573612608s-71.9816392913-9.2090124371-97.4300734172-24.6573612608c-25.2548075382-15.3332940463-43.1949349412-37.9677961612-43.1949349412-64.9103975844v-15.0160515445h.0409707274z" fill="#606063"/>
        <path d="M329.9626385048 236.9945598093c0 43.5816271551-58.1834840526 78.9058290679-129.9585859784 78.9058290679S70.0409744128 280.5716970219 70.0409744128 236.9945598093v-12.4918619792h259.921664092v12.4918619792z" fill="#bebebe"/>
        <path d="M329.9626385048 224.2263978455c0 43.5816271552-58.1834840526 78.9103190104-129.9585859784 78.9103190104S70.0409744128 267.8080250007 70.0409744128 224.2263978455s58.1840474878-78.9058334526 129.9630781136-78.9058334526 129.9585859784 35.3288321659 129.9585859784 78.9103233951z" fill="#f5f3f3"/>
        <path d="M90.035666737 201.9315071664v.1470456178c0 3.5862012842.5197108705 7.1035100126 1.5170393985 10.5150244702H90.035666737v4.6207121049c0 2.0413804328.1655666381 4.055119657.4966999141 6.0413579831 4.9518455835 30.0046021911 46.4046805548 53.4206346534 96.8042876497 53.4206346534s91.8530033091-23.4206627155 96.8093388354-53.4206346534c.3266433332-1.9862383261.496699914-4.0046078035.496699914-6.0413579831v-4.6207121049h-1.5170393984c.9760012999-3.3203125 1.486732285-6.7600294091 1.5170393984-10.2207929238v-.4412771642c-.1285246105-32.772515834-43.6461719928-59.3149514034-97.3009875638-59.3149514034s-97.1724629533 26.5424355694-97.3060387494 59.3149514034zm-10.6619324371 0h0v15.2872721354c0 21.5402186602 14.2482741892 39.3149186825 33.6044172793 51.1449353449 19.5402307419 11.9401602909 45.8619587279 18.9792676903 74.3635539072 18.9792676903s54.8227619225-7.0391073994 74.3674826071-18.9792676903c19.3567043329-11.8300166624 33.5999251442-29.6047166847 33.5999251442-51.1449353449v-14.8046033135l.0050511856-.3309929508c0-21.5402230449-14.2482719969-39.3149233413-33.6049763298-51.1494296721-19.5402307419-11.9401602909-45.8619587279-18.9838979436-74.3629926644-18.9838979436s-54.8233231653 7.0391073994-74.3680438499 18.9838979436c-19.3146111199 11.8022348689-33.5353844099 29.5264233118-33.5999273366 50.997753801z" fill="#612f01"/>
        <path d="M284.6438496004 217.2188814768c0 32.841404005-43.5631080523 59.4667632004-97.3009875638 59.4667632004s-97.3060387493-26.6253591954-97.3060387493-59.4667632004V203.264841651h194.6070263131v13.9540398258z" fill="#fedc90"/>
        <path d="M284.6438496004 202.0797066067c0 32.8414040051-43.5631080523 59.4667630634-97.3009875638 59.4667630634s-97.3060387493-26.6207288051-97.3060387493-59.4667630634 43.5675979951-59.4666272744 97.3060387493-59.4666272744 97.3009875638 26.6252188847 97.3009875638 59.4666272744z" fill="#d1884f"/>
        <path d="M119.3654017012 169.9403236629v.1471859285c0 3.5862012842.5197108704 7.1033697019 1.5170393984 10.5148841595h-1.5215293412v4.6207121049c0 2.0413848175.1700565808 4.0551240417.4961386712 6.0413623678 4.9563355262 30.0046021911 46.4091704976 53.4206346534 96.8093388353 53.4206346534s91.8530033091-23.4160324623 96.8093388354-53.4206346534c.3266433333-1.9862383261.496699914-4.0046078035.496699914-6.0413623678v-4.6207121049h-1.5176006413c.9765625428-3.3201721893 1.4872935279-6.7600294091 1.5176006413-10.2206526131v-.4414174749c-.1335757961-32.7723711386-43.6461719928-59.3149470187-97.3060387494-59.3149470187s-97.1724629532 26.5425758801-97.3009875637 59.3149470187zm-10.6669814304 0h0v15.2874124461c0 21.5402230449 14.2437820541 39.3149233413 33.6049763298 51.1447994189 19.5402307418 11.9401602909 45.8574687851 18.9792674163 74.3629926643 18.9792674163s54.8233231654-7.0391071254 74.3635539072-18.9792674163c19.3606330328-11.8298760776 33.604415087-29.604576374 33.604415087-51.1447994189v-15.135736575c0-21.5402186602-14.2437820542-39.3149189566-33.5999251443-51.1494252874-19.5447206845-11.9447905442-45.8619587278-18.9838979436-74.3680438499-18.9838979436s-54.8227619225 7.0391073994-74.3629926643 18.9838979436c-19.3151723627 11.8023751796-33.5359434604 29.5264233118-33.6049763298 50.9977494163z" fill="#612f01"/>
        <path d="M313.9626765861 185.227770184c0 32.841268079-43.5631080523 59.4666272744-97.3009875638 59.4666272744S119.355650273 218.069038263 119.355650273 185.227770184v-13.9540398258h194.6070263131v13.9540398258z" fill="#fedc90"/>
        <path d="M313.9626765861 170.0886632084c0 32.8412680791-43.5631080523 59.4666272745-97.3009875638 59.4666272745s-97.3060387493-26.6253591954-97.3060387493-59.4666272745 43.5636692952-59.4667632004 97.3060387493-59.4667632004 97.3009875638 26.6253591954 97.3009875638 59.4667632004z" fill="#d1884f"/>
        <path d="M90.035666737 137.9500063792v.1471859285c0 3.5908315374.5197108705 7.1033697019 1.5170393985 10.5148841595H90.035666737v4.6207121049c0 2.0413804328.1655666381 4.0551196569.4966999141 6.0413579831 4.9518455835 30.0046065758 46.4046805548 53.4207793488 96.8042876497 53.4207793488s91.8530033091-23.416172773 96.8093388354-53.4207793488c.3266433332-1.9862383262.496699914-4.0046078035.496699914-6.0413579831v-4.6207121049h-1.5170393984c.9760012999-3.3201721893 1.486732285-6.7598890984 1.5170393984-10.2206526132v-.4414174748c-.1285246105-32.7723711387-43.6461719928-59.3149470187-97.3009875638-59.3149470187s-97.1724629533 26.54257588-97.3060387494 59.3149470187zm-10.6619324371 0h0v15.2874124461c0 21.5402186602 14.2482741892 39.3149233412 33.6044172793 51.1447994188 19.5402307419 11.9403006017 45.8619587279 18.9838979436 74.3635539072 18.9838979436s54.8227619225-7.0391073994 74.3674826071-18.9838979436c19.3567043329-11.8298760776 33.5999251442-29.6045807586 33.5999251442-51.1447994188v-14.8046033136l.0050511856-.3309929508c0-21.5402186602-14.2482719969-39.3150592672-33.6049763298-51.1449353448-19.5402307419-11.9447905442-45.8619587279-18.9838979436-74.3629926644-18.9838979436s-54.8233231653 7.0391073994-74.3680438499 18.9838979436c-19.3146111199 11.8023751796-33.5353844099 29.5219333693-33.5999273366 50.9977494163z" fill="#612f01"/>
        <path d="M284.6438496004 153.2384217157c0 32.841404005-43.5631080523 59.4666272744-97.3009875638 59.4666272744s-97.3060387493-26.6252232694-97.3060387493-59.4666272744v-13.9540398258h194.6070263131v13.9540398258z" fill="#fedc90"/>
        <path d="M284.6438496004 138.0974137973c0 32.8414040051-43.5631080523 59.4666272745-97.3009875638 59.4666272745s-97.3060387493-26.6252232694-97.3060387493-59.4666272745 43.5675979951-59.4666228897 97.3060387493-59.4666228897 97.3009875638 26.6252188847 97.3009875638 59.4666228897z" fill="#d1884f"/>
        <path d="M113.047649845 141.7993047987c0 10.9655621409 7.9679646094 20.7861889368 20.5381205126 27.3931393679l-8.712733859 15.0850844109h.0044899427l-.0044899427 38.1746182496c.0050511855 5.0459938488 4.0942665229 9.1352090069 9.1404009036 9.1402601922 5.0455731379-.0050511853 9.1347884753-4.0942663434 9.1398396608-9.1402601922v-30.3586060973l9.3705104684-16.2298838298c5.9907060816 1.2689700072 12.422549036 1.9585971175 19.1170536399 1.9585971175 32.3584559806 0 58.5887013836-16.1287154274 58.5887013836-36.0229492188s-26.230245403-36.0229492187-58.5887013836-36.0229492187-58.5931913263 16.1287154274-58.5931913263 36.0229492187z" fill="url(#B)"/>
        <path d="M133.5904706001 169.1863973098l-3.9999777257-2.3126010237c-10.234824443-6.4874057112-16.5336528442-15.3288041038-16.5336528442-25.0805383441 0-19.8942337913 26.230245403-36.0229492188 58.5887013836-36.0229492188s58.5931913263 16.1287154275 58.5931913263 36.0229492188-26.2296841601 36.0230895294-58.5931913263 36.0230895294c-6.4217405833.0131892062-12.8272051242-.6431842672-19.1125636972-1.9587374281l-9.3699492255 16.2298838297v30.3587464081c-.0050511856 5.0458535381-4.0942665229 9.1350686961-9.1404009037 9.1401198814-5.0461343807-.0050511853-9.1353497181-4.0942663433-9.1404009036-9.1401198814v-38.1747585604l8.7082439163-15.0850844109zm-18.0366611716 15.2460207884v38.0138221829c.0072961569 10.1969401041 8.2715969862 18.4612405711 18.4688181589 18.4689576598 10.1989049012-.005191496 18.4660119448-8.2701935165 18.4733081017-18.4689576598v-27.8575677982l4.8598017576-8.4183660046c4.735205847.6558166153 9.5096986929.9830211771 14.2898039671.9793730988 17.623025198 0 34.0231022461-4.3725068542 46.3171266717-11.9310444799 12.1475400441-7.4667744253 21.6050431528-19.0207996588 21.6050431528-33.420746902s-9.4575031087-25.9539724766-21.6050431528-33.4207469019c-12.2940244256-7.563167879-28.6941014737-11.9308997845-46.3171266717-11.9308997845s-34.0186123034 4.3723621588-46.3171266717 11.9308997845c-12.1424888585 7.4667744253-21.6044819099 19.0207996587-21.6044819099 33.4207469019 0 12.6390479077 7.2411551307 23.0482781071 17.2963818647 30.5011617727l-4.1515132926 7.1954135237c-.4001661455.6709657866-.7155846219 1.3892162805-.9383980297 2.1379141972-.267712835.9100552262-.3951149599 1.8558896821-.3765939461 2.804530352z" fill="#633001"/>
        <path d="M131.3601332271 126.6220404847c0 10.3080661817 13.130837501 18.6620251886 29.3238159409 18.6620251886s29.3243771838-8.3539590069 29.3243771838-18.6620251886-13.1263475583-18.6620251886-29.3243771838-18.6620251886-29.3238159409 8.3539590068-29.3238159409 18.6620251886z" fill="#9e7200"/>
        <path d="M131.3565203095 118.6222767761h58.6481931247v7.9953248473h-58.6481931247v-7.9953248473z" fill="#9e7200"/>
        <path d="M131.3601332271 118.621569645c0 10.3080661817 13.130837501 18.6620251886 29.3238159409 18.6620251886s29.3243771838-8.3539590069 29.3243771838-18.6620251886-13.1263475583-18.6621654993-29.3243771838-18.6621654993-29.3238159409 8.3540993175-29.3238159409 18.6621654993z" fill="#f0b90b"/>
        <path d="M149.5527323389 116.3732309237l8.262055858-5.2598273617c1.7460264774-1.1105592224 3.977528012-1.1105592224 5.7241157323 0l8.2665458007 5.2598273617c.767780206.4898246677 1.2324892781 1.3375819414 1.2324892781 2.2483387212s-.4647090721 1.7585140536-1.2324892781 2.2481984106l-8.2665458007 5.2598273617c-1.7465877203 1.1105592223-3.9780892549 1.1105592223-5.7241157323 0l-8.262055858-5.2598273617c-.7683414489-.489684357-1.233050521-1.3374416308-1.233050521-2.2481984106s.4647090721-1.7585140535 1.233050521-2.2483387212z" fill="#9e7200"/>
        <path d="M134.9322336083 97.5551925581c7.0205866944-4.4644059806 16.146956527-6.9241929328 25.7470153172-6.9241929328s18.7264286228 2.4597869522 25.7425253744 6.9241929328c6.9105830976 4.3953731143 12.9102690647 11.618287536 12.9102690647 21.0666700342v7.9999551005c0 9.4482421875-5.9996859671 16.6712969199-12.9102690647 21.0666700342-7.0160967516 4.4688959231-16.1469565269 6.9240526221-25.7425253744 6.9240526221s-18.7264286228-2.4596466415-25.7470153172-6.9240526221c-6.9055319119-4.3953731143-12.9102690646-11.6184278467-12.9102690646-21.0666700342v-7.9999551005c0-9.4483824982 6.0047371527-16.6712969199 12.9102690646-21.0666700342zm25.7470153172 2.4045045349c-16.1974683826 0-29.3238159409 8.3540993175-29.3238159409 18.6621654993v7.9999551005c0 10.3080661818 13.1263475583 18.6620251886 29.3238159409 18.6620251886s29.3243771838-8.3539590068 29.3243771838-18.6620251886v-7.9999551005c0-10.3080661818-13.1313987439-18.6621654993-29.3243771838-18.6621654993z" fill="#633001"/>
        <path d="M6.5193968376 200.0017650168c0-107.1881217518 86.2927704863-193.4804675223 193.4806119318-193.4804675223s193.480594393 86.2923457705 193.480594393 193.4804675223-86.2921917046 193.4805990635-193.480594393 193.4805990635S6.5193968376 307.1900226946 6.5193968376 200.0017650168z" fill="none" opacity=".2" stroke="#191326" stroke-width="2.837"/>
    </g>
</svg>