<svg xmlns="http://www.w3.org/2000/svg" width="402" height="402" viewBox="0 0 402 402">
    <path d="M.5 200.5000039736C.5 89.7000325521 89.700440162.5 200.5000015895.5S400.5 89.7000325521 400.5 200.5000039736 311.300376819 400.5 200.5000015895 400.5.5 311.2999738057.5 200.5000039736z" stroke="#fec45e" fill="#f4b731"/>
    <path d="M111.7221395558 84.4441226349h80.2547206899c48.8142907525 0 85.819906281 30.7735252381 99.5849617289 75.5470848084h24.9983694156v27.0656299591h-19.7334767956c.3853352895 4.2781575521.5843099004 8.633219401.5843099004 13.0603027344v.6675211588c.0016276042 4.9070239067-.2457682311 9.8097745578-.7389322975 14.6830248833h19.8880991927v27.0656323433h-25.4760712423c-14.128418081 44.1522248586-50.8418786593 74.6329784393-99.1072599022 74.6329784393h-80.2547206899v-74.6433544159H83.8331419383v-27.0654288928h27.8889976175v-28.4057625134H83.8331419383v-27.0656299592h27.8889976175V84.4390363719zm22.4348960116 158.0841096242v50.3560415904h57.8198246783c35.6774905179 0 62.185465989-20.1680501302 74.5251470766-50.3560415904H134.1570355674zm139.2163097001-27.0654288927H134.1570355674v-28.405965964H273.413628471c.5135091187 4.467976888.779215501 9.0543619791.779215501 13.7227376302v.6624348958c.0028483073 4.6881111463-.2709960959 9.3709317843-.8194987045 14.0155037244zm-81.3964850218-106.7830443382c35.841471639 0 62.4291997149 20.6972312927 74.6940110102 51.3114484151H134.1570355674v-51.3114484151h57.8198246783z" stroke="#fec45e" fill="#fffdfa"/>
    <path d="M200.5000015895 387.4563802083c103.2556160549 0 186.9567854162-83.7011655171 186.9567854162-186.9563762347S303.7556176444 13.5438232422 200.5000015895 13.5438232422 13.5440267964 97.2447916667 13.5440267964 200.5000039736s83.7011725402 186.9563762347 186.9559747931 186.9563762347zm0 13.0436197917C310.9557316339 400.5 400.5 310.9551251729 400.5 200.5000039736S310.9557316339.5 200.5000015895.5.5 90.0448811849.5 200.5000039736 90.0454922481 400.5 200.5000015895 400.5z" fill="#191326" opacity=".2"/>
</svg>