<svg xmlns="http://www.w3.org/2000/svg" width="117" height="92" viewBox="0 0 117 92">
    <style>
        <![CDATA[.B{fill:none}.C{stroke:#80bece}.D{stroke-width:.27}.E{fill-rule:nonzero}.F{stroke:none}.G{stroke-linejoin:miter}.H{stroke-linecap:butt}.I{stroke-width:.0299999634}]]>
    </style>
    <defs>
        <clipPath id="A">
            <path d="M.0301297889 78.5565179962S-3.9000355936 3.2151425938 48.8682123532.0499494817c55.9419361161-3.3550753435 59.0497763845 61.0234986974 62.1577504731 78.5065685145 0 0-63.045647484 25.5752356062-110.9958330374 0z" fill="#000" transform="translate(-16.7157012084 -5.8986895593)" class="E F G H I"/>
        </clipPath>
        <clipPath id="B">
            <path d="M.0301297889 78.5565179962S-3.9000355936 3.2151425938 48.8682123532.0499494817c55.9419361161-3.3550753435 59.0497763845 61.0234986974 62.1577504731 78.5065685145 0 0-63.045647484 25.5752356062-110.9958330374 0z" fill="#000" transform="translate(-7.4834457779 -29.2215269803)" class="E F G H I"/>
        </clipPath>
        <clipPath id="C">
            <path d="M.0301297889 78.5565179962S-3.9000355936 3.2151425938 48.8682123532.0499494817c55.9419361161-3.3550753435 59.0497763845 61.0234986974 62.1577504731 78.5065685145 0 0-63.045647484 25.5752356062-110.9958330374 0z" fill="#000" transform="translate(-42.2076459245 .6792851725)" class="E F G H I"/>
        </clipPath>
        <clipPath id="D">
            <path d="M.0301297889 78.5565179962S-3.9000355936 3.2151425938 48.8682123532.0499494817c55.9419361161-3.3550753435 59.0497763845 61.0234986974 62.1577504731 78.5065685145 0 0-63.045647484 25.5752356062-110.9958330374 0z" fill="#000" transform="translate(-59.5348189263 .4803646086)" class="E F G H I"/>
        </clipPath>
    </defs>
    <g transform="translate(.5 .5)">
        <g>
            <g fill="#fff">
                <path d="M.0660864064 78.6331498594S-3.8640789939 3.2917764268 48.9041691928.1265833975c55.9419363706-3.3550752558 59.0497766531 61.0234971019 62.1577507559 78.5065664619 0 0-63.0456477708 25.5752349376-110.9958335423 0z" fill="#ccf2ff" class="C D"/>
                <path d="M1.0619862734 58.4951355985s60.7033844782 14.8865953983 110.8735218811-3.8236007658" class="B C D"/>
                <path d="M33.6377481593 11.4227866174s-7.7350750952 6.7032751991-9.8866362415 24.2971999206" class="B C D"/>
                <path d="M33.6377792015 36.9554200029S29.155204023 47.8217355541 31.596887359 63.1335972761" class="B C D"/>
                <path d="M16.7157688255 61.2762310336s-2.7750294496 11.2938969819-1.0543693414 23.8354715671" class="B C D"/>
                <path d="M55.5311684449 13.078294508c0 0 3.8287296901 7.1126266711 3.8176226137 24.6996760801" class="B C D"/>
                <path d="M78.2070123368 11.0673880865c1.1096370833 1.1399113646 7.4096243732 10.7205434758 9.9202251113 22.8953314242" class="B C D"/>
                <path d="M66.0643066648 37.3821533155c0 0 4.3293510515 6.6152093983 4.3142293691 25.8395874446" class="B C D"/>
                <path d="M54.3431955404 63.8847828036c0 0 1.8950278264 12.9942621924 1.1879218992 26.1152171964" class="B C D"/>
                <path d="M66.7952829072 89.083383607s-3.809058121-45.1132506092 14.0713276588-50.9598927694l25.6404936159 3.324638479s8.4771080941 7.2530684481 6.3308997557 39.6326225034l-20.1515905471 7.9168062567-25.8911304833.0858255303z" fill="#ccf2ff"/>
                <path d="M100.7615464518 42.7731626841c-4.4274496205 4.7333822879-9.5756464647 16.2133001683-7.8410690559 45.8248068479l19.9174052003-7.5181154005s2.513946243-20.8957736399-3.7420142017-36.4005303658c-1.6712804551-4.141796409-5.4310927432-5.0105578081-8.3343219427-1.9061610816z" class="B C D"/>
                <path d="M96.2625427743 85.3516295182l14.7994517209-5.6386057169s.910914089-32.465302335-5.0319070919-33.8314810069c-10.9515857424-2.5166733827-9.767544629 39.4700867238-9.767544629 39.4700867238z" fill="#80bece"/>
                <path d="M0 0c0 0 21.7551496181 14.0960901677 75.2548590081 2.8188781305" clip-path="url(#A)" transform="translate(16.7158650803 5.8987994098)" class="B C D"/>
                <g transform="translate(.0001266407)" class="B C D">
                    <path d="M0 3.2449157542S50.7443515095 17.4283764663 96.0307207797 0" clip-path="url(#B)" transform="translate(7.483445812 29.2215262163)"/>
                </g>
                <g transform="translate(0 .0002093996)" class="B C D">
                    <path d="M4.7725635479 0S1.7396625763 3.7992667946 0 13.262246086" clip-path="url(#C)" transform="translate(42.2076461165 -.6792851547)"/>
                </g>
                <g transform="translate(.0001169053 .0000675673)" class="B C D">
                    <path d="M0 0c0 0 3.3544709078 6.9318600275 4.6863833403 13.0625530204" clip-path="url(#D)" transform="translate(59.5348191971 -.480364596)"/>
                </g>
                <path d="M67.8824884652 59.3905877533c0 0 19.5378827545 3.0376521196 25.6976264767 1.8856123948l3.838097104.2604893685" class="B C D"/>
                <path d="M66.0644728781 78.6878171584s20.3318379903 3.3414018815 26.4529076752 1.2818981556l4.4851177622-1.6235780123" class="B C D"/>
                <path d="M74.8289331842 42.334257433c0 0 17.1462481726 1.7846457268 24.1736904236 2.6655354862l2.2172668636 4.213176058" class="B C D"/>
                <path d="M80.0612370778 60.9366786957s-1.6107937254 10.2299230578-.7708043415 19.3723897886" class="B C D"/>
                <path d="M84.5300800781 43.3648978026s2.2948825786-3.4324804596 4.4234266508-4.3020143658" class="B C D"/>
                <path d="M110.330476613 48.1536144597l-2.0805026211 2.9388484713" class="B C D"/>
                <path d="M112.8792161075 59.3904979222l-3.8892164197 1.5461728085" class="B C D"/>
                <path d="M110.3304925643 74.842888869h3.044677149" class="B C D"/>
                <path d="M92.6554526941 88.726485362l-25.8595489165.356898245s-4.4635727103-43.5511641561 14.0711938386-50.9598927694l23.9975830428 2.7869735904v6.5089124318" class="B C D"/>
            </g>
            <g>
                <path d="M56.5 43.9999812674C56.5 30.1500223464 67.6499927187 19 81.5000010441 19S106.5 30.1500223464 106.5 43.9999812674 95.3500072813 69 81.5000010441 69 56.5 57.8500126485 56.5 43.9999812674z" fill="#f0b90b"/>
                <path d="M72.5997353602 44.2686911762l-3.8250024463 3.8517102848-3.8516638018-3.8517102848 3.8516638018-3.8517102849 3.8250024463 3.8517102849zm9.3232576184-9.3232902927l6.5879608193 6.5879032103 3.8517306222-3.8517102849-6.5870921536-6.561202797-3.8525992879-3.8517102848-10.4128985333 10.4120347787 3.8516638018 3.8517805491 6.5612347315-6.5870951714zm13.1482579765 5.4715800078l-3.8249356258 3.8517102849 3.8517306222 3.8517102848 3.8249356258-3.8517102848-3.8517306222-3.8517102849zM81.9229929786 53.5919836646l-6.5870274214-6.5879756703-3.8250024462 3.8517102849L81.9229929786 61.268703821l10.4388227758-10.4388076521-3.8517306222-3.8250098715-6.5870921536 6.5870973672zm0-5.4715822036l3.8517306222-3.8517102848-3.8517306222-3.8517102849-3.8517306223 3.8517102849 3.8517306223 3.8517102848z" fill="#fffdfa"/>
                <path d="M57.0029702658 44.790137791c0-13.133650069 10.5732655011-23.7069083551 23.7068918894-23.7069083551s23.7068898013 10.5732582861 23.7068898013 23.7069083551-10.5732655011 23.7069105509-23.7068898013 23.7069105509S57.0029702658 57.9237549236 57.0029702658 44.790137791z" opacity=".1" stroke="#191326" stroke-width="3" class="B"/>
            </g>
        </g>
        <g>
            <path d="M1.4999921222 41.4999993423C1.4999921222 24.8800009668 14.8799923557 11.5 31.4999904779 11.5s30.0000016443 13.3800009668 30.0000016443 29.9999993423S48.1199892579 71.5 31.4999904779 71.5 1.4999921222 58.1199990332 1.4999921222 41.4999993423z" fill="#fffdfa"/>
            <path d="M31.5000046179 23.7469053905c-7.3413504456 0-13.3413580092 5.9648278328-13.3413580092 13.3413738677 0 1.4820704292.2475922602 2.9296559943.7061977812 4.3413834044.3172565224.9531008173 1.3765314899 1.4820651675 2.3648379633 1.1648244126.9524009655-.3179300312 1.4820598247-1.376548008 1.1641298109-2.3648282273-.386584039-1.0986012667-.5659432061-2.259400516-.5289853679-3.4234462042.1413910918-4.9765489288 4.1648284595-9.0703440057 9.1413823772-9.3179310178 5.5406871158-.2820666145 10.1289732661 4.1296584936 10.1289732661 9.5999976323 0 5.1179347667-4.0234373677 9.3179323332-9.070329039 9.6000042093 0 0-1.8710431766.1062064359-2.7882963119.2468924741l-1.0586021338.1765547166c-.1062011684.0351741404-.2117288454-.0703430191-.1765810152-.1765547166l.3172565224-1.5531027246 1.7296520848-7.9765479423c.2117288454-.9882802193-.4234576908-1.976555177-1.411722071-2.1882787724s-1.9765287604.4234471907-2.1882576058 1.4117221484l-4.2000183829 19.6234556094c-.2117288454.9882749577.4234576908 1.9765499154 1.411722071 2.1882787724s1.9765708536-.4234577141 2.188299699-1.4117326717c.0351478302-.2117183337.5999966129-2.7882754181.5999966129-2.7882754181.4234155976-1.9765499154 2.046866514-3.4234461631 3.953099614-3.6703438783.4234576908-.0703430191 2.0820564375-.1765494549 2.0820564375-.1765494549 6.8827449245-.5296589088 12.3179464564-6.2820699647 12.3179464564-13.3062116277 0-7.3765512965-6.0000082213-13.3413738676-13.34140076-13.3413738676z" fill="#191326"/>
            <path d="M32.4531237433 54.4531168157c-1.1999932256-.2468924741-2.3999864512.4944847479-2.6475787114 1.729662703-.2469187688 1.1999932914.4944689358 2.3999971061 1.7296520848 2.6468948418 1.1999932256.2468977357 2.3999864513-.4937954715 2.6469052201-1.7296521796s-.4937954444-2.4000076294-1.7289785935-2.6469053652z" fill="#e6007a"/>
            <path d="M2.4779564905 41.4999993423c0-16.0782219038 12.9438303933-29.0220687915 29.0220468119-29.0220687915s29.0220921937 12.9438468877 29.0220921937 29.0220687915-12.9438751173 29.0220701069-29.0220921937 29.0220701069S2.4779564905 57.5782278231 2.4779564905 41.4999993423z" opacity=".2" stroke="#191326" stroke-width="2.837" class="B"/>
        </g>
    </g>
</svg>