<svg xmlns="http://www.w3.org/2000/svg" width="402" height="403" viewBox="0 0 402 403">
    <path d="M.5 200.4999956153C.5 89.7000064455 89.7000015566.5 200.4999890382.5S400.5 89.7000064455 400.5 200.4999956153 311.2999809046 400.5 200.4999890382 400.5.5 311.2999935545.5 200.4999956153z" fill="#fffdfa"/>
    <path d="M200.5000833043 82.1460359367c-48.9423363035 0-88.9423867277 39.7655188848-88.9423867277 88.9424924509 0 9.8804695278 1.6506150678 19.5310399621 4.707985208 28.9425560291 2.1150434829 6.3540054487 9.1768765994 9.8804344502 15.7655864222 7.7654960844 6.3493397697-2.1195335414 9.880398831-9.1769867201 7.7608654057-15.7655215157-2.5772269267-7.3240084445-3.7729547071-15.0626701061-3.5265691189-22.8229746944.9426072786-33.1769928587 27.7655230632-60.4689600379 60.9425491812-62.1195401185 36.937914105-1.8804440965 67.5264884403 27.531056624 67.5264884403 63.9999842151 0 34.1195651113-26.8229157846 62.1195488879-60.46886026 64.0000280621 0 0-12.4736211775.7080429057-18.5886420791 1.6459498273l-7.0573475589 1.1770314442c-.7080077892.2344942692-1.411525636-.4689534608-1.177206768-1.1770314442l2.1150434829-10.3540181643 11.5310138988-53.1769862817c1.4115256361-6.5885347956-2.8230512721-13.1770345135-9.4114804735-14.5885251492s-13.1768584029 2.8229812715-14.588384039 9.4114809894l-28.0001225526 130.8230373957c-1.4115256361 6.5884997179 2.8230512721 13.1769994358 9.4114804735 14.5885251493s13.1771390243-2.8230514269 14.5886646604-9.4115511448c.234318868-1.411455558 3.9999774187-18.5885027872 3.9999774187-18.5885027872 2.8227706507-13.1769994358 13.6457767603-22.8229744203 26.3539974272-24.4689591883 2.8230512721-.4689534608 13.8803762497-1.1769963665 13.8803762497-1.1769963665 45.8849661635-3.5310593919 82.119643043-41.8804664312 82.119643043-88.7080775175 0-49.1770086437-40.0000548089-88.9424924509-88.9426717339-88.9424924509z" fill="#191326"/>
    <path d="M206.8542108075 286.8541121049c-7.9999548375-1.6459498274-15.999909675 3.2965649856-17.6505247428 11.5310846861-1.6461251255 7.999955276 3.2964595719 15.9999807073 11.5310138988 17.6459656123 7.9999548375 1.645984905 15.999909675-3.29196981 17.6460348004-11.5310145308s-3.2919696295-16.0000508627-11.5265239564-17.6460357676z" fill="#e6007a"/>
    <path d="M7.0197624554 200.4999956153c0-107.1881460253 86.292202622-193.4804586099 193.4803120795-193.4804586099S393.9806891593 93.31184959 393.9806891593 200.4999956153s-86.2925007822 193.4804673794-193.4806146244 193.4804673794S7.0197624554 307.6881854877 7.0197624554 200.4999956153z" fill="none" opacity=".2" stroke="#191326" stroke-width="2.837"/>
</svg>