<svg xmlns="http://www.w3.org/2000/svg" width="402" height="403" viewBox="0 0 402 403">
    <path d="M.5 200.4999298447C.5 89.6999712451 89.7000084011.5 200.5000087694.5S400.5 89.6999712451 400.5 200.4999298447 311.3000091377 400.5 200.5000087694 400.5.5 311.3000243702.5 200.4999298447z" fill="#f5f3f3"/>
    <path d="M200.4999400209 271.2268424181v69.6597519312l85.7332113741-120.3816326955-85.7332113741 50.7218807643z" fill="#2f3030"/>
    <path d="M200.4999400209 163.7379096786v89.6643956657l85.7332113741-50.7263701571-85.7332113741-38.9380255086z" fill="#191326"/>
    <path d="M200.4999400209 60.5003846603v103.2366576135l85.7332113741 38.9380255086-85.7332113741-142.1746831221z" fill="#2f3030"/>
    <path d="M200.5000599791 271.2276929145v69.6597519312l-85.7332113741-120.386262947 85.7332113741 50.7265110158z" fill="#828384"/>
    <path d="M200.5000599791 163.7379096786v89.6643956657l-85.7332113741-50.7263701571 85.7332113741-38.9380255086z" fill="#343535"/>
    <path d="M200.5000599791 60.5003846603v103.2366576135l-85.7332113741 38.9380255086 85.7332113741-142.1746831221z" fill="#828384"/>
    <path d="M7.0193968376 200.5c0-107.1880818028 86.2927704863-193.4803954121 193.4806119318-193.4803954121S393.9806031624 93.3119181972 393.9806031624 200.5s-86.2921917046 193.4803954121-193.480594393 193.4803954121S7.0193968376 307.6882177287 7.0193968376 200.5z" fill="none" opacity=".2" stroke="#191326" stroke-width="2.837"/>
</svg>