<svg xmlns="http://www.w3.org/2000/svg" width="117" height="92" viewBox="0 0 117 92">
    <style>
        <![CDATA[.B{fill:none}.C{stroke:#80bece}.D{stroke-width:.27}.E{fill-rule:nonzero}.F{stroke:none}.G{stroke-linejoin:miter}.H{stroke-linecap:butt}.I{stroke-width:.0299999634}.J{fill:#f5b7c7}.K{fill:#e4eded}.L{fill:#3d3d3d}.M{fill:#c2d3d2}]]>
    </style>
    <defs>
        <clipPath id="A">
            <path d="M.0301297889 78.5565179962S-3.9000355936 3.2151425938 48.8682123532.0499494817c55.9419361161-3.3550753435 59.0497763845 61.0234986974 62.1577504731 78.5065685145 0 0-63.045647484 25.5752356062-110.9958330374 0z" fill="#000" transform="translate(-16.7157012084 -5.8986895593)" class="E F G H I"/>
        </clipPath>
        <clipPath id="B">
            <path d="M.0301297889 78.5565179962S-3.9000355936 3.2151425938 48.8682123532.0499494817c55.9419361161-3.3550753435 59.0497763845 61.0234986974 62.1577504731 78.5065685145 0 0-63.045647484 25.5752356062-110.9958330374 0z" fill="#000" transform="translate(-7.4834457779 -29.2215269803)" class="E F G H I"/>
        </clipPath>
        <clipPath id="C">
            <path d="M.0301297889 78.5565179962S-3.9000355936 3.2151425938 48.8682123532.0499494817c55.9419361161-3.3550753435 59.0497763845 61.0234986974 62.1577504731 78.5065685145 0 0-63.045647484 25.5752356062-110.9958330374 0z" fill="#000" transform="translate(-42.2076459245 .6792851725)" class="E F G H I"/>
        </clipPath>
        <clipPath id="D">
            <path d="M.0301297889 78.5565179962S-3.9000355936 3.2151425938 48.8682123532.0499494817c55.9419361161-3.3550753435 59.0497763845 61.0234986974 62.1577504731 78.5065685145 0 0-63.045647484 25.5752356062-110.9958330374 0z" fill="#000" transform="translate(-59.5348189263 .4803646086)" class="E F G H I"/>
        </clipPath>
    </defs>
    <g transform="translate(.5 .5)">
        <g fill="#fff">
            <path d="M.0660864064 78.6331498594S-3.8640789939 3.2917764268 48.9041691928.1265833975c55.9419363706-3.3550752558 59.0497766531 61.0234971019 62.1577507559 78.5065664619 0 0-63.0456477708 25.5752349376-110.9958335423 0z" fill="#ccf2ff" class="C D"/>
            <path d="M1.0619862734 58.4951355985s60.7033844782 14.8865953983 110.8735218811-3.8236007658" class="B C D"/>
            <path d="M33.6377481593 11.4227866174s-7.7350750952 6.7032751991-9.8866362415 24.2971999206" class="B C D"/>
            <path d="M33.6377792015 36.9554200029S29.155204023 47.8217355541 31.596887359 63.1335972761" class="B C D"/>
            <path d="M16.7157688255 61.2762310336s-2.7750294496 11.2938969819-1.0543693414 23.8354715671" class="B C D"/>
            <path d="M55.5311684449 13.078294508c0 0 3.8287296901 7.1126266711 3.8176226137 24.6996760801" class="B C D"/>
            <path d="M78.2070123368 11.0673880865c1.1096370833 1.1399113646 7.4096243732 10.7205434758 9.9202251113 22.8953314242" class="B C D"/>
            <path d="M66.0643066648 37.3821533155c0 0 4.3293510515 6.6152093983 4.3142293691 25.8395874446" class="B C D"/>
            <path d="M54.3431955404 63.8847828036c0 0 1.8950278264 12.9942621924 1.1879218992 26.1152171964" class="B C D"/>
            <path d="M66.7952829072 89.083383607s-3.809058121-45.1132506092 14.0713276588-50.9598927694l25.6404936159 3.324638479s8.4771080941 7.2530684481 6.3308997557 39.6326225034l-20.1515905471 7.9168062567-25.8911304833.0858255303z" fill="#ccf2ff"/>
            <path d="M100.7615464518 42.7731626841c-4.4274496205 4.7333822879-9.5756464647 16.2133001683-7.8410690559 45.8248068479l19.9174052003-7.5181154005s2.513946243-20.8957736399-3.7420142017-36.4005303658c-1.6712804551-4.141796409-5.4310927432-5.0105578081-8.3343219427-1.9061610816z" class="B C D"/>
            <path d="M96.2625427743 85.3516295182l14.7994517209-5.6386057169s.910914089-32.465302335-5.0319070919-33.8314810069c-10.9515857424-2.5166733827-9.767544629 39.4700867238-9.767544629 39.4700867238z" fill="#80bece"/>
            <path d="M0 0c0 0 21.7551496181 14.0960901677 75.2548590081 2.8188781305" clip-path="url(#A)" transform="translate(16.7158650803 5.8987994098)" class="B C D"/>
            <g transform="translate(.0001266407)" class="B C D">
                <path d="M0 3.2449157542S50.7443515095 17.4283764663 96.0307207797 0" clip-path="url(#B)" transform="translate(7.483445812 29.2215262163)"/>
            </g>
            <g transform="translate(0 .0002093996)" class="B C D">
                <path d="M4.7725635479 0S1.7396625763 3.7992667946 0 13.262246086" clip-path="url(#C)" transform="translate(42.2076461165 -.6792851547)"/>
            </g>
            <g transform="translate(.0001169053 .0000675673)" class="B C D">
                <path d="M0 0c0 0 3.3544709078 6.9318600275 4.6863833403 13.0625530204" clip-path="url(#D)" transform="translate(59.5348191971 -.480364596)"/>
            </g>
            <path d="M67.8824884652 59.3905877533c0 0 19.5378827545 3.0376521196 25.6976264767 1.8856123948l3.838097104.2604893685" class="B C D"/>
            <path d="M66.0644728781 78.6878171584s20.3318379903 3.3414018815 26.4529076752 1.2818981556l4.4851177622-1.6235780123" class="B C D"/>
            <path d="M74.8289331842 42.334257433c0 0 17.1462481726 1.7846457268 24.1736904236 2.6655354862l2.2172668636 4.213176058" class="B C D"/>
            <path d="M80.0612370778 60.9366786957s-1.6107937254 10.2299230578-.7708043415 19.3723897886" class="B C D"/>
            <path d="M84.5300800781 43.3648978026s2.2948825786-3.4324804596 4.4234266508-4.3020143658" class="B C D"/>
            <path d="M110.330476613 48.1536144597l-2.0805026211 2.9388484713" class="B C D"/>
            <path d="M112.8792161075 59.3904979222l-3.8892164197 1.5461728085" class="B C D"/>
            <path d="M110.3304925643 74.842888869h3.044677149" class="B C D"/>
            <path d="M92.6554526941 88.726485362l-25.8595489165.356898245s-4.4635727103-43.5511641561 14.0711938386-50.9598927694l23.9975830428 2.7869735904v6.5089124318" class="B C D"/>
        </g>
        <g>
            <path d="M59 44c0-13.8499668666 11.1499609135-25 25.0000002838-25S109 30.1500331334 109 44 97.8500396541 69 84.0000002838 69 59 57.8500395275 59 44z" fill="#f0b90b"/>
            <path d="M60.3685031699 43.8540657843c0-13.133639381 10.5733240153-23.7069266183 23.7069269168-23.7069266183s23.7067810274 10.5732872373 23.7067810274 23.7069266183-10.5731781259 23.7068902879-23.7067810274 23.7068902879-23.7069269168-10.5732872373-23.7069269168-23.7068902879z" stroke="#191326" opacity=".1" stroke-width="3" class="B"/>
        </g>
        <g>
            <g fill="#6599cd">
                <path d="M7 45.4999651877C7 28.8799587423 20.3799595591 15.5 36.999967019 15.5s30.0000630319 13.3799587423 30.0000630319 29.9999651877S53.619974479 75.5000263883 36.999967019 75.5000263883 7 62.1199716332 7 45.4999651877z"/>
                <path d="M7 45.4999651877C7 28.8799587423 20.3799595591 15.5 36.999967019 15.5s30.0000630319 13.3799587423 30.0000630319 29.9999651877S53.619974479 75.5000263883 36.999967019 75.5000263883 7 62.1199716332 7 45.4999651877z"/>
            </g>
            <g>
                <path d="M17.1222421543 29.047668909c.1268150304-.2299366345.2986888138-.3989452761.4489887897-.579379415-.4470960281-.4209930091-.7000094122-.9295415342-.3182044728-1.462607522.4474635547-.6247577017 1.0954507347-.599652779 1.6959155853-.3609881676-.3834220562-.4493949011-.5427631849-1.0099156516.0211327757-1.6187639777.792864991-.8561090358 2.3638571589-.2552693479 3.6775991297.6572838026-.1882287142-.6550418635-.0926718155-1.2453911945.5883732276-1.4980709228 2.1356048053-.792231754 4.5476814454 5.1571673584 4.5476814454 5.1571673584L19.564585753 41.8877692948s-6.924090784-4.7133115532-2.4423435987-12.8401003858z" class="K"/>
                <path d="M20.4176883428 40.0010038604l5.4069401046-8.0383944627s-3.2261846648-3.2886609523-5.6883000425.3018345436c-2.3134508948 3.3738778681.2813599379 7.7365599191.2813599379 7.7365599191z" class="J"/>
                <path d="M56.8527425022 29.047668909c-.1267966541-.2299366345-.2986888139-.3989452761-.4489704135-.579379415.4470960282-.4209930091.699991036-.9295415342.3182044728-1.462607522-.4474635547-.6247577017-1.0954484376-.599652779-1.6958397829-.3609881676.3834404325-.4493949011.5427631849-1.0099156516-.0211327757-1.6187639777-.7928649909-.8561090358-2.3638571589-.2552693479-3.6775807533.6572838026.1882103378-.6550418635.0926534391-1.2453911945-.5883732277-1.4980709228-2.1356231816-.792231754-4.5476998217 5.1571673584-4.5476998217 5.1571673584l8.2189591187 12.5455791197c.0001102579-.0001198898 6.9241987449-4.713431443 2.4424331833-12.8402202756z" class="K"/>
                <path d="M53.5222549558 39.5213367865l-5.4069401047-8.0385263415s3.2261846648-3.2886609523 5.6883184188.3018345436c2.3133590132 3.3738778681-.2813783141 7.7366917979-.2813783141 7.7366917979z" class="J"/>
                <path d="M55.8672580035 50.1475048558c0 13.2233770025-8.4091173472 16.7149993859-18.7823884973 16.7149993859s-18.7822779881-3.4916223834-18.7822779881-16.7149993859 8.4090989709-23.9430104053 18.7823698697-23.9430104053 18.7822966157 10.7196334028 18.7822966157 23.9430104053z" class="K"/>
                <path d="M44.1168466813 46.9516743831c-.2514616543-2.1335227298.471389532-4.0367972403 1.6206817553-4.2674292357s2.2770473917 1.3013198768 2.5284722933 3.43485466-.4713527793 4.036797334-1.6206817553 4.2674293293-2.277010639-1.3013197831-2.5284722933-3.4348547536z" class="L"/>
                <path d="M44.7199944756 45.8080337497c0-.8759628148.3280909366-1.5811665854.7356778623-1.5811665854s.7356778624.7052037706.7356778624 1.5811665854-.3281276892 1.581154456-.7356778624 1.581154456-.7356778623-.7051917641-.7356778623-1.581154456z" fill="#fff"/>
                <path d="M26.8997354399 50.3833520571c-1.1493105996-.2306200063-1.8721434096-2.1338944525-1.6207001316-4.2674173403s1.3791616937-3.6654746663 2.5284722933-3.43485466 1.872161786 2.1338945169 1.6207001317 4.2674292357-1.3791433174 3.6654747599-2.5284722934 3.4348427646z" class="L"/>
                <path d="M27.353520451 45.8080337497c0-.8759628148.3281093129-1.5811665854.7356778623-1.5811665854s.7356962387.7052037706.7356962387 1.5811665854-.3281276892 1.581154456-.7356962387 1.581154456-.7356778623-.7051917641-.7356778623-1.581154456z" fill="#fff"/>
                <path d="M20.141841303 51.4236593966c0-1.3139438037 1.0519344445-2.3717434387 2.3586015295-2.3717434387s2.3586199058 1.057799635 2.3586199058 2.3717434387-1.0519344445 2.3717438134-2.3586199058 2.3717438134-2.3586015295-1.057799635-2.3586015295-2.3717438134z" class="J"/>
                <path d="M48.6901631023 51.4236593966c0-1.3139438037 1.0519344445-2.3717434387 2.3586015295-2.3717434387s2.3586015295 1.057799635 2.3586015295 2.3717434387-1.0519344445 2.3717438134-2.3586015295 2.3717438134-2.3586015295-1.057799635-2.3586015295-2.3717438134z" class="J"/>
                <path d="M37.2796953217 49.95540544c4.0248015716 0 4.5874479419 1.7505224859 0 5.0257437924 0 0-7.0975069047-5.0257437924 0-5.0257437924z" class="L"/>
                <path d="M33.038476002 56.3363834556c2.7811466416 1.6760360813 5.4843410491 1.7874136993 8.0928791413 0" stroke="#3d3d3d" class="B"/>
                <path d="M37.2796953217 54.9811492325v2.654013092" stroke="#3d3d3d" class="B"/>
                <path d="M48.9425068203 39.5464417093c-.2280502141.9560491674-1.0066551756.1932863247-2.0868156579-.2453784399s-2.0530399695-.3871601095-1.8249897554-1.3432096516 1.2885480269-1.3753876974 2.3688187672-.9367229328 1.7710736128 1.5692498678 1.5429866461 2.5253110243z" class="M"/>
                <path d="M25.3632540135 39.4832717772c.2507266012 1.0510378507 1.0196472386.2478481697 2.0998260972-.1909364848s2.0627242936-.3466133813 1.811979316-1.3976516066-1.3296558696-1.5474655177-2.4098163519-1.1088007531-1.7527340389 1.6463386302-1.5019890613 2.6973888445z" class="M"/>
                <path d="M31.1802434717 49.0519159579s6.6935952263-3.4244362837 11.9949634777.5482680136c0 0-5.0603811033-7.4313210675-11.9949634777-.5482680136z" opacity=".5" class="M"/>
            </g>
        </g>
        <path d="M75.6766860121 42.9999989021l-3.825012294 3.8517076687L68 42.9999989021l3.8516737181-3.8517076686 3.825012294 3.8517076686zm9.3232816217-9.32328396l6.5879777804 6.5878987356 3.8517405388-3.8517076687-6.5871091125-6.5611983404L84.9999676338 26 74.5870422919 36.4120277066l3.8516737181 3.8517779328 6.5612516238-6.5870906973zm13.1482918274 5.4715762914l-3.8249454733 3.8517076686 3.8517405388 3.8517076687L102 42.9999989021l-3.8517405388-3.8517076686zM84.9999676338 52.3232850579l-6.58704438-6.5879711955-3.825012294 3.8517076686L84.9999676338 60 95.438817285 49.5611994383l-3.8517405388-3.8250072735-6.5871091124 6.5870928931zm0-5.4715784871l3.8517405387-3.8517076687-3.8517405387-3.8517076686-3.8517405388 3.8517076686 3.8517405388 3.8517076687z" fill="#fffdfa"/>
    </g>
</svg>