<svg xmlns="http://www.w3.org/2000/svg" width="403" height="403" viewBox="0 0 403 403">
    <path d="M200.5000015895 401.4184648437C310.9557316339 401.4184648437 400.5 311.8735444717 400.5 201.4183662973S310.9557316339 1.4184648437 200.5000015895 1.4184648437.5 90.9633915735.5 201.4183662973s89.5450853471 200.0000985464 200.0000015895 200.0000985464z" fill="#2775ca"/>
    <path d="M166.4995113768 331.4515539465c0 4.6390811356-3.752034535 7.2871944616-8.1701660805 5.9631377986-60.4829920172-19.209191238-104.1935229635-75.940180303-104.1935229635-142.8276248055S98.0668936455 70.9686333721 158.3293452963 51.7594357762c4.6390788129-1.3242601136 8.1701660805 1.3240566631 8.1701660805 5.9584584343v11.7012592068c0 3.0896011808-2.4275716338 6.8414341438-5.5220540803 7.9494262438-47.6782230352 17.2184332369-81.8941249998 63.1356178974-81.8941249998 116.9977433511s34.2159019646 99.7793101142 82.1195481787 117.4392312059c2.873535179 1.1035161863 5.5216471793 4.6344017712 5.5216471793 7.9494262438v11.6965734846h-.2205403664zm48.6067712197-46.2115649982c0 3.5310890356-2.8690592676 6.1794058123-6.1791992679 6.1794058123h-12.3636882493c-3.5306803666 0-6.1836751794-2.8690607041-6.1836751794-6.1794058123v-19.8667531925c-27.3701987852-3.751832963-40.6160484998-18.9837743041-44.1467288664-39.7332957819-.2791341168-1.6931160955.1944986994-3.4236671059 1.2976074322-4.7385684908s2.7242024956-2.0827241405 4.4396973009-2.1028657523h14.128824982c2.8690592676 0 5.5175781689 2.2070324719 6.1791992679 5.0758897253 2.6529948128 12.3632867436 9.715169348 21.8528342135 31.7887372318 21.8528342135 16.1153158833 0 27.5952150631-9.0529424301 27.5952150631-22.514862545s-6.8408203669-18.5426941453-30.4642743307-22.5148641344c-35.0988772321-4.4140647451-51.654866947-15.011604315-51.654866947-42.6070334661 0-21.1908066766 15.8943686159-37.5264676546 40.8365888662-41.062032604V97.6031684035c0-3.5310890356 2.8735351791-6.1794058123 6.1836751794-6.1794058123h12.3636882493c3.5306803666 0 6.1791992679 2.8690607041 6.1791992679 6.1794058123v19.8665529208c20.0874838836 3.5310890356 32.8918459645 15.011604315 37.0845543311 33.9953786191.8829752675 3.5310890355-1.9856770991 7.0666539849-5.7373047331 7.0666539849h-13.2458497146c-2.8690592676 0-5.0760905351-1.9860849946-5.9586589015-4.6344017713-3.5359700802-12.1425436109-12.1427409819-17.2184332369-27.1541343304-17.2184332369-16.556396616 0-25.1635744187 7.9449503301-25.1635744187 19.2047216821 0 11.9217965046 4.8555501688 17.8804583895 30.2392580528 21.4115474251 34.436849232 4.6344017712 52.1012373932 14.5699130096 52.1012373932 43.7103501754 0 22.2941186176-16.5563966159 40.1792595504-42.1655276788 44.3723769175v19.8665497419zm31.4160158746 52.4735717639c-4.6346029014 1.3240566631-8.165283268-1.324056663-8.165283268-5.9586618849V320.053849429c0-3.5310890356 2.2066243665-6.6206902164 5.5167643668-7.9449503301 47.9040531151-17.659717641 82.1195449997-63.5768991225 82.1195449997-117.4390277552s-34.4368460531-99.5587696374-82.3400853661-117.2184872785c-2.8690592676-1.1035161863-5.5167643667-4.6344017712-5.5167643667-7.9447468794V57.805377979c0-4.6344017713 3.7512207329-7.5034624753 8.165283268-5.9586618849 62.1207687228 19.8508808649 104.2594377538 77.612350521 104.197588795 142.8278346139.2205403663 66.8872410519-43.4895805 123.6184335676-103.9770484287 143.0436893686z" fill="#fff"/>
    <path d="M2 201.9998818282C2 92.5849741373 90.642130813 4.4999648437 200.7497926411 4.4999648437S399.5 92.5849741373 399.5 201.9998818282 310.8574544692 399.5 200.7497926411 399.5 2 311.4147895192 2 201.9998818282z" stroke="#191326" fill="none" opacity=".2" stroke-width="2.837"/>
</svg>