<svg xmlns="http://www.w3.org/2000/svg" width="117" height="92" viewBox="0 0 117 92">
    <style>
        <![CDATA[.B{fill:none}.C{stroke:#80bece}.D{stroke-width:.27}.E{fill-rule:nonzero}.F{stroke:none}.G{stroke-linejoin:miter}.H{stroke-linecap:butt}.I{stroke-width:.0299999634}]]>
    </style>
    <defs>
        <clipPath id="A">
            <path d="M.0301297889 78.5565179962S-3.9000355936 3.2151425938 48.8682123532.0499494817c55.9419361161-3.3550753435 59.0497763845 61.0234986974 62.1577504731 78.5065685145 0 0-63.045647484 25.5752356062-110.9958330374 0z" fill="#000" transform="translate(-16.7157012084 -5.8986895593)" class="E F G H I"/>
        </clipPath>
        <clipPath id="B">
            <path d="M.0301297889 78.5565179962S-3.9000355936 3.2151425938 48.8682123532.0499494817c55.9419361161-3.3550753435 59.0497763845 61.0234986974 62.1577504731 78.5065685145 0 0-63.045647484 25.5752356062-110.9958330374 0z" fill="#000" transform="translate(-7.4834457779 -29.2215269803)" class="E F G H I"/>
        </clipPath>
        <clipPath id="C">
            <path d="M.0301297889 78.5565179962S-3.9000355936 3.2151425938 48.8682123532.0499494817c55.9419361161-3.3550753435 59.0497763845 61.0234986974 62.1577504731 78.5065685145 0 0-63.045647484 25.5752356062-110.9958330374 0z" fill="#000" transform="translate(-42.2076459245 .6792851725)" class="E F G H I"/>
        </clipPath>
        <clipPath id="D">
            <path d="M.0301297889 78.5565179962S-3.9000355936 3.2151425938 48.8682123532.0499494817c55.9419361161-3.3550753435 59.0497763845 61.0234986974 62.1577504731 78.5065685145 0 0-63.045647484 25.5752356062-110.9958330374 0z" fill="#000" transform="translate(-59.5348189263 .4803646086)" class="E F G H I"/>
        </clipPath>
    </defs>
    <path d="M-37.9773282715 27.0467152588c0-1.7722167969-6.7946777343-3.1989440918-15.2348027229-3.1989440918s-15.2347407341 1.4267272949-15.2347407341 3.1989440918 6.7947382927 3.1989135742 15.2347407341 3.1989135742 15.2348027229-1.4267272949 15.2348027229-3.1989135742z" stroke="#d8ae80" stroke-width=".4569" class="B"/>
    <g transform="translate(.5 .5)">
        <g>
            <g fill="#fff">
                <path d="M.0660864064 78.6331498594S-3.8640789939 3.2917764268 48.9041691928.1265833975c55.9419363706-3.3550752558 59.0497766531 61.0234971019 62.1577507559 78.5065664619 0 0-63.0456477708 25.5752349376-110.9958335423 0z" fill="#ccf2ff" class="C D"/>
                <path d="M1.0619862734 58.4951355985s60.7033844782 14.8865953983 110.8735218811-3.8236007658" class="B C D"/>
                <path d="M33.6377481593 11.4227866174s-7.7350750952 6.7032751991-9.8866362415 24.2971999206" class="B C D"/>
                <path d="M33.6377792015 36.9554200029S29.155204023 47.8217355541 31.596887359 63.1335972761" class="B C D"/>
                <path d="M16.7157688255 61.2762310336s-2.7750294496 11.2938969819-1.0543693414 23.8354715671" class="B C D"/>
                <path d="M55.5311684449 13.078294508c0 0 3.8287296901 7.1126266711 3.8176226137 24.6996760801" class="B C D"/>
                <path d="M78.2070123368 11.0673880865c1.1096370833 1.1399113646 7.4096243732 10.7205434758 9.9202251113 22.8953314242" class="B C D"/>
                <path d="M66.0643066648 37.3821533155c0 0 4.3293510515 6.6152093983 4.3142293691 25.8395874446" class="B C D"/>
                <path d="M54.3431955404 63.8847828036c0 0 1.8950278264 12.9942621924 1.1879218992 26.1152171964" class="B C D"/>
                <path d="M66.7952829072 89.083383607s-3.809058121-45.1132506092 14.0713276588-50.9598927694l25.6404936159 3.324638479s8.4771080941 7.2530684481 6.3308997557 39.6326225034l-20.1515905471 7.9168062567-25.8911304833.0858255303z" fill="#ccf2ff"/>
                <path d="M100.7615464518 42.7731626841c-4.4274496205 4.7333822879-9.5756464647 16.2133001683-7.8410690559 45.8248068479l19.9174052003-7.5181154005s2.513946243-20.8957736399-3.7420142017-36.4005303658c-1.6712804551-4.141796409-5.4310927432-5.0105578081-8.3343219427-1.9061610816z" class="B C D"/>
                <path d="M96.2625427743 85.3516295182l14.7994517209-5.6386057169s.910914089-32.465302335-5.0319070919-33.8314810069c-10.9515857424-2.5166733827-9.767544629 39.4700867238-9.767544629 39.4700867238z" fill="#80bece"/>
                <path d="M0 0c0 0 21.7551496181 14.0960901677 75.2548590081 2.8188781305" clip-path="url(#A)" transform="translate(16.7158650803 5.8987994098)" class="B C D"/>
                <g transform="translate(.0001266407)" class="B C D">
                    <path d="M0 3.2449157542S50.7443515095 17.4283764663 96.0307207797 0" clip-path="url(#B)" transform="translate(7.483445812 29.2215262163)"/>
                </g>
                <g transform="translate(0 .0002093996)" class="B C D">
                    <path d="M4.7725635479 0S1.7396625763 3.7992667946 0 13.262246086" clip-path="url(#C)" transform="translate(42.2076461165 -.6792851547)"/>
                </g>
                <g transform="translate(.0001169053 .0000675673)" class="B C D">
                    <path d="M0 0c0 0 3.3544709078 6.9318600275 4.6863833403 13.0625530204" clip-path="url(#D)" transform="translate(59.5348191971 -.480364596)"/>
                </g>
                <path d="M67.8824884652 59.3905877533c0 0 19.5378827545 3.0376521196 25.6976264767 1.8856123948l3.838097104.2604893685" class="B C D"/>
                <path d="M66.0644728781 78.6878171584s20.3318379903 3.3414018815 26.4529076752 1.2818981556l4.4851177622-1.6235780123" class="B C D"/>
                <path d="M74.8289331842 42.334257433c0 0 17.1462481726 1.7846457268 24.1736904236 2.6655354862l2.2172668636 4.213176058" class="B C D"/>
                <path d="M80.0612370778 60.9366786957s-1.6107937254 10.2299230578-.7708043415 19.3723897886" class="B C D"/>
                <path d="M84.5300800781 43.3648978026s2.2948825786-3.4324804596 4.4234266508-4.3020143658" class="B C D"/>
                <path d="M110.330476613 48.1536144597l-2.0805026211 2.9388484713" class="B C D"/>
                <path d="M112.8792161075 59.3904979222l-3.8892164197 1.5461728085" class="B C D"/>
                <path d="M110.3304925643 74.842888869h3.044677149" class="B C D"/>
                <path d="M92.6554526941 88.726485362l-25.8595489165.356898245s-4.4635727103-43.5511641561 14.0711938386-50.9598927694l23.9975830428 2.7869735904v6.5089124318" class="B C D"/>
            </g>
            <g>
                <path d="M53.9999997616 44.0000010445c0-13.8499671812 11.1499609135-25.0000005677 25.0000002838-25.0000005677s24.9999997162 11.1500333865 24.9999997162 25.0000005677-11.1499603459 24.9999994323-24.9999997162 24.9999994323-25.0000002838-11.1499970561-25.0000002838-24.9999994323z" fill="#f0b90b"/>
                <path d="M55.3685029315 43.8540668254c0-13.1336760097 10.5733240153-23.7069271566 23.7069269168-23.7069271566s23.7067810274 10.5732511469 23.7067810274 23.7069271566-10.5731781259 23.7068896908-23.7067810274 23.7068896908-23.7069269168-10.5732874773-23.7069269168-23.7068896908z" stroke="#191326" opacity=".1" stroke-width="3" class="B"/>
                <path d="M79.2060348574 25.8296299741l4.2108444462 4.2978923502L72.813910209 40.6952512426l-4.2108444463-4.1967483746zm6.3922699702 6.3710168741l4.2108444462 4.2978560198L72.813910209 53.4372486604l-4.2108444463-4.1967483747zm-19.1766645889 6.3709805437l4.2106991245 4.2978560197-4.2106991245 4.1968210356-4.2107717853-4.1968210356zm25.5689345591 0l4.2106991244 4.2978560197-16.9952390648 16.9387446571-4.2106991245-4.1967472393z" stroke="#f0b90b" stroke-width=".4445" fill="#fff"/>
            </g>
        </g>
        <g>
            <path d="M31.5000032227 71.5000009537c16.5683095896 0 29.9999986846-13.4317335245 29.9999986846-30.0000006577s-13.431689095-29.9999993423-29.9999986846-29.9999993423S1.5000019073 24.9317344782 1.5000019073 41.500000296s13.431733819 30.0000006577 30.0000013154 30.0000006577z" fill="#2775ca"/>
            <path d="M26.1544947197 62.504831205c0 .6958639363-.5627862585 1.0930975792-1.2255018048.8944807577-9.0724343956-2.8813856033-15.6289998281-11.3910333894-15.6289998281-21.4241400844s6.5896506979-18.5427531657 15.6289998281-21.4241387691c.6958849982-.1986168214 1.2255018048.1986168215 1.2255018048.8937862198v1.7551817128c0 .4634462655-.3641062929 1.0262114651-.8283102464 1.1924165132-7.1517210841 2.5827553099-12.2841047872 9.4703400156-12.2841047872 17.549648012s5.1323837031 14.9668940175 12.3179477305 17.61586195c.4310345016.1655315567.82822606.6951693983.82822606 1.1924165132v1.7544871748h-.0330852655zm7.2910496193-6.9317207541c0 .5296588883-.4303610103.9268925311-.9268925514.9268925311h-1.8545427807c-.5296168066 0-.9275660428-.4303399542-.9275660428-.9268925311V52.593100616c-4.1055194419-.5627651995-6.0924032844-2.847584754-6.622020091-5.9599991165-.0418406538-.2539693953.0292126898-.5135582346.1946390171-.71078598s.4086409123-.3124158204.6659988169-.3154254851h2.1193090908c.4303610102 0 .827636755.3310420668.9268925514.761382021.3979492362 1.8544797646 1.4572670359 3.2779248726 4.7683191746 3.2779248726 2.4172448528 0 4.1392781987-1.3579270233 4.1392781987-3.37722276s-1.0261483478-2.7813931779-4.5696392089-3.3772436422c-5.2648507158-.6620841336-7.7482660995-2.2517342897-7.7482660995-6.3910334443 0-3.1786268207 2.3841595873-5.6289779318 6.1254885499-6.1593103114v-2.9137960613c0-.5296588882.4310345016-.9268925311.9275660428-.9268925311h1.8545427807c.5296168066 0 .9268925514.4303399542.9268925514.9268925311v2.9799876373c3.0131163767.5296588883 4.9337455019 2.2517342897 5.5627022913 5.0993190437.1324252483.5296588882-.2978515756 1.0599912678-.8606378341 1.0599912678h-1.9868838425c-.4303610102 0-.7613820377-.2979147088-.8938072859-.6951693983-.5303744845-1.8213732889-1.8213733288-2.5827553099-4.0731076679-2.5827553099-2.4834153836 0-3.7744984144 1.1917219753-3.7744984144 2.8806910654 0 1.7882669775.7282967722 2.6820742438 4.5358804521 3.2117331321 5.165510733.6951693983 7.8151943082 2.1855006203 7.8151943082 6.5565439543 0 3.3441374953-2.4834995701 6.0269062772-6.3248420068 6.6558630528v2.9799887883zm4.7124193876 7.8710307828c-.6952115067.1986168214-1.2248283134-.1986168215-1.2248283134-.8937862198v-1.7551817128c0-.5296588882.3310210275-.9931051537.8275525686-1.1917219752 7.1855640274-2.6489679325 12.3179053085-9.5365537892 12.3179053085-17.61586195s-5.165510733-14.9337863908-12.3509905739-17.5827543233c-.4303610103-.1655315567-.8275525686-.6951693983-.8275525686-1.1917219752v-1.7551817128c0-.6951693983.5627020721-1.1255093525 1.2248283134-.8937862198 9.318090387 2.9776106863 15.6388888146 11.6418235964 15.6296283077 21.4241387691.0330852655 10.0330856484-6.5234351552 18.5427544811-15.5965430423 21.4565518578z" fill="#fff"/>
            <path d="M2.4779324795 41.500000296c0-16.0782166422 12.9438313865-29.0220687915 29.0220496966-29.0220687915S60.522071335 25.4217836538 60.522071335 41.500000296 47.5782425793 70.5220704029 31.4999821761 70.5220704029 2.4779324795 57.5782182535 2.4779324795 41.500000296z" stroke="#191326" opacity=".2" stroke-width="2.837" class="B"/>
        </g>
    </g>
</svg>