<svg xmlns="http://www.w3.org/2000/svg" width="403" height="402" viewBox="0 0 403 402">
    <path d="M200.5000087694 400.5C310.9554060335 400.5 400.5 310.9552521103 400.5 200.5S310.9554060335.5 200.5000087694.5.5 90.0448882004.5 200.5s89.5448921267 200 200.0000087694 200z" fill="#24a980"/>
    <path d="M225.3276692107 220.435583917l-24.437074527.6437455101c-12.8642471517 0-21.544428926-.3218727551-24.7631566174-.6437455101-48.5514344205-1.9309559088-85.2090105609-10.6114179239-85.2090105609-20.5792306484 0-10.2896854795 36.3354227499-18.6482747395 85.2090105609-20.9011034033v33.1171145384c3.2187276914.321872755 12.2210628563.6437455101 25.0808200653.6437455101 15.1125859715 0 22.8319200025-.6437455101 24.1194110791-.6437455101v-33.1171145384c48.873587811 2.2528286638 85.2090105609 10.6114179238 85.2090105609 20.9011034033 0 9.9678127245-36.3354227499 18.6482747396-85.2090105609 20.5792306484zm0-45.0160234824v-29.5815654185h68.1657492173V100.499958468H108.2838422396v45.3380365481h68.1657492173v29.5815654185c-55.3059920084 2.5700711656-96.7818401285 13.5035021552-96.7818401285 26.6896214978s41.4758481201 24.1149178867 96.7818401285 26.6896193055v95.177102363h49.1996699015v-95.1815923055c55.3015020656-2.5702114763 96.7818379361-13.5034999628 96.7818379361-26.6897596162-.3215921477-13.1814890894-41.7974380755-24.114920079-97.1034300838-26.6896214978z" fill="#fffdfa"/>
    <path d="M7.0195371483 200.5c0-107.1881173671 86.2924898649-193.4804631376 193.4803313104-193.4804631376S393.9804628517 93.3118826329 393.9804628517 200.5s-86.2921917046 193.4804631375-193.480594393 193.4804631375S7.0195371483 307.6882576778 7.0195371483 200.5z" stroke="#191326" fill="none" opacity=".2" stroke-width="2.837"/>
</svg>