<svg xmlns="http://www.w3.org/2000/svg" width="402" height="402" viewBox="0 0 402 402">
    <path d="M.5 200.4998501395C.5 89.7001787709 89.6999417493.5 200.5000083526.5S400.5 89.7001787709 400.5 200.4998501395 311.3000582507 400.5 200.5000083526 400.5.5 311.3001011882.5 200.4998501395z" fill="#f0b90b"/>
    <path d="M129.2978828812 202.6495294094l-30.60001957 30.8136822788-30.8133104145-30.8136822788 30.8133104145-30.8136822788 30.60001957 30.8136822788zm74.5860609472-74.5863223416l52.7036865547 52.7032256824 30.813844978-30.8136822787-52.696737229-52.4896223758-30.8207943037-30.8136822788-83.3031882663 83.29627823 30.8133104145 30.8142443927 52.4898778518-52.6967613718zm105.1860638121 43.7726400628l-30.5994850065 30.8136822788 30.813844978 30.8136822788 30.5994850065-30.8136822788-30.813844978-30.8136822788zM203.8839438284 277.2358693171l-52.6962193705-52.7038053625-30.60001957 30.8136822788 83.2962389405 83.3038843346 83.5105822069-83.5104612168-30.813844978-30.6000789721-52.6967372289 52.696778938zm0-43.7726576289l30.813844978-30.8136822788-30.813844978-30.8136822788-30.813844978 30.8136822788 30.813844978 30.8136822788z" fill="#fffdfa"/>
    <path d="M4.5237621261 206.821102328c0-105.069200552 84.586124009-189.6552668408 189.6551351153-189.6552668408S383.8340156516 101.751901776 383.8340156516 206.821102328s-84.5861240089 189.6552844069-189.6551184102 189.6552844069S4.5237621261 311.8900393891 4.5237621261 206.821102328z" fill="none" opacity=".1" stroke="#191326" stroke-width="3"/>
</svg>