<svg xmlns="http://www.w3.org/2000/svg" width="406" height="406" viewBox="0 0 406 406">
    <g fill="#6599cd">
        <path d="M2.08335 202.0831179183C2.08335 91.2830749487 91.2830803937 2.08335 202.0831301269 2.08335s200.0004202123 89.1997249487 200.0004202123 199.9997679183-89.2003704791 200.0004080036-200.0004202123 200.0004080036S2.08335 312.8831608879 2.08335 202.0831179183z"/>
        <path d="M2.08335 202.0831179183C2.08335 91.2830749487 91.2830803937 2.08335 202.0831301269 2.08335s200.0004202123 89.1997249487 200.0004202123 199.9997679183-89.2003704791 200.0004080036-200.0004202123 200.0004080036S2.08335 312.8831608879 2.08335 202.0831179183z"/>
    </g>
    <g>
        <path d="M69.5649643618 92.4011427266c.8454335361-1.5329108968 1.9912587591-2.659635174 2.9932585986-3.8625294332-2.9806401877-2.8066200605-4.6667294151-6.1969435612-2.1213631521-9.7507168134 2.9830903646-4.1650513449 7.3030048976-3.9976851935 11.3061039017-2.4065877837-2.5561470413-2.9959660074-3.6184212323-6.7327710106.1408851713-10.7917598517 5.2857666065-5.7073935721 15.7590477262-1.7017956523 24.5173275312 4.3818920176-1.2548580946-4.3669457567-.617812103-8.3026079638 3.9224881845-9.9871394858 14.2373653682-5.2815450263 30.3178763025 34.3811157232 30.3178763025 34.3811157232l-54.7942858797 83.6363948655s-46.1606052264-31.422077021-16.282290658-85.6006692385z" fill="#e4eded"/>
        <path d="M91.5346056188 165.4233757363l36.0462673643-53.5892964181S106.072975218 89.9096729693 89.6588727 113.8463096085c-15.4230059657 22.4925191207 1.8757329188 51.5770661278 1.8757329188 51.5770661278z" fill="#f5b7c7"/>
        <path d="M334.4349666816 92.4011427266c-.8453110273-1.5329108968-1.9912587591-2.659635174-2.9931360898-3.8625294332 2.9806401877-2.8066200605 4.6666069062-6.1969435612 2.1213631521-9.7507168134-2.9830903646-4.1650513449-7.3029895839-3.9976851935-11.3055985527-2.4065877837 2.5562695501-2.9959660074 3.6184212323-6.7327710106-.1408851713-10.7917598517-5.2857666065-5.7073935721-15.7590477262-1.7017956523-24.5172050224 4.3818920176 1.2547355858-4.3669457567.6176895942-8.3026079638-3.9224881844-9.9871394858-14.2374878771-5.2815450263-30.3179988114 34.3811157232-30.3179988114 34.3811157232l54.7930607912 83.6371941308c.0007350531-.0007992653 46.1613249659-31.4228762863 16.2828878887-85.6014685038z" fill="#e4eded"/>
        <path d="M312.2317163717 162.2255952436l-36.0462673644-53.5901756099s21.5078977651-21.9244063489 37.922122792 2.0122302903c15.4223934214 22.4925191207-1.8758554276 51.5779453196-1.8758554276 51.5779453196z" fill="#f5b7c7"/>
        <path d="M327.8650700234 233.0667157053c0 88.1558466836-56.0607823145 111.4333292394-125.2159233152 111.4333292394S77.433960121 321.2225623889 77.433960121 233.0667157053 133.4946199267 73.4466463366 202.6497592524 73.4466463366s125.215310771 71.4642226852 125.215310771 159.6200693687z" fill="#e4eded"/>
        <path d="M249.5289945416 211.7611792203c-1.6764110287-14.2234848651 3.1425968801-26.9119816022 10.8045450353-28.4495282377s15.1803159447 8.6754658453 16.8564819557 22.8990310662-3.1423518625 26.9119822266-10.8045450354 28.4495288621-15.1800709269-8.6754652209-16.8564819556-22.8990316906z" fill="#3d3d3d"/>
        <path d="M253.5499798371 204.1369083314c0-5.839752099 2.1872729104-10.5411105695 4.9045190823-10.5411105695s4.9045190823 4.7013584705 4.9045190823 10.5411105695-2.1875179281 10.5410297063-4.9045190823 10.5410297063-4.9045190823-4.7012784269-4.9045190823-10.5410297063z" fill="#fff"/>
        <path d="M134.748252933 234.6390303808c-7.6620706641-1.537466709-12.4809560641-14.2259630168-10.8046675442-28.4494489356s9.1944112915-24.4364977751 16.8564819556-22.8990310662 12.4810785729 14.2259634461 10.8046675442 28.4495282377-9.1942887827 24.4364983995-16.8564819556 22.8989517641z" fill="#3d3d3d"/>
        <path d="M137.77348634 204.1369083314c0-5.839752099 2.1873954193-10.5411105695 4.9045190823-10.5411105695s4.9046415912 4.7013584705 4.9046415912 10.5411105695-2.1875179281 10.5410297063-4.9046415912 10.5410297063-4.9045190823-4.7012784269-4.9045190823-10.5410297063z" fill="#fff"/>
        <path d="M89.6956253534 241.5744126444c0-8.759625358 7.0128962968-15.8116229249 15.7240101967-15.8116229249s15.7241327055 7.0519975669 15.7241327055 15.8116229249-7.0128962968 15.8116254226-15.7241327055 15.8116254226-15.7240101967-7.0519975669-15.7240101967-15.8116254226z" fill="#f5b7c7"/>
        <path d="M280.0177706822 241.5744126444c0-8.759625358 7.0128962968-15.8116229249 15.7240101967-15.8116229249s15.7240101967 7.0519975669 15.7240101967 15.8116229249-7.0128962968 15.8116254226-15.7240101967 15.8116254226-15.7240101967-7.0519975669-15.7240101967-15.8116254226z" fill="#f5b7c7"/>
        <path d="M203.947985478 231.7860529335c26.8320104775 0 30.5829862796 11.6701499061 0 33.5049586162 0 0-47.316712698-33.5049586162 0-33.5049586162z" fill="#3d3d3d"/>
        <path d="M175.6731900134 274.3259063709c18.540977611 11.1735738754 36.5622736605 11.9160913284 53.9525276089 0" stroke="#3d3d3d" fill="none" stroke-width="1.5332355135"/>
        <path d="M203.9479854781 265.2910115498v17.6934206132" stroke="#3d3d3d" fill="none" stroke-width="1.5332355135"/>
        <path d="M281.7000621355 162.392961395c-1.5203347607 6.3736611165-6.7110345039 1.2885754981-13.912104386-1.635856266s-13.6869331296-2.5810673961-12.1665983689-8.9547310103 8.5903201791-9.1692513161 15.7921251143-6.2448195521 11.807157419 10.4616657853 10.2865776406 16.8354068284z" fill="#c2d3d2"/>
        <path d="M124.5050434232 161.9718285145c1.6715106749 7.0069190046 6.797648257 1.6523211309 13.9988406479-1.2729098984s13.7514952908-2.3107558756 12.079862107-9.3176773779-8.8643724644-10.3164367847-16.0654423464-7.3920050206-11.6848935922 10.9755908681-10.0132604085 17.9825922969z" fill="#c2d3d2"/>
        <path d="M163.2849731447 225.7627897195s44.6239681754-22.8295752248 79.966423185 3.6551200908c0 0-33.7358740223-49.5421404498-79.966423185-3.6551200908z" fill="#c2d3d2" opacity=".5"/>
    </g>
</svg>