<?xml version="1.0" encoding="utf-8"?>
<!-- Generator: Adobe Illustrator 25.0.0, SVG Export Plug-In . SVG Version: 6.00 Build 0)  -->
<svg version="1.1" id="Layer_1" xmlns="http://www.w3.org/2000/svg" xmlns:xlink="http://www.w3.org/1999/xlink" x="0px" y="0px"
	 viewBox="0 0 5000 8500" style="enable-background:new 0 0 5000 5000;" xml:space="preserve">
<style type="text/css">
	.st0{fill:#E4EDED;}
	.st1{fill:#F5B7C7;}
	.st2{fill:#3D3D3D;}
	.st3{fill:#FFFFFF;}
	.st4{fill:none;stroke:#3D3D3D;stroke-width:51.1081;stroke-linecap:round;stroke-miterlimit:10;}
	.st5{fill:#C2D3D2;}
	.st6{opacity:0.5;fill:#C2D3D2;}
</style>
<g>
	<g>
		<path class="st0" d="M300.65,1157.07c14.04-19.51,33.07-33.85,49.71-49.16c-49.5-35.72-77.5-78.87-35.23-124.1
			c49.54-53.01,121.28-50.88,187.76-30.63c-42.45-38.13-60.09-85.69,2.34-137.35c87.78-72.64,261.71-21.66,407.16,55.77
			c-20.84-55.58-10.26-105.67,65.14-127.11c236.44-67.22,503.49,437.58,503.49,437.58L571.05,2246.54
			C571.05,2246.54-195.54,1846.62,300.65,1157.07z"/>
		<path class="st1" d="M665.5,2086.45l598.62-682.05c0,0-357.18-279.04-629.77,25.61C378.22,1716.28,665.5,2086.45,665.5,2086.45z"
			/>
	</g>
	<g>
		<path class="st0" d="M4699.35,1157.07c-14.04-19.51-33.07-33.85-49.71-49.16c49.5-35.72,77.5-78.87,35.23-124.1
			c-49.54-53.01-121.28-50.88-187.75-30.63c42.45-38.13,60.09-85.69-2.34-137.35c-87.78-72.64-261.71-21.66-407.16,55.77
			c20.84-55.58,10.26-105.67-65.14-127.11c-236.44-67.22-503.49,437.58-503.49,437.58l909.95,1064.48
			C4428.95,2246.54,5195.54,1846.62,4699.35,1157.07z"/>
		<path class="st1" d="M4330.62,2045.75L3732,1363.69c0,0,357.18-279.04,629.77,25.61
			C4617.89,1675.57,4330.62,2045.75,4330.62,2045.75z"/>
	</g>
	<path class="st0" d="M4590.24,2947.37c0,1121.99-931,1418.25-2079.46,1418.25S431.33,4069.36,431.33,2947.37
		s931-2031.54,2079.46-2031.54S4590.24,1825.38,4590.24,2947.37z"/>
	<g>
		
			<ellipse transform="matrix(0.9884 -0.152 0.152 0.9884 -360.5614 565.6839)" class="st2" cx="3518.99" cy="2640.72" rx="232.38" ry="330.6"/>
		<ellipse class="st3" cx="3437.54" cy="2579.17" rx="81.45" ry="134.16"/>
	</g>
	<g>
		
			<ellipse transform="matrix(0.152 -0.9884 0.9884 0.152 -1394.5599 3655.9797)" class="st2" cx="1433.38" cy="2640.72" rx="330.6" ry="232.38"/>
		<ellipse class="st3" cx="1514.84" cy="2579.17" rx="81.45" ry="134.16"/>
	</g>
	<ellipse class="st1" cx="896.09" cy="3055.65" rx="261.13" ry="201.24"/>
	<ellipse class="st1" cx="4056.77" cy="3055.65" rx="261.13" ry="201.24"/>
	<path class="st2" d="M2532.35,2931.07c445.6,0,507.89,148.53,0,426.43C2532.35,3357.5,1746.56,2931.07,2532.35,2931.07z"/>
	<path class="st4" d="M2062.79,3472.49c307.91,142.21,607.19,151.66,895.99,0"/>
	<line class="st4" x1="2532.35" y1="3357.5" x2="2532.35" y2="3582.69"/>
	<path class="st5" d="M3823.58,2047.88c-25.25,81.12-111.45,16.4-231.04-20.82s-227.3-32.85-202.05-113.97
		c25.25-81.12,142.66-116.7,262.26-79.48S3848.83,1966.76,3823.58,2047.88z"/>
	<path class="st5" d="M1213.04,2042.52c27.76,89.18,112.89,21.03,232.48-16.2c119.6-37.22,228.37-29.41,200.61-118.59
		c-27.76-89.18-147.21-131.3-266.8-94.08C1259.73,1850.87,1185.28,1953.34,1213.04,2042.52z"/>
	<path class="st6" d="M1857.06,2854.41c0,0,741.07-290.56,1328,46.52C3185.06,2900.93,2624.81,2270.39,1857.06,2854.41z"/>
</g>
</svg>
