<?xml version="1.0" encoding="utf-8"?>
<!-- Generator: Adobe Illustrator 25.0.0, SVG Export Plug-In . SVG Version: 6.00 Build 0)  -->
<svg version="1.1" id="on_ice" xmlns="http://www.w3.org/2000/svg" xmlns:xlink="http://www.w3.org/1999/xlink" x="0px" y="0px"
	 viewBox="0 0 5000 4675" style="enable-background:new 0 0 5000 5000;" xml:space="preserve">
<style type="text/css">
	.st0{fill:#D8EFED;}
	.st1{fill:#F3FBFE;}
	.st2{fill:#B4B5B5;}
	.st3{fill:#9DA0A0;}
	.st4{fill:#3D3D3D;}
	.st5{fill:#FFFFFF;}
	.st6{fill:#F5B7C7;}
	.st7{fill:#757575;}
	.st8{fill:#D1D1D1;}
</style>
<g>
	<g id="ice">
		<polygon class="st0" points="535.96,3741.88 40.26,3938.09 597.92,4268.56 1517.03,4268.56 2353.52,4454.44 2921.51,4382.15 
			4400.26,4294.47 4908.33,3936.59 2601.37,3741.88 		"/>
		<polygon class="st1" points="775.66,3517.67 40.26,3808.76 597.92,4139.23 1517.03,4139.23 2353.52,4325.12 2921.51,4252.83 
			4400.26,4165.14 4908.33,3807.26 2601.37,3612.55 		"/>
		<polygon class="st0" points="40.26,3808.76 40.26,3938.09 237.35,4054.89 237.35,3925.56 		"/>
		<polygon class="st0" points="4908.33,3807.26 4908.33,3936.59 4765.19,4037.41 4744.38,3922.75 		"/>
	</g>
	<g id="seal">
		<circle class="st0" cx="2212.1" cy="1865.6" r="789.86"/>
		<path class="st2" d="M1372.65,2823.53c0,0-386.67,780.6-226.31,870.81s982.24,200.46,1012.31,150.34
			c30.07-50.11-260.59-190.43-350.8-180.41c-90.21,10.02,262.41,67.7,280.64,0s-360.82-170.39-360.82-210.48
			s100.23-471.08,100.23-471.08L1372.65,2823.53z"/>
		<path class="st3" d="M1372.65,2823.53c0,0-291.51,662.69-148.35,813.01s662.64,190.88,662.64,190.88L1372.65,2823.53z"/>
		<path class="st2" d="M3001.96,1865.6c0-434.71-352.4-787.11-787.11-787.11c-227.81,0-436.3,55.79-580.03,210.48l-8.35,8.35
			l-8.61,6.49c-9.66,10.39-19.05,21.03-28.14,31.93c-49.39,45.88-165.36,234.31-374.61,154.94
			c-254.4-96.49-175.21,972.09,771.14,1128.27c72.35,21.93,149.09,33.76,228.6,33.76c80.68,0,158.52-12.16,231.81-34.71
			c0,0,0.01,0,0.01,0l0,0C2768.23,2519.03,3001.96,2219.62,3001.96,1865.6z"/>
		<path class="st2" d="M1699.97,2411.53c0,0-502.13,335.52-411.93,974.48S3669.46,4456.2,4040.31,2922.7
			c0,0,20.05-210.48-200.46-110.25c-220.5,100.23-1282.93,200.46-1212.77-400.92H1699.97z"/>
		<path class="st2" d="M3980.34,2792.05c0,0,170.22-661.16-295.84-761.39c-441.93-95.04-556.27,260.59-200.46,360.82
			c163.24,45.98,455.21,232.63,256.84,451.9L3980.34,2792.05z"/>
		<path class="st2" d="M3958.4,2795.09c0,0,675.46-99.32,725.81,374.73c47.75,449.5-317.98,525.58-380.01,161.16
			c-28.46-167.19-183.17-477.26-422.19-303.21L3958.4,2795.09z"/>
		<path class="st2" d="M2053.51,3174.26c0,0-358.55,760.75-198.19,850.96c160.37,90.21,982.24,200.46,1012.31,150.34
			c30.07-50.11-260.59-190.43-350.8-180.41c-90.21,10.02,262.41,67.7,280.64,0c18.23-67.7-360.82-170.39-360.82-210.48
			s100.23-471.08,100.23-471.08L2053.51,3174.26z"/>
		
			<ellipse transform="matrix(0.3337 -0.9427 0.9427 0.3337 -171.2412 3296.1965)" class="st4" cx="2246.22" cy="1769.24" rx="222.95" ry="156.71"/>
		
			<ellipse transform="matrix(0.3337 -0.9427 0.9427 0.3337 -105.9344 3353.252)" class="st5" cx="2319.23" cy="1751.57" rx="90.47" ry="54.93"/>
		
			<ellipse transform="matrix(0.3337 -0.9427 0.9427 0.3337 -233.7025 2561.905)" class="st4" cx="1695.53" cy="1446.28" rx="181.88" ry="116.66"/>
		
			<ellipse transform="matrix(0.2646 -0.9643 0.9643 0.2646 -110.6867 2744.6028)" class="st5" cx="1744.27" cy="1444.88" rx="67.35" ry="40.89"/>
		
			<ellipse transform="matrix(0.14 -0.9902 0.9902 0.14 -15.5349 4194.3926)" class="st6" cx="2406.79" cy="2106.14" rx="95.54" ry="123.98"/>
		<path class="st7" d="M2571.77,1681.6c-39.41,23.97-51.27-33.35-86.61-91.46c-35.34-58.11-80.77-95.01-41.35-118.98
			c39.41-23.97,100.01,3.71,135.35,61.82C2614.49,1591.09,2611.19,1657.63,2571.77,1681.6z"/>
		<path class="st7" d="M1943.52,1162.45c0.73,37.32-44.18,22.3-99.2,23.38c-55.02,1.08-99.31,17.85-100.04-19.47
			c-0.73-37.32,43.28-68.45,98.29-69.53C1897.59,1095.75,1942.79,1125.13,1943.52,1162.45z"/>
		<path class="st4" d="M1090.57,1654.8c0,0,335.65,15.03,221.95-105.24S1097.58,1419.26,1090.57,1654.8z"/>
		<g>
			<path class="st4" d="M1577.14,2123.86c12.07,11.95,24.02,23.16,36.21,33.41c6.07,5.14,12.24,10.01,18.45,14.63
				c6.2,4.63,12.48,8.98,18.86,13c12.74,8.04,25.8,14.86,39.25,20.12c6.72,2.65,13.54,4.9,20.46,6.79
				c6.93,1.87,13.98,3.26,21.12,4.23l2.68,0.39l2.7,0.28c1.8,0.18,3.59,0.4,5.41,0.49c1.81,0.11,3.62,0.29,5.44,0.36l5.47,0.17
				c7.32,0.1,14.7-0.19,22.14-0.8c14.87-1.41,29.96-4.1,45.06-8.14c15.12-3.94,30.3-8.94,45.52-14.65
				c15.27-5.66,30.45-12.18,46.21-18.5l0.01,0c1.17-0.47,2.51,0.1,2.98,1.27c0.33,0.82,0.15,1.73-0.4,2.35
				c-11.23,12.93-23.95,24.41-37.64,34.92c-13.73,10.43-28.63,19.61-44.58,27.24c-15.93,7.66-33.05,13.5-50.95,17.17
				c-8.97,1.74-18.12,2.93-27.38,3.48c-9.26,0.5-18.62,0.27-27.95-0.63c-18.65-1.82-37.17-6.64-54.22-14.38
				c-17.06-7.72-32.62-18.21-46.02-30.54c-13.43-12.32-24.72-26.48-33.74-41.71c-4.51-7.62-8.43-15.53-11.71-23.68
				c-1.61-4.1-3.11-8.21-4.36-12.43c-1.25-4.23-2.36-8.43-3.03-12.91c-0.19-1.27,0.68-2.46,1.95-2.65c0.75-0.11,1.47,0.15,1.98,0.64
				L1577.14,2123.86z"/>
		</g>
		<path class="st8" d="M1855.32,4025.21c160.37,90.21,982.24,200.46,1012.31,150.34c-535.75-48.7-689.6-102.37-890.03-206.72
			c-185.93-96.8,75.91-794.58,75.91-794.58S1694.95,3935.01,1855.32,4025.21z"/>
		<path class="st3" d="M2536.88,3313.59c0,0-123.97,438.77-87.51,486.44c36.46,47.67,295.44,136.95,295.44,136.95
			S2494.87,3849.61,2536.88,3313.59z"/>
		<path class="st3" d="M1602.93,2486.14c0,0,564.15,247.18,1026.55,48.59c0,0-201.45,190.92-534.96,162.29
			S1602.93,2486.14,1602.93,2486.14z"/>
		<path class="st3" d="M2656.2,4026.96c0,0-243.45-65.92-314.28-120.8c-70.83-54.88-18.69,82.98,356.09,138.12L2656.2,4026.96z"/>
		<path class="st8" d="M3684.5,2030.66c-256.13-55.08-402.21,41.22-410.51,151.45c14.48-10.29,571.88-194.32,733.87,426.07l0-0.04
			C4022.27,2404.62,3990.77,2096.52,3684.5,2030.66z"/>
		<path class="st8" d="M4010.67,2789.78c0.01,0,677.83-3.35,574.52,738.94c69.3-54.64,118.48-175.77,99.02-358.89
			C4642.43,2776.44,4170.18,2777.89,4010.67,2789.78z"/>
	</g>
</g>
</svg>
