<?xml version="1.0" encoding="utf-8"?>
<!-- Generator: Adobe Illustrator 25.0.0, SVG Export Plug-In . SVG Version: 6.00 Build 0)  -->
<svg version="1.1" id="on_ice" xmlns="http://www.w3.org/2000/svg" xmlns:xlink="http://www.w3.org/1999/xlink" x="0px" y="0px"
	 viewBox="0 0 5000 4675" style="enable-background:new 0 0 5000 5000;" xml:space="preserve">
<style type="text/css">
	.st0{fill:#F3FBFE;}
	.st1{fill:#D8EFED;}
	.st2{fill:#E4EDED;}
	.st3{fill:#F5B7C7;}
	.st4{fill:#3D3D3D;}
	.st5{fill:#FFFFFF;}
	.st6{fill:none;stroke:#3D3D3D;stroke-width:22.8699;stroke-linecap:round;stroke-miterlimit:10;}
	.st7{fill:#C2D3D2;}
	.st8{opacity:0.5;fill:#C2D3D2;}
	.st9{fill:#EFF9F9;}
</style>
<g>
	<g>
		<polygon class="st0" points="1352.87,3289.57 59.61,3399.19 435.72,3579.76 59.61,4005.33 2940.13,4604.33 2854.55,4297.87 
			4962.99,4256.08 4168.97,3974.81 4876.28,3415.44 		"/>
		<polygon class="st1" points="59.61,3399.19 59.61,3515.23 349.6,3677.2 435.72,3579.76 		"/>
		<polygon class="st1" points="59.61,4005.33 59.61,4163.21 2940.13,4738.98 2940.13,4604.33 		"/>
		<polygon class="st1" points="4962.99,4256.08 4962.99,4432.52 2908.37,4490.59 2854.55,4297.87 		"/>
		<polygon class="st1" points="4876.28,3415.44 4876.28,3606.28 4372.54,4046.92 4168.97,3974.81 		"/>
	</g>
	<g id="bear">
		<g>
			<g>
				<path class="st2" d="M1437.81,787.72c6.28-8.73,14.8-15.15,22.25-22c-22.15-15.98-34.68-35.29-15.77-55.53
					c22.17-23.72,54.27-22.77,84.02-13.71c-19-17.06-26.89-38.35,1.05-61.46c39.28-32.51,117.11-9.69,182.2,24.96
					c-9.32-24.87-4.59-47.29,29.15-56.88c105.8-30.08,225.3,195.81,225.3,195.81l-407.19,476.34
					C1558.8,1275.23,1215.77,1096.28,1437.81,787.72z"/>
				<path class="st3" d="M1601.07,1203.6l267.87-305.21c0,0-159.83-124.87-281.81,11.46
					C1472.52,1037.95,1601.07,1203.6,1601.07,1203.6z"/>
				<path class="st2" d="M3406.14,787.72c-6.28-8.73-14.8-15.15-22.25-22c22.15-15.98,34.68-35.29,15.77-55.53
					c-22.17-23.72-54.27-22.77-84.02-13.71c19-17.06,26.89-38.35-1.05-61.46c-39.28-32.51-117.11-9.69-182.2,24.96
					c9.32-24.87,4.59-47.29-29.15-56.88c-105.8-30.08-225.3,195.81-225.3,195.81l407.19,476.34
					C3285.14,1275.23,3628.17,1096.28,3406.14,787.72z"/>
				<path class="st3" d="M3241.14,1185.38l-267.87-305.21c0,0,159.83-124.87,281.81,11.46
					C3369.69,1019.74,3241.14,1185.38,3241.14,1185.38z"/>
				<path class="st2" d="M3357.31,1588.84c0,502.07-416.61,634.64-930.52,634.64s-930.52-132.57-930.52-634.64
					s416.61-909.08,930.52-909.08S3357.31,1086.77,3357.31,1588.84z"/>
				
					<ellipse transform="matrix(0.9884 -0.152 0.152 0.9884 -187.2352 454.405)" class="st4" cx="2877.95" cy="1451.62" rx="103.99" ry="147.94"/>
				<ellipse class="st5" cx="2841.5" cy="1424.08" rx="36.45" ry="60.03"/>
				
					<ellipse transform="matrix(0.152 -0.9884 0.9884 0.152 214.2853 3153.0112)" class="st4" cx="1944.68" cy="1451.62" rx="147.94" ry="103.99"/>
				<ellipse class="st5" cx="1981.13" cy="1424.08" rx="36.45" ry="60.03"/>
				<ellipse class="st3" cx="1704.25" cy="1637.29" rx="116.85" ry="90.05"/>
				<ellipse class="st3" cx="3118.6" cy="1637.29" rx="116.85" ry="90.05"/>
				<path class="st4" d="M2436.45,1581.55c199.4,0,227.27,66.47,0,190.82C2436.45,1772.37,2084.82,1581.55,2436.45,1581.55z"/>
				<path class="st6" d="M2226.33,1823.82c137.78,63.64,271.7,67.86,400.94,0"/>
				<line class="st6" x1="2436.45" y1="1772.37" x2="2436.45" y2="1873.14"/>
				<path class="st7" d="M3014.25,1186.34c-11.3,36.3-49.87,7.34-103.39-9.32c-53.52-16.66-101.71-14.7-90.41-51
					s63.84-52.22,117.36-35.57C2991.32,1107.11,3025.55,1150.04,3014.25,1186.34z"/>
				<path class="st7" d="M1846.08,1183.94c12.42,39.91,50.51,9.41,104.03-7.25c53.52-16.66,102.19-13.16,89.77-53.07
					c-12.42-39.91-65.87-58.75-119.39-42.1C1866.98,1098.18,1833.66,1144.03,1846.08,1183.94z"/>
			</g>
			<path class="st8" d="M2153.77,1527.3c0,0,317.66-124.55,569.25,19.94C2723.02,1547.24,2482.87,1276.96,2153.77,1527.3z"/>
		</g>
		<g>
			<path class="st2" d="M1871.59,2039.61c0,0-531.84,932.71-398.88,1570.88c63.59,305.2,482.9,250.97,904,253.03
				c459.4,2.25,920.94,34.21,925.05-265.89c12.44-908.16-332.11-1506.76-332.11-1506.76L1871.59,2039.61z"/>
			<path class="st8" d="M1926,2146.65c0,0,450.71,159.21,991.94,37.33c0,0-276.26,154.39-541.23,140.46
				C2111.74,2310.51,1926,2146.65,1926,2146.65z"/>
			<path class="st8" d="M1635.3,3371.52c0,0-141.54-418.69,196.19-1041.18c0,0-261.28,644.18-100.27,963.69L1635.3,3371.52z"/>
			<path class="st8" d="M3214.09,3371.52c0,0,141.54-418.69-196.19-1041.18c0,0,261.28,644.18,100.27,963.69L3214.09,3371.52z"/>
			<g>
				<path class="st4" d="M2119.08,3314.84c0,0,79.72-130.4,62.86-152.63c-12.67-16.71-134.63,102.91-134.63,102.91L2119.08,3314.84z
					"/>
				<path class="st4" d="M1908.47,3265.13c0,0,54.22-144.25,40.42-160.04c-13.8-15.79-124.46,132.43-124.46,132.43L1908.47,3265.13z
					"/>
				<path class="st4" d="M2236.63,3471.9c0,0,68.35-138.11,56.19-155.21c-12.16-17.09-109.68,90.07-109.68,90.07L2236.63,3471.9z"/>
				
					<ellipse transform="matrix(0.3641 -0.9313 0.9313 0.3641 -2216.854 4074.52)" class="st9" cx="1875.56" cy="3660.78" rx="458.63" ry="358.4"/>
				
					<ellipse transform="matrix(0.3641 -0.9313 0.9313 0.3641 -2216.854 4074.52)" class="st8" cx="1875.56" cy="3660.78" rx="359.82" ry="281.19"/>
			</g>
			<g>
				<path class="st4" d="M2849.46,3265.13c0,0-32.31-153.83-15.1-165.82s87.41,122.53,87.41,122.53L2849.46,3265.13z"/>
				<path class="st4" d="M3012.8,3245.33c0,0,16.33-153.23,35.76-161.15c19.42-7.91,44.31,134.83,44.31,134.83L3012.8,3245.33z"/>
				<path class="st4" d="M2702.81,3399.19c0,0-53.57-144.49-39.7-160.22s99.69,101.02,99.69,101.02L2702.81,3399.19z"/>
				
					<ellipse transform="matrix(0.9884 -0.152 0.152 0.9884 -519.8278 500.8518)" class="st9" cx="3015.4" cy="3649.84" rx="356.64" ry="456.37"/>
				
					<ellipse transform="matrix(0.9884 -0.152 0.152 0.9884 -519.8278 500.8518)" class="st8" cx="3015.4" cy="3649.84" rx="279.8" ry="358.05"/>
			</g>
			<g>
				<g>
					<path class="st4" d="M1183.77,3415.44c0,0,1.55,154.09,20.12,163.83s57.05-129.96,57.05-129.96L1183.77,3415.44z"/>
					<path class="st4" d="M1352.87,3515.23c0,0,40.2,148.76,60.62,153.53c20.43,4.76,22.59-140.12,22.59-140.12L1352.87,3515.23z"/>
					<path class="st4" d="M1532.27,3538.35c0,0,68.3,138.14,89.26,138.85c20.96,0.71-5.04-141.84-5.04-141.84L1532.27,3538.35z"/>
					<path class="st2" d="M1183.77,3415.44c172.45,183.49,412.99,213.41,451.81,144.55c38.82-68.86-78.03-504.27-5.88-766.46
						c37.25-135.35,273.53-707.72,273.53-707.72l-191.76-132.78C1711.48,1953.04,873.47,3085.28,1183.77,3415.44z"/>
				</g>
				<path class="st8" d="M1635.59,3559.99c0-0.01,0.01-0.01,0.01-0.02c0.34-0.61,0.66-1.25,0.98-1.9
					c6.08-12.69,7.83-35.66,6.89-66.32c-709.58-351,19.05-1466.98,19.05-1466.98s-21.23,28.54-55.37,77.71
					c-214.19,318.7-663.95,1056.89-423.41,1312.92c0.01,0.01,0.02,0.02,0.03,0.03c91.62,97.48,202.45,151.61,292.04,170.63
					c2.64,0.56,5.25,1.09,7.85,1.59c22.08,4.24,42.75,6.3,61.4,6.3c6.58,0,12.91-0.25,18.95-0.75c4.03-0.34,7.94-0.78,11.71-1.34
					C1604.95,3587.55,1626.19,3576.67,1635.59,3559.99z"/>
			</g>
			<g>
				<g>
					<path class="st4" d="M3682.58,3415.44c0,0-1.55,154.09-20.12,163.83c-18.57,9.74-57.05-129.96-57.05-129.96L3682.58,3415.44z"
						/>
					<path class="st4" d="M3513.48,3515.23c0,0-40.2,148.76-60.62,153.53c-20.43,4.76-22.59-140.12-22.59-140.12L3513.48,3515.23z"
						/>
					<path class="st4" d="M3334.08,3538.35c0,0-68.3,138.14-89.26,138.85c-20.96,0.71,5.04-141.84,5.04-141.84L3334.08,3538.35z"/>
					<path class="st2" d="M3682.58,3415.44c-172.45,183.49-412.99,213.41-451.81,144.55c-38.82-68.86,60.83-502.26-11.32-764.44
						c-37.25-135.35-256.33-709.74-256.33-709.74l191.76-132.78C3154.88,1953.04,3992.89,3085.28,3682.58,3415.44z"/>
				</g>
				<path class="st8" d="M3230.77,3559.99c0-0.01-0.01-0.01-0.01-0.02c-0.34-0.61-0.66-1.25-0.98-1.9
					c-6.08-12.69-7.83-35.66-6.89-66.32c709.58-351-19.05-1466.98-19.05-1466.98s21.23,28.54,55.37,77.71
					c214.19,318.7,663.95,1056.89,423.41,1312.92c-0.01,0.01-0.02,0.02-0.03,0.03c-91.62,97.48-202.45,151.61-292.04,170.63
					c-2.64,0.56-5.25,1.09-7.85,1.59c-22.08,4.24-42.75,6.3-61.4,6.3c-6.58,0-12.91-0.25-18.95-0.75
					c-4.03-0.34-7.94-0.78-11.71-1.34C3261.4,3587.55,3240.17,3576.67,3230.77,3559.99z"/>
			</g>
		</g>
	</g>
</g>
</svg>
