<?xml version="1.0" encoding="utf-8"?>
<!-- Generator: Adobe Illustrator 25.0.0, SVG Export Plug-In . SVG Version: 6.00 Build 0)  -->
<svg version="1.1" id="Layer_1" xmlns="http://www.w3.org/2000/svg" xmlns:xlink="http://www.w3.org/1999/xlink" x="0px" y="0px"
	 viewBox="0 0 8000 5000" style="enable-background:new 0 0 8000 5000;" xml:space="preserve">
<style type="text/css">
	.st0{fill:#C0EDED;}
	.st1{opacity:0.72;fill:#F5FBFC;}
	.st2{clip-path:url(#SVGID_2_);}
	.st3{fill:#D3F4F4;}
	.st4{opacity:0.64;fill:#FFFFFF;}
	.st5{fill:#B7E5E4;}
	.st6{fill:#8ECCE5;}
	.st7{fill:#8DD9DB;}
	.st8{fill:#FFFFFF;}
	.st9{fill:#DAE2E5;}
	.st10{fill:#433E42;}
	.st11{fill:#E38B06;}
	.st12{fill:#F5B7C7;}
	.st13{fill:#E37706;}
	.st14{fill:#FFFFFF;stroke:#80BECE;stroke-width:9;stroke-miterlimit:10;}
	.st15{fill:none;stroke:#80BECE;stroke-width:9;stroke-miterlimit:10;}
	.st16{fill:#80BECE;}
	.st17{clip-path:url(#SVGID_4_);fill:none;stroke:#80BECE;stroke-width:9;stroke-miterlimit:10;}
	.st18{fill:#83A6A8;}
	.st19{fill:#334949;}
	.st20{clip-path:url(#SVGID_6_);fill:none;stroke:#334949;stroke-width:8.1459;stroke-linecap:round;stroke-miterlimit:10;}
	.st21{fill:#3D3D3D;}
	.st22{fill:#6C8C8C;}
	.st23{fill:#6C8C8C;stroke:#6C8C8C;stroke-width:3.2583;stroke-miterlimit:10;}
	.st24{opacity:0.72;fill:#FFFFFF;}
	.st25{fill:#D8EFED;}
	.st26{fill:#B4B5B5;}
	.st27{fill:#9DA0A0;}
	.st28{fill:#757575;}
	.st29{fill:#D1D1D1;}
	.st30{fill:#E4EDED;}
	.st31{opacity:0.5;fill:#C2D3D2;}
	.st32{fill:#EFF9F9;}
	.st33{fill:none;stroke:#3D3D3D;stroke-width:7.1431;stroke-linecap:round;stroke-miterlimit:10;}
	.st34{fill:#C2D3D2;}
</style>
<g id="bg">
	<polygon class="st0" points="8000.48,0 -4.32,0 5.66,2469.5 8000.48,2464.44 	"/>
	<polygon class="st1" points="0,1335.99 1501.34,683.03 2368.53,1163.16 2744.26,868.37 3802.99,1399.97 3505.71,1766.07 
		3920.34,1907.02 4854.1,1174.66 6238,546.98 7979.81,1631.52 8000.48,2464.44 0,2428.67 	"/>
	<g>
		<defs>
			<rect id="SVGID_1_" y="0" width="8000.48" height="2464.44"/>
		</defs>
		<clipPath id="SVGID_2_">
			<use xlink:href="#SVGID_1_"  style="overflow:visible;"/>
		</clipPath>
		<g class="st2">
			<polygon class="st3" points="2471.11,1535.47 3480.31,933.32 4127.39,624.32 4500.58,340.04 5126.42,834.44 5374.19,822.08 
				6076.86,1535.47 6350.7,1371.94 6988.25,1693.47 7103.25,2459.9 2434.41,2314.41 			"/>
			<polygon class="st4" points="6076.86,1535.47 5374.19,822.08 5126.42,834.44 4500.58,340.04 4127.39,624.32 3480.31,933.32 
				4127.39,760.28 4447.77,710.84 5152.09,1180.15 5292.39,1081.65 5536.57,1470.99 5536.57,1266.75 6086.34,1845.1 
				7058.32,2160.45 6988.25,1693.47 6350.7,1371.94 			"/>
			<path class="st5" d="M2445.68,2006.63l956.58,307.78c0,0,734.84-418.19,798.03-405.24c63.19,12.95,1061.83,202.47,1061.83,202.47
				h1073.62l767.51,274.28l-4668.84-71.52L2445.68,2006.63z"/>
			<polygon class="st5" points="3155.79,1586.13 3711.64,1349.74 4171.69,1623.06 3711.64,1428.39 			"/>
			<polygon class="st3" points="-25.45,1003.89 523.67,624.32 1371.22,1180.15 2134.41,1287.39 2621.26,1646.1 3089.28,1909.18 
				3420.64,2337.46 0,2283.41 			"/>
			<polygon class="st4" points="2134.41,1287.39 1371.22,1180.15 523.67,624.32 608.93,1003.89 1188.72,1470.99 2094.99,1503.59 
				3690.15,2154.28 2621.26,1646.1 			"/>
			<path class="st5" d="M2.43,1818.36l399.03-338.43l595.94,327.92c0,0,386.71-71.96,417.34-46.82
				c30.63,25.14,680.24,344.92,680.24,344.92l584.92-155.73l618.74,385.32L0,2283.41L2.43,1818.36z"/>
			<polygon class="st5" points="1781.52,1846.19 2167.69,1681.96 2487.3,1871.84 2167.69,1736.59 			"/>
			<polygon class="st3" points="6031.36,1920.76 7560.31,725.66 8407.86,1281.49 9171.05,1388.73 9657.9,1747.44 10125.92,2010.52 
				10457.28,2438.8 7011.19,2384.35 			"/>
			<polygon class="st4" points="9171.05,1388.73 8407.86,1281.49 7560.31,725.66 7168.3,1032.08 7762.94,1335.99 8225.37,1572.33 
				9131.63,1604.93 10125.92,2010.52 9657.9,1747.44 			"/>
			<path class="st5" d="M6335.74,2111.65l1102.36-530.38l595.94,327.92c0,0,386.71-71.96,417.34-46.82s680.24,344.92,680.24,344.92
				l584.92-155.73l618.74,385.32l-3324.1-52.52L6335.74,2111.65z"/>
			<polygon class="st6" points="8818.16,1947.53 9204.33,1783.3 9523.94,1973.18 9204.33,1837.93 			"/>
			<polygon class="st5" points="2471.11,1535.47 2621.26,1646.1 3141.53,1893.45 2704.73,1613.48 2614.91,1449.68 			"/>
		</g>
	</g>
</g>
<rect id="ocean" y="2376.61" class="st7" width="7972.48" height="2529.01"/>
<g id="shore">
	<polygon class="st8" points="0,3678.34 1316.87,3712.03 856.01,3989.84 2898.67,4348.01 4726.01,4241 6238,4348.01 5644,3864.22 
		8000.48,3562.89 8000.48,5000 0,5000 	"/>
	<polygon class="st9" points="1316.87,3712.03 1284.37,4064.95 856.01,3989.84 	"/>
	<polygon class="st9" points="5644,3864.22 5686.93,4309.01 6238,4348.01 	"/>
	<polygon class="st8" points="5446.01,2371.73 6958,2644.93 6448.13,3090.61 7529.84,3649.73 8000.48,3562.89 8000.48,2376.61 	"/>
	<polygon class="st9" points="6448.13,3090.61 6448.13,3282.65 7221.25,3662.54 7490.59,3628.1 	"/>
	<polygon class="st8" points="0,2469.5 996.04,2721.79 3129.63,2407.74 5446.01,2392.77 5446.01,2371.73 0,2265.97 	"/>
	<polygon class="st9" points="0,2469.5 0,2598.98 968.86,2814.98 3417.98,2436.98 5453.1,2393.1 5446.01,2371.73 3129.63,2407.74 
		996.04,2721.79 	"/>
	<polygon class="st9" points="5446.01,2371.73 5446.01,2392.77 6886.61,2748 6958,2644.93 	"/>
</g>
<g id="baby_penguin">
	<path class="st10" d="M7278.23,2938.25l-28.88,14.27c55.73,18.53,127.99,140.01,127.99,140.01s10.67,18.6,10.97,18.28
		c2.43-1.37,5.47-5.33,8.44-11.14c16.9-26.39,2.75-124.71-77.07-203.81L7278.23,2938.25z"/>
	<path class="st11" d="M7132.31,3245.39c0,0-109.66-38.76-105.28-23.21c5.02,17.8,31.88,19.31,31.88,19.31s-38.32,1.31-37.47,12.45
		s144.43,13.03,130.99-9.96C7139,3221,7132.31,3245.39,7132.31,3245.39z"/>
	<path class="st11" d="M7303.59,3245.44c0,0,113.76-24.23,107.4-9.38c-7.28,17-34.12,15.02-34.12,15.02s37.83,6.26,35.54,17.2
		c-2.28,10.94-144.9-5.78-128.6-26.84C7300.11,3220.39,7303.59,3245.44,7303.59,3245.44z"/>
	<g>
		<path class="st10" d="M7341.29,2860.19c0.44,68.69-53.59,79.16-120.31,79.58c-66.72,0.43-120.88-9.35-121.32-78.04
			s53.3-124.72,120.02-125.14C7286.41,2736.17,7340.85,2791.5,7341.29,2860.19z"/>
		<path class="st10" d="M7116.66,2909.73c0,0-53.22,223.1-22.96,302.21c17.56,45.91,56.06,43.38,85.28,33.17
			c23.1-8.07,47.78-8.3,71.02-0.71c16.76,5.47,40,9.22,70.22,5.76c97.16-11.12-12.89-354.47-12.89-354.47L7116.66,2909.73z"/>
		<path class="st8" d="M7177.32,3217.27c-62.11-6.13-72.69-134.62-35.09-206.52c19.31-36.93,47.22-51.3,71.73-53.18
			c130.78-10.03,120.32,226.42,77.18,253.35c-16.35,10.21-46.44-31.39-82.86-7.28C7197.43,3210.82,7188.37,3218.36,7177.32,3217.27z
			"/>
		<path class="st8" d="M7268.47,2792.55c-31.89-1.62-36.27,43.23-36.27,43.23l0,0c-8.94,3.55-19.22,3.62-28.21,0.18l0,0
			c0,0-4.94-44.79-36.81-42.76c-24.9,1.58-57.62,41.79-38.39,89.93c10.37,25.97,32.47,44.79,58.76,51.11
			c20.17,4.85,39.36,5.65,57.5,2.11c22.9-4.47,43.11-18.59,55.48-39.17C7333.55,2842.21,7295.96,2793.94,7268.47,2792.55z"/>
		<path class="st11" d="M7205,2887c-0.85-2.84-0.28-5.8,1.64-8.41c3.25-4.43,8.81-10.8,13.85-10.84c5.38-0.03,11.29,7.78,14.4,12.55
			c1.49,2.28,1.97,4.8,1.39,7.27c-1.91,8.07-7.21,26.5-15.51,24.46C7212.85,2910.08,7207.29,2894.63,7205,2887z"/>
		<ellipse class="st10" cx="7177.72" cy="2847.36" rx="13.66" ry="20.39"/>
		<ellipse class="st8" cx="7172.13" cy="2849.75" rx="5.59" ry="9.57"/>
		<ellipse class="st10" cx="7258.95" cy="2847.36" rx="13.66" ry="20.39"/>
		<ellipse class="st8" cx="7253.36" cy="2849.75" rx="5.59" ry="9.57"/>
		
			<ellipse transform="matrix(0.1001 -0.995 0.995 0.1001 3572.9045 9712.9531)" class="st12" cx="7155.85" cy="2881.35" rx="10.75" ry="13.95"/>
		
			<ellipse transform="matrix(0.9942 -0.1074 0.1074 0.9942 -267.3249 799.076)" class="st12" cx="7284.85" cy="2881.35" rx="13.95" ry="10.75"/>
	</g>
	<path class="st10" d="M7154.86,2948.06l28.44,15.13c-56.26,16.85-132.15,136.1-132.15,136.1s-11.23,18.27-11.52,17.94
		c-2.39-1.44-5.3-5.5-8.11-11.39c-16.1-26.89,1.92-115.09,84.09-191.74L7154.86,2948.06z"/>
	<path class="st10" d="M7197.4,2738.48c0,0,1.97-27.56,18.28-28.12s-9.14,32.02-9.14,32.02s10.09-25.84,21.71-22.46
		c11.62,3.38,0,22.46,0,22.46h-30.85V2738.48z"/>
</g>
<g id="mom_penguin">
	<path class="st10" d="M6693.72,2569.27l53.75-20.55c-96.02-42.27-197.1-216.68-197.36-260.19c-0.05-8.31-2.79-11.17-7.03-9.72
		l0.13-0.49c0,0-0.32,0.27-0.91,0.79c-4.55,2.03-10.61,8.57-16.88,18.41c-34.47,44.12-91.85,161.51,91.25,323.3L6693.72,2569.27z"/>
	<path class="st10" d="M6655.08,2473.45c0,0-122.56-195.15,43.41-257.58c166.48-62.62,238.48,125.89,185.22,243.11
		c0,0,263.37,526.73,2.89,596.19S6501.69,2806.27,6655.08,2473.45z"/>
	<path class="st10" d="M6886.61,3055.17c0,0,141.81-40.52,176.54-147.6c0,0-39.42,14.12-68.83-119.35L6886.61,3055.17z"/>
	<path class="st8" d="M6699.94,2473.45c114.68-50.79,74.42-183.82,0-183.78c-82.51,0.04-63.3,90.46-63.3,90.46l-18.43-3.4
		c8.58,51.75,34.98,93.74,36.78,96.56C6670.34,2479.18,6685.48,2479.85,6699.94,2473.45z"/>
	<path class="st13" d="M6567,2421.13c0,0,48.08,13.76,68.62,14.41c20.54,0.65,28.14-42.76,28.14-42.76L6567,2421.13z"/>
	<path class="st11" d="M6743.98,3040.72c0,0-158.5-7.17-160.29,7.32c-1.78,14.49,41.42,14.49,41.42,14.49s-44.44,14.27-32.22,26.77
		c12.22,12.49,212.85-23.76,212.46-41.32C6804.95,3030.41,6743.98,3040.72,6743.98,3040.72z"/>
	<path class="st11" d="M6737.49,2975.81c0,0-158.5-7.17-160.29,7.32c-1.78,14.49,41.42,14.49,41.42,14.49s-44.44,14.27-32.22,26.77
		c12.22,12.49,212.85-23.76,212.46-41.32C6798.46,2965.51,6737.49,2975.81,6737.49,2975.81z"/>
	
		<ellipse transform="matrix(0.9865 -0.164 0.164 0.9865 -296.4631 1126.4244)" class="st10" cx="6671.94" cy="2358.21" rx="17.67" ry="28.4"/>
	<ellipse class="st8" cx="6663.76" cy="2356.6" rx="7.96" ry="14.83"/>
	
		<ellipse transform="matrix(0.9836 -0.1803 0.1803 0.9836 -322.4587 1251.1278)" class="st12" cx="6722.08" cy="2399.63" rx="24.2" ry="18.65"/>
	<path class="st8" d="M6836.99,2932.96c-5.01-92.07-60.36-342.3-124.04-384.6c-62.65-41.62-87.12-1.34-87.89-0.03
		c-94.17,275.49-0.5,521,197.42,516.4C6840.53,2997.93,6840.53,2997.93,6836.99,2932.96z"/>
	<path class="st10" d="M6754.83,2590.97l-23.77-52.4c-36.38,98.4-204.35,209.86-247.76,212.75c-8.29,0.55-10.98,3.47-9.27,7.61
		l-0.49-0.1c0,0,0.29,0.3,0.85,0.86c2.3,4.42,9.2,10.07,19.4,15.73c46.13,31.73,166.78,81.9,317.18-110.65L6754.83,2590.97z"/>
	<path class="st11" d="M6663.76,2392.77c-14.11-13.02-46.21-16.16-46.21-16.16s-60.15,40.04-61.23,45.47
		S6663.76,2392.77,6663.76,2392.77z"/>
</g>
<g id="Igloo">
	<path class="st14" d="M364.7,2371.44c0,0-59.75-992.11,742.5-1033.79c850.5-44.18,897.75,803.57,945,1033.79
		C2052.2,2371.44,1093.7,2708.22,364.7,2371.44z"/>
	<path class="st15" d="M379.84,2106.26c0,0,922.89,196.03,1685.64-50.35"/>
	<path class="st15" d="M875.1,1486.4c0,0-117.6,88.27-150.31,319.95"/>
	<path class="st15" d="M875.1,1822.62c0,0-68.15,143.09-31.03,344.72"/>
	<path class="st15" d="M617.83,2142.88c0,0-42.19,148.72-16.03,313.87"/>
	<path class="st15" d="M1207.95,1508.2c0,0,58.21,93.66,58.04,325.25"/>
	<path class="st15" d="M1552.7,1481.72c16.87,15.01,112.65,141.17,150.82,301.49"/>
	<path class="st15" d="M1368.09,1828.24c0,0,65.82,87.11,65.59,340.26"/>
	<path class="st15" d="M1189.89,2177.23c0,0,28.81,171.11,18.06,343.89"/>
	<path class="st8" d="M1379.2,2509.05c0,0-57.91-594.06,213.93-671.05l389.82,43.78c0,0,128.88,95.51,96.25,521.89l-306.37,104.25
		L1379.2,2509.05z"/>
	<path class="st15" d="M1895.6,1899.23c-67.31,62.33-145.58,213.5-119.21,603.43l302.81-99c0,0,38.22-275.16-56.89-479.33
		C1996.9,1869.79,1939.74,1858.35,1895.6,1899.23z"/>
	<path class="st16" d="M1827.2,2459.91l225-74.25c0,0,13.85-427.51-76.5-445.5C1809.2,1907.02,1827.2,2459.91,1827.2,2459.91z"/>
	<g>
		<defs>
			<path id="SVGID_3_" d="M364.7,2371.44c0,0-59.75-992.11,742.5-1033.79c850.5-44.18,897.75,803.57,945,1033.79
				C2052.2,2371.44,1093.7,2708.22,364.7,2371.44z"/>
		</defs>
		<clipPath id="SVGID_4_">
			<use xlink:href="#SVGID_3_"  style="overflow:visible;"/>
		</clipPath>
		<path class="st17" d="M617.83,1413.66c0,0,330.75,185.62,1144.12,37.12"/>
		<path class="st17" d="M477.47,1763.51c0,0,771.48,186.77,1459.98-42.73"/>
		<path class="st17" d="M1077.95,1327.04c0,0-46.11,50.03-72.56,174.64"/>
		<path class="st17" d="M1268.82,1329.66c0,0,51,91.28,71.25,172.01"/>
	</g>
	<path class="st15" d="M1395.73,2118.05c0,0,297.04,40,390.69,24.83l58.35,3.43"/>
	<path class="st15" d="M1368.09,2372.16c0,0,309.11,44,402.17,16.88l68.19-21.38"/>
	<path class="st15" d="M1501.34,1893.45c0,0,260.68,23.5,367.52,35.1l33.71,55.48"/>
	<path class="st15" d="M1580.89,2138.41c0,0-24.49,134.71-11.72,255.1"/>
	<path class="st15" d="M1648.83,1907.02c0,0,34.89-45.2,67.25-56.65"/>
	<line class="st15" x1="2041.08" y1="1970.08" x2="2009.45" y2="2008.78"/>
	<line class="st15" x1="2079.83" y1="2118.05" x2="2020.7" y2="2138.41"/>
	<line class="st15" x1="2041.08" y1="2321.53" x2="2087.37" y2="2321.53"/>
	<path class="st15" d="M1772.36,2504.35l-393.15,4.7c0,0-67.86-573.49,213.93-671.05l364.84,36.7v85.71"/>
</g>
<g id="whale">
	<g>
		<g>
			<path class="st18" d="M4609.19,2642.91c-191.28-168.56-188.93-468.84,7.88-630.91c46.14-38,104.04-68.9,176.62-85.37
				c322.58-73.24,546.18,111.18,689.14,334.22s339.08,111.05,428.54-151.26c0,0,40.67-84.94,40.67,86.03
				s63.99,859.01-1176.67,552.19C4775.36,2747.81,4693.58,2717.27,4609.19,2642.91z"/>
			<path class="st8" d="M5918.57,2495.42c-180.22,210.96-443.07,245.06-888.9-113.26c-204.21-164.12-437.98-87.95-546.65,60.16
				c20.88,74.75,62.95,144.87,126.18,200.59c84.38,74.36,166.17,104.89,166.17,104.89
				C5587.63,2948.68,5840.67,2723.12,5918.57,2495.42z"/>
			<path class="st18" d="M5934.83,2087.98c0,0-14.16-192.49-126.32-147.1s60.56,267.43,60.56,267.43L5934.83,2087.98z"/>
			<path class="st18" d="M5934.83,2087.98c0,0,118.05-116.94,192.71-72.21c74.67,44.73-91.43,215.82-174.95,204.18
				C5869.07,2208.31,5934.83,2087.98,5934.83,2087.98z"/>
			<g>
				<path class="st19" d="M4489.08,2439.45c2.59,1.46,5.36,2.99,8.08,4.44c2.74,1.45,5.51,2.86,8.25,4.3
					c5.51,2.84,11.13,5.49,16.73,8.14c11.23,5.24,22.58,10.15,34.06,14.69c22.95,9.08,46.36,16.75,70.11,22.77
					c23.74,6.02,47.83,10.4,72.09,12.76c12.12,1.22,24.29,1.9,36.46,2.03c12.17,0.08,24.34-0.34,36.46-1.36
					c6.07-0.46,12.1-1.22,18.15-1.9l9.03-1.31l2.26-0.33l2.25-0.4l4.49-0.8c11.97-2.2,23.89-4.77,35.62-8.13l4.41-1.22l4.37-1.35
					c2.91-0.92,5.85-1.73,8.74-2.72l8.67-2.96c1.45-0.47,2.88-1.02,4.31-1.57l4.29-1.62l4.29-1.62c1.43-0.53,2.83-1.16,4.25-1.73
					l8.49-3.5l8.38-3.77l4.19-1.89l4.13-2.03l8.28-4.04l8.15-4.3l4.08-2.15l4.01-2.29l8.04-4.55c10.55-6.36,21.08-12.84,31.23-19.93
					c2.54-1.77,5.11-3.5,7.63-5.3l7.48-5.53c5.06-3.6,9.9-7.49,14.83-11.28c2.48-1.87,4.86-3.88,7.27-5.85l7.24-5.91
					c4.78-4,9.45-8.14,14.24-12.16l0.11-0.09c1.72-1.45,4.29-1.22,5.74,0.5c1.34,1.59,1.25,3.91-0.14,5.4
					c-4.31,4.64-8.63,9.28-13.04,13.84l-6.75,6.71c-2.26,2.23-4.5,4.48-6.86,6.61c-4.68,4.29-9.25,8.74-14.12,12.84l-7.25,6.22
					c-2.45,2.04-4.95,4.01-7.43,6.02l-3.73,3l-1.87,1.5l-1.91,1.44l-7.65,5.77c-2.52,1.97-5.17,3.76-7.79,5.59l-7.89,5.48
					l-8.06,5.24l-4.04,2.6l-4.13,2.47l-8.26,4.95l-8.42,4.68l-4.23,2.32l-4.3,2.19l-8.62,4.36c-5.85,2.68-11.63,5.56-17.61,7.97
					c-11.85,5.1-24,9.55-36.34,13.38c-12.33,3.91-24.9,7.09-37.59,9.64l-4.76,0.95l-2.38,0.47l-2.4,0.4l-9.59,1.6l-9.63,1.3
					c-1.6,0.23-3.21,0.41-4.83,0.56l-4.83,0.49c-12.9,1.23-25.85,1.91-38.81,1.89c-12.95-0.08-25.89-0.74-38.77-1.99
					c-25.75-2.57-51.2-7.62-75.88-15c-24.68-7.4-48.61-17-71.44-28.63c-5.71-2.9-11.33-5.98-16.9-9.12
					c-5.54-3.2-11.03-6.48-16.41-9.93c-5.4-3.41-10.66-7.07-15.86-10.78c-2.6-1.86-5.16-3.77-7.68-5.76c-2.54-1.99-5-3.94-7.51-6.15
					c-1.7-1.49-1.86-4.07-0.37-5.77c1.3-1.48,3.43-1.79,5.08-0.86L4489.08,2439.45z"/>
			</g>
			<g>
				<defs>
					<path id="SVGID_5_" d="M5918.57,2495.42c-180.22,210.96-651.16,125.6-874.76-113.26c-179.04-191.26-452.12-87.95-560.79,60.16
						c20.88,74.75,62.95,144.87,126.18,200.59c84.38,74.36,166.17,104.89,166.17,104.89
						C5587.63,2948.68,5840.67,2723.12,5918.57,2495.42z"/>
				</defs>
				<clipPath id="SVGID_6_">
					<use xlink:href="#SVGID_5_"  style="overflow:visible;"/>
				</clipPath>
				<path class="st20" d="M4562.53,2482.61c0,0,162.1,409.21,1071.51,314.68"/>
				<path class="st20" d="M4763.41,2516.99c0,0,218.84,317.68,940.27,250.98"/>
				<path class="st20" d="M4958.68,2449.58c0,0,273.62,306.4,819.24,277.15"/>
			</g>
			<path class="st18" d="M5193.99,2358.01c0,0,78.66,291.43,348.41,332.07c156.24,23.54-117.47-234.92-117.47-234.92
				L5193.99,2358.01z"/>
			<path class="st7" d="M5053.03,1499.66c-11.74,26.26-32.82,56.36-32.82,56.36s-5.73-43.99,0-69.42
				c5.38-23.89,23.12-39.98,36.11-35.8C5069.32,1454.98,5063.03,1477.31,5053.03,1499.66z"/>
			<path class="st7" d="M4917.63,1441.24c14.91,24.6,16.44,71.61,16.44,71.61s-27.16-27.4-44.81-46.58
				c-16.58-18.02-31.99-34.69-21.16-42.99C4878.94,1414.97,4904.95,1420.3,4917.63,1441.24z"/>
			<path class="st7" d="M5152.46,1507.11c-71.53,6.37-113.32,105.46-137.35,205c-10.48-55.91-36.74-104.03-92.66-120.1
				c-163.58-46.99-176.41,122.08-142.97,148.51c33.44,26.43-11.45-92.41,107.13-84.37c118.58,8.04,96.37,271.01,96.37,271.01l0,0
				c9.45,12.88,26.33,17.87,41.26,12.2l0.7-0.26c24.41-210.86,77.9-307.72,115.49-344.58c17.86-17.51,45.56-20.83,66.45-7.09
				c12.01,7.9,21.15,20.94,15.69,42.36c-12.48,48.96,35.93,74.86,48.77,15.61C5278.5,1594.08,5258.6,1497.66,5152.46,1507.11z"/>
			<ellipse class="st21" cx="5009.7" cy="2192.93" rx="53.32" ry="75.86"/>
			<ellipse class="st8" cx="5029.67" cy="2186.96" rx="18.69" ry="30.78"/>
			<ellipse class="st12" cx="5101.33" cy="2284.59" rx="49.19" ry="37.9"/>
			<path class="st22" d="M5554.45,2705.09c75.29,3.61,39.17-56.73-5.59-115.17c-7.25,16.93-19.14,28.81-36.71,34.17
				c-162.2,49.49-318.17-266.08-318.17-266.08S5272.65,2691.59,5554.45,2705.09z"/>
			<line class="st23" x1="5549.78" y1="2594.14" x2="5401.4" y2="2384.22"/>
		</g>
		<path class="st18" d="M4481.59,2437.11c0,0,337.76,215.88,594.35-92.28l-347.32-149.22l-209.86,162.34L4481.59,2437.11z"/>
		<g>
			<path class="st19" d="M5018.58,2375.19c4.73,0.6,9.2,2.31,13.38,4.52c4.19,2.21,8.08,5.03,11.5,8.34
				c3.42,3.29,6.53,6.95,8.91,11.06c1.32,1.97,2.27,4.15,3.25,6.28c0.51,1.06,0.87,2.18,1.23,3.3c0.37,1.12,0.72,2.23,1.03,3.35
				c0.06,0.22-0.07,0.44-0.29,0.5c-0.17,0.05-0.34-0.02-0.44-0.16l-0.02-0.03c-0.68-0.95-1.32-1.9-1.95-2.86
				c-0.65-0.94-1.17-1.94-1.9-2.83c-0.68-0.91-1.32-1.84-1.97-2.75l-0.49-0.68l-0.53-0.65l-1.05-1.31
				c-2.76-3.51-5.82-6.73-9.05-9.75c-3.22-3.04-6.71-5.78-10.35-8.36c-3.64-2.58-7.47-4.98-11.48-7.2l-0.03-0.02
				c-0.2-0.11-0.27-0.36-0.16-0.56C5018.26,2375.25,5018.42,2375.17,5018.58,2375.19z"/>
		</g>
	</g>
	<path class="st7" d="M4430.81,2530.11c14.64,38.08,989.7,367.48,1557.88,45.16l-14.44,250.34l-565,230.41l-890.47-226.3
		L4430.81,2530.11z"/>
</g>
<g id="wave_1_">
	<path class="st24" d="M2924.6,4060.3c0,0,409.34,95.24,690.51,75.34c281.17-19.91,570.08-79.24,712.99-36.3
		c0,0-531.18,54.46-625.12,69.48C3569.69,4190.12,3093.61,4180.68,2924.6,4060.3z"/>
	<g id="wave">
		<path class="st24" d="M641.69,3062.48c0,0,538.86,125.38,908.99,99.18s750.46-104.31,938.58-47.79c0,0-699.25,71.7-822.92,91.46
			C1490.89,3233.36,864.17,3220.94,641.69,3062.48z"/>
		<path class="st24" d="M4551.8,2960.38c0,0,538.86,125.38,908.99,99.17s750.46-104.31,938.58-47.79c0,0-699.25,71.7-822.92,91.46
			C5401.01,3131.27,4774.29,3118.85,4551.8,2960.38z"/>
		<path class="st24" d="M4626,3139.8c0,0,409.34,95.24,690.51,75.34s570.08-79.24,712.99-36.3c0,0-531.18,54.46-625.12,69.48
			C5271.09,3269.62,4795.01,3260.18,4626,3139.8z"/>
		<path class="st24" d="M290.85,2831.73c0,0,891,129.19,1503,102.19s1240.86-107.48,1551.93-49.24c0,0-1156.2,73.88-1360.68,94.24
			C1694.99,3007.8,658.73,2995,290.85,2831.73z"/>
	</g>
</g>
<g id="_daddy_penguin">
	<path class="st10" d="M2431.06,2114.58l20.48,37.5c21.53-74.86,178.59-177.24,178.59-177.24s24.08-15.16,23.63-15.54
		c-1.95-3.15-7.37-6.95-15.23-10.59c-35.9-20.96-165.43,3.14-265.9,113.22L2431.06,2114.58z"/>
	<path class="st11" d="M2193.74,2463.55c0,0-145.46-51.41-139.64-30.78c6.66,23.61,42.29,25.62,42.29,25.62s-50.83,1.74-49.7,16.52
		c1.12,14.78,191.57,17.29,173.75-13.21S2193.74,2463.55,2193.74,2463.55z"/>
	<path class="st11" d="M2429.68,2442.96c0,0,144.91,52.93,127.29,65.14c-20.16,13.97-48.92-7.16-48.92-7.16s38.09,33.69,27.82,44.38
		c-10.27,10.68-158.75-108.6-125.6-120.78C2443.43,2412.37,2429.68,2442.96,2429.68,2442.96z"/>
	<g>
		<path class="st10" d="M2470.93,1952.63c0.58,91.11-71.08,104.99-159.58,105.56c-88.5,0.56-160.33-12.41-160.91-103.51
			c-0.58-91.11,70.69-165.42,159.19-165.98C2398.13,1788.13,2470.35,1861.53,2470.93,1952.63z"/>
		<path class="st10" d="M2172.98,2018.34c0,0-70.59,295.91-30.45,400.84c23.29,60.89,74.35,57.54,113.11,43.99
			c30.64-10.7,63.37-11.01,94.21-0.94c22.23,7.25,53.06,12.22,93.14,7.64c128.88-14.75-17.1-470.16-17.1-470.16L2172.98,2018.34z"/>
		<path class="st8" d="M2253.44,2426.25c-82.38-8.13-96.41-178.55-46.54-273.92c25.61-48.98,62.63-68.04,95.14-70.54
			c173.46-13.31,159.58,300.32,102.37,336.03c-21.69,13.54-61.6-41.63-109.91-9.66C2280.11,2417.69,2268.09,2427.69,2253.44,2426.25
			z"/>
		<path class="st8" d="M2374.34,1862.91c-42.3-2.14-48.1,57.34-48.1,57.34l0,0c-11.86,4.71-25.5,4.8-37.42,0.24l0,0
			c0,0-6.56-59.4-48.83-56.72c-33.02,2.1-76.42,55.43-50.91,119.28c13.76,34.44,43.07,59.41,77.94,67.79
			c26.75,6.43,52.21,7.49,76.27,2.8c30.38-5.93,57.18-24.65,73.58-51.96C2460.66,1928.78,2410.79,1864.76,2374.34,1862.91z"/>
		<path class="st11" d="M2290.23,1987.63c-1.14-5.69-0.39-11.59,2.14-16.8c4.29-8.84,11.63-21.55,18.32-21.6
			c7.13-0.05,15.01,15.61,19.15,25.15c1.98,4.57,2.63,9.61,1.87,14.53c-2.5,16.13-9.45,52.93-20.46,48.82
			C2300.74,2033.8,2293.3,2002.9,2290.23,1987.63z"/>
		<g>
			<path class="st10" d="M2354.02,1957.86c-0.25-1.94-0.29-3.86-0.24-5.79c0.03-1.94,0.21-3.87,0.47-5.8
				c0.53-3.86,1.54-7.72,3.16-11.49c0.83-1.88,1.85-3.72,3.12-5.47c1.25-1.76,2.79-3.42,4.64-4.83c1.85-1.4,4.03-2.5,6.34-3.16
				c2.34-0.66,4.69-0.81,7.05-0.59c1.18,0.08,2.38,0.38,3.57,0.68l1.75,0.65c0.58,0.22,1.12,0.55,1.66,0.84
				c2.15,1.25,3.98,2.93,5.35,4.79c1.4,1.85,2.41,3.84,3.15,5.83c0.76,1.99,1.28,4,1.64,5.99c0.7,3.99,0.82,7.93,0.57,11.81
				c-0.14,1.94-0.34,3.86-0.69,5.75c-0.33,1.9-0.72,3.77-1.31,5.63c-0.08,0.26-0.35,0.4-0.61,0.32c-0.18-0.06-0.31-0.22-0.33-0.4
				l0-0.01c-0.51-3.75-1.02-7.44-1.71-11.03c-0.67-3.59-1.49-7.1-2.61-10.37c-1.13-3.24-2.56-6.3-4.46-8.43
				c-0.96-1.06-1.96-1.91-3.08-2.48c-0.29-0.12-0.55-0.29-0.85-0.4c-0.3-0.1-0.6-0.2-0.89-0.31c-0.63-0.12-1.25-0.3-1.94-0.32
				c-1.35-0.12-2.8-0.09-4.07,0.27c-1.3,0.31-2.54,0.85-3.74,1.62c-2.41,1.52-4.51,4.05-6.36,6.87c-1.82,2.88-3.39,6.09-4.77,9.45
				c-1.41,3.36-2.64,6.87-3.84,10.45l-0.01,0.02c-0.08,0.25-0.36,0.39-0.61,0.31C2354.16,1958.2,2354.04,1958.04,2354.02,1957.86z"
				/>
		</g>
		<g>
			<path class="st10" d="M2271.76,1964.44c-1.3-3.61-2.66-7.14-4.19-10.5c-1.52-3.36-3.22-6.56-5.21-9.36
				c-1.99-2.79-4.28-5.14-6.8-6.58c-1.26-0.71-2.57-1.19-3.95-1.46c-0.35-0.05-0.68-0.16-1.04-0.18l-1.06-0.09
				c-0.36-0.02-0.73,0.02-1.09,0.01l-0.55,0.01l-0.53,0.06c-1.43,0.09-2.7,0.49-3.88,1.06c-1.19,0.56-2.24,1.39-3.25,2.41
				c-1.95,2.13-3.52,5.1-4.65,8.38c-1.17,3.28-1.98,6.84-2.65,10.49c-0.68,3.65-1.16,7.41-1.61,11.22l0,0.02
				c-0.03,0.27-0.28,0.47-0.55,0.44c-0.2-0.02-0.35-0.16-0.41-0.33c-0.64-1.88-1.07-3.78-1.44-5.71c-0.38-1.93-0.61-3.88-0.77-5.86
				c-0.29-3.95-0.19-7.98,0.56-12.06c0.38-2.04,0.92-4.1,1.76-6.12c0.81-2.03,1.9-4.04,3.38-5.9c1.48-1.86,3.41-3.49,5.59-4.69
				c2.19-1.2,4.64-1.9,6.99-2.12l0.89-0.1l0.88-0.01c0.59,0,1.17-0.02,1.76,0.02l1.78,0.18c0.59,0.06,1.18,0.22,1.77,0.33
				c2.34,0.57,4.59,1.54,6.56,2.84c1.94,1.34,3.62,2.92,5.01,4.65c1.4,1.72,2.55,3.55,3.47,5.43c1.86,3.77,3.01,7.68,3.68,11.6
				c0.32,1.96,0.56,3.93,0.64,5.9c0.09,1.97,0.09,3.93-0.12,5.9c-0.03,0.27-0.28,0.47-0.55,0.44c-0.2-0.02-0.35-0.15-0.41-0.33
				L2271.76,1964.44z"/>
		</g>
	</g>
	<path class="st10" d="M2223.65,2069.18l37.72,20.07c-74.62,22.35-175.28,180.52-175.28,180.52s-14.89,24.24-15.28,23.8
		c-3.17-1.91-7.03-7.29-10.75-15.11c-21.36-35.67,2.55-152.65,111.53-254.32L2223.65,2069.18z"/>
</g>
<g id="Snow">
	<circle class="st8" cx="1327.14" cy="266.86" r="17.37"/>
	<circle class="st8" cx="6713.53" cy="179.69" r="17.37"/>
	<circle class="st8" cx="6146.36" cy="233.75" r="17.37"/>
	<circle class="st8" cx="3537.26" cy="1163.16" r="17.37"/>
	<circle class="st8" cx="6594.61" cy="1704.09" r="17.37"/>
	<circle class="st8" cx="3028.91" cy="1402.17" r="17.37"/>
	<circle class="st8" cx="7490.59" cy="2134.44" r="17.37"/>
	<circle class="st8" cx="3920.34" cy="417.6" r="17.37"/>
	<circle class="st8" cx="2826.38" cy="2706.02" r="17.37"/>
	<circle class="st8" cx="5210.08" cy="3454.79" r="17.37"/>
	<circle class="st8" cx="156.9" cy="2742.27" r="17.37"/>
	<circle class="st8" cx="724.79" cy="3424.6" r="17.37"/>
	<circle class="st8" cx="3028.91" cy="3348.08" r="17.37"/>
	<circle class="st8" cx="1501.34" cy="3687.16" r="17.37"/>
	<circle class="st8" cx="5918.57" cy="2847.03" r="17.37"/>
	<circle class="st8" cx="2149.47" cy="2742.27" r="17.37"/>
	<circle class="st8" cx="6448.13" cy="3562.89" r="17.37"/>
	<circle class="st8" cx="3363.39" cy="3932.74" r="17.37"/>
	<circle class="st8" cx="4014.02" cy="2526.75" r="17.37"/>
	<circle class="st8" cx="2691.94" cy="4177.79" r="17.37"/>
	<circle class="st8" cx="1573.18" cy="862.37" r="17.37"/>
	<circle class="st8" cx="5364.98" cy="636.72" r="17.37"/>
	<circle class="st8" cx="3380.76" cy="794.53" r="17.37"/>
	<circle class="st8" cx="7001.63" cy="794.53" r="17.37"/>
	<circle class="st8" cx="7317.6" cy="370.85" r="17.37"/>
	<circle class="st8" cx="5988.69" cy="1163.16" r="17.37"/>
	<circle class="st8" cx="5549.78" cy="1766.07" r="17.37"/>
	<circle class="st8" cx="2608.19" cy="370.85" r="17.37"/>
	<circle class="st8" cx="3626.34" cy="304.62" r="17.37"/>
	<circle class="st8" cx="3011.54" cy="546.98" r="17.37"/>
	<circle class="st8" cx="4499.78" cy="1035" r="17.37"/>
	<circle class="st8" cx="6974.88" cy="480.76" r="17.37"/>
	<circle class="st8" cx="6448.13" cy="827.64" r="17.37"/>
	<circle class="st8" cx="2207.5" cy="845.01" r="17.37"/>
	<circle class="st8" cx="5910.23" cy="417.6" r="17.37"/>
	<circle class="st8" cx="2094.7" cy="1366.01" r="17.37"/>
	<circle class="st8" cx="470.92" cy="1072.29" r="17.37"/>
	<circle class="st8" cx="875.1" cy="434.97" r="17.37"/>
	<circle class="st8" cx="1672.15" cy="513.87" r="33.11"/>
	<circle class="st8" cx="1443.35" cy="3391.48" r="33.11"/>
	<circle class="st8" cx="2116.35" cy="146.58" r="33.11"/>
	<circle class="st8" cx="5087.01" cy="266.86" r="33.11"/>
	<circle class="st8" cx="7074.22" cy="1631.52" r="33.11"/>
	<circle class="st8" cx="6069.16" cy="827.64" r="33.11"/>
	<circle class="st8" cx="6713.53" cy="1122.77" r="33.11"/>
	<circle class="st8" cx="223.13" cy="3139.8" r="33.11"/>
	<circle class="st8" cx="3920.34" cy="1265.33" r="33.11"/>
	<circle class="st8" cx="190.02" cy="337.73" r="33.11"/>
	<circle class="st8" cx="3472.6" cy="1766.07" r="33.11"/>
	<circle class="st8" cx="4483.02" cy="1556.02" r="33.11"/>
	<circle class="st8" cx="7679.68" cy="321.99" r="33.11"/>
	<circle class="st8" cx="3316.18" cy="2559.86" r="33.11"/>
	<circle class="st8" cx="5347.61" cy="4064.95" r="33.11"/>
	<circle class="st8" cx="3626.34" cy="3184.08" r="33.11"/>
	<circle class="st8" cx="5706.19" cy="3461.28" r="33.11"/>
</g>
<g id="Seal">
	<g>
		<polygon class="st25" points="2799.83,3791.38 2915.78,3837.28 2785.34,3914.58 2570.34,3914.58 2374.67,3958.06 2241.81,3941.15 
			1895.9,3920.64 1777.05,3836.93 2316.69,3791.38 		"/>
		<polygon class="st8" points="2743.76,3738.93 2915.78,3807.03 2785.34,3884.33 2570.34,3884.33 2374.67,3927.81 2241.81,3910.9 
			1895.9,3890.39 1777.05,3806.67 2316.69,3761.13 		"/>
		<polygon class="st25" points="2915.78,3807.03 2915.78,3837.28 2869.68,3864.6 2869.68,3834.35 		"/>
		<polygon class="st25" points="1777.05,3806.67 1777.05,3836.93 1810.54,3860.51 1815.41,3833.69 		"/>
	</g>
	<circle class="st25" cx="2407.75" cy="3352.49" r="184.76"/>
	<path class="st26" d="M2604.11,3576.56c0,0,90.45,182.6,52.94,203.7c-37.51,21.1-229.76,46.89-236.8,35.17
		c-7.03-11.72,60.96-44.55,82.06-42.2s-61.38,15.84-65.65,0s84.4-39.86,84.4-49.24c0-9.38-23.45-110.19-23.45-110.19
		L2604.11,3576.56z"/>
	<path class="st27" d="M2604.11,3576.56c0,0,68.19,155.01,34.7,190.18c-33.49,35.16-155,44.65-155,44.65L2604.11,3576.56z"/>
	<path class="st26" d="M2222.99,3352.49c0-101.69,82.43-184.12,184.12-184.12c53.29,0,102.06,13.05,135.68,49.23l1.95,1.95
		l2.01,1.52c2.26,2.43,4.46,4.92,6.58,7.47c11.55,10.73,38.68,54.81,87.63,36.24c59.51-22.57,40.98,227.39-180.38,263.92
		c-16.92,5.13-34.87,7.9-53.47,7.9c-18.87,0-37.08-2.85-54.22-8.12c0,0,0,0,0,0l0,0C2277.66,3505.33,2222.99,3435.3,2222.99,3352.49
		z"/>
	<path class="st26" d="M2527.55,3480.19c0,0,117.46,78.48,96.36,227.95c-21.1,149.46-557.06,250.34-643.8-108.38
		c0,0-4.69-49.24,46.89-25.79s300.1,46.89,283.69-93.78H2527.55z"/>
	<path class="st26" d="M1994.13,3569.2c0,0-39.82-154.66,69.2-178.1c103.37-22.23,130.12,60.96,46.89,84.4
		c-38.19,10.76-106.48,54.42-60.08,105.71L1994.13,3569.2z"/>
	<path class="st26" d="M1999.26,3569.91c0,0-158-23.23-169.78,87.66c-11.17,105.15,74.38,122.94,88.89,37.7
		c6.66-39.11,42.85-111.64,98.76-70.93L1999.26,3569.91z"/>
	<path class="st26" d="M2444.85,3658.6c0,0,83.87,177.95,46.36,199.05s-229.76,46.89-236.8,35.17
		c-7.03-11.72,60.96-44.55,82.06-42.2c21.1,2.34-61.38,15.84-65.65,0c-4.27-15.84,84.4-39.86,84.4-49.23
		c0-9.38-23.45-110.19-23.45-110.19L2444.85,3658.6z"/>
	
		<ellipse transform="matrix(0.9427 -0.3337 0.3337 0.9427 -973.7541 991.8331)" class="st21" cx="2399.77" cy="3329.95" rx="36.66" ry="52.15"/>
	
		<ellipse transform="matrix(0.9427 -0.3337 0.3337 0.9427 -972.6088 998.4998)" class="st8" cx="2419.75" cy="3329.95" rx="12.85" ry="21.16"/>
	
		<ellipse transform="matrix(0.9427 -0.3337 0.3337 0.9427 -941.1554 1030.4933)" class="st21" cx="2528.59" cy="3254.4" rx="27.29" ry="42.54"/>
	
		<ellipse transform="matrix(0.9643 -0.2646 0.2646 0.9643 -770.6749 788.1157)" class="st8" cx="2539.74" cy="3254.4" rx="9.57" ry="15.75"/>
	
		<ellipse transform="matrix(0.9902 -0.14 0.14 0.9902 -453.9303 364.2518)" class="st12" cx="2362.21" cy="3408.75" rx="29" ry="22.35"/>
	<path class="st28" d="M2323.62,3309.45c9.22,5.61,11.99-7.8,20.26-21.39c8.27-13.59,18.89-22.22,9.67-27.83
		c-9.22-5.61-23.39,0.87-31.66,14.46S2314.4,3303.84,2323.62,3309.45z"/>
	<path class="st28" d="M2470.58,3188.01c-0.17,8.73,10.33,5.22,23.2,5.47c12.87,0.25,23.23,4.18,23.4-4.55
		c0.17-8.73-10.12-16.01-22.99-16.26C2481.32,3172.41,2470.75,3179.28,2470.58,3188.01z"/>
	<path class="st21" d="M2670.1,3303.18c0,0-78.51,3.52-51.92-24.62S2668.46,3248.08,2670.1,3303.18z"/>
	<g>
		<path class="st21" d="M2557.22,3413.35c-0.74,4.1-2.38,7.89-4.48,11.46c-2.12,3.56-4.74,6.88-7.89,9.76
			c-3.13,2.89-6.78,5.32-10.76,7.14c-1.01,0.42-2.02,0.86-3.05,1.22c-1.05,0.33-2.09,0.7-3.15,0.98l-3.22,0.7
			c-1.08,0.18-2.17,0.31-3.26,0.45c-1.09,0.16-2.18,0.11-3.27,0.18c-0.54,0.01-1.09,0.05-1.63,0.03l-1.63-0.08
			c-2.18-0.08-4.29-0.45-6.41-0.78l-3.1-0.77c-0.51-0.14-1.03-0.24-1.53-0.41l-1.49-0.52c-0.99-0.36-1.99-0.68-2.95-1.07
			c-0.96-0.41-1.89-0.86-2.84-1.28c-7.48-3.54-13.95-8.53-19.24-14.51c-0.2-0.22-0.18-0.56,0.05-0.75c0.15-0.14,0.36-0.17,0.54-0.1
			l0.02,0.01c1.87,0.7,3.68,1.45,5.45,2.22c1.81,0.71,3.61,1.38,5.36,2.11c1.81,0.6,3.56,1.28,5.34,1.86l2.66,0.81l1.32,0.41
			l1.33,0.33c0.89,0.22,1.77,0.42,2.65,0.66c0.88,0.21,1.77,0.34,2.65,0.51c1.75,0.39,3.51,0.51,5.25,0.75
			c1.74,0.07,3.47,0.26,5.18,0.15l1.28,0c0.43-0.01,0.85-0.07,1.27-0.1c0.84-0.1,1.7-0.09,2.52-0.27c3.35-0.41,6.59-1.33,9.73-2.57
			c3.15-1.22,6.2-2.82,9.18-4.7c5.98-3.77,11.55-8.7,17.19-14.28l0.03-0.03c0.21-0.21,0.55-0.21,0.76,0
			C2557.2,3413,2557.25,3413.18,2557.22,3413.35z"/>
	</g>
	<path class="st29" d="M2491.21,3857.66c-37.51,21.1-229.76,46.89-236.8,35.17c125.32-11.39,161.31-23.95,208.19-48.36
		c43.49-22.64-17.76-185.87-17.76-185.87S2528.72,3836.56,2491.21,3857.66z"/>
	<path class="st27" d="M2331.78,3691.2c0,0,29,102.64,20.47,113.79c-8.53,11.15-69.11,32.04-69.11,32.04
		S2341.61,3816.58,2331.78,3691.2z"/>
	<path class="st27" d="M2550.25,3497.64c0,0-131.97,57.82-240.13,11.37c0,0,47.12,44.66,125.14,37.96
		C2513.27,3540.27,2550.25,3497.64,2550.25,3497.64z"/>
	<path class="st27" d="M2303.87,3858.07c0,0,56.95-15.42,73.52-28.26c16.57-12.84,4.37,19.41-83.3,32.31L2303.87,3858.07z"/>
	<path class="st29" d="M2063.33,3391.1c59.91-12.88,94.08,9.64,96.03,35.43c-3.39-2.41-133.77-45.45-171.67,99.67l0-0.01
		C1984.32,3478.57,1991.69,3406.5,2063.33,3391.1z"/>
	<path class="st29" d="M1987.03,3568.67c0,0-158.56-0.78-134.39,172.85c-16.21-12.78-27.71-41.12-23.16-83.95
		C1839.26,3565.55,1949.72,3565.89,1987.03,3568.67z"/>
</g>
<g id="bear">
	<polygon class="st8" points="3830.74,3512.15 3426.8,3546.39 3544.28,3602.78 3426.8,3735.71 4326.5,3922.79 4299.77,3827.07 
		4958.32,3814.02 4710.31,3726.17 4931.23,3551.46 	"/>
	<path class="st30" d="M3992.75,3121.74c0,0-166.11,291.32-124.58,490.65c19.86,95.33,150.83,78.39,282.35,79.03
		c143.49,0.7,287.64,10.69,288.93-83.05c3.88-283.65-103.73-470.62-103.73-470.62L3992.75,3121.74z"/>
	<path class="st31" d="M4009.75,3155.17c0,0,140.77,49.73,309.82,11.66c0,0-86.29,48.22-169.05,43.87
		C4067.76,3206.35,4009.75,3155.17,4009.75,3155.17z"/>
	<polygon class="st25" points="3426.8,3546.39 3426.8,3582.63 3517.38,3633.22 3544.28,3602.78 	"/>
	<polygon class="st25" points="3426.8,3735.71 3426.8,3785.02 4326.5,3964.85 4326.5,3922.79 	"/>
	<polygon class="st25" points="4958.32,3814.02 4958.32,3869.13 4316.58,3887.27 4299.77,3827.07 	"/>
	<path class="st21" d="M4070.06,3520.04c0,0,24.9-40.73,19.64-47.67c-3.96-5.22-42.05,32.14-42.05,32.14L4070.06,3520.04z"/>
	<path class="st21" d="M4004.27,3504.51c0,0,16.93-45.05,12.62-49.99c-4.31-4.93-38.87,41.36-38.87,41.36L4004.27,3504.51z"/>
	<path class="st21" d="M4106.77,3569.09c0,0,21.35-43.14,17.55-48.48c-3.8-5.34-34.26,28.13-34.26,28.13L4106.77,3569.09z"/>
	<polygon class="st25" points="4931.23,3551.46 4931.23,3611.07 4773.9,3748.7 4710.31,3726.17 	"/>
	<path class="st31" d="M3918.95,3537.74c0,0-44.21-130.77,61.28-325.2c0,0-81.61,201.2-31.32,301L3918.95,3537.74z"/>
	<path class="st21" d="M4298.18,3504.51c0,0-10.09-48.05-4.72-51.79s27.3,38.27,27.3,38.27L4298.18,3504.51z"/>
	<path class="st21" d="M4349.2,3498.33c0,0,5.1-47.86,11.17-50.33c6.07-2.47,13.84,42.11,13.84,42.11L4349.2,3498.33z"/>
	<path class="st21" d="M4252.38,3546.39c0,0-16.73-45.13-12.4-50.04c4.33-4.91,31.14,31.55,31.14,31.55L4252.38,3546.39z"/>
	<path class="st31" d="M4412.07,3537.74c0,0,44.21-130.77-61.28-325.2c0,0,81.61,201.2,31.32,301L4412.07,3537.74z"/>
	
		<ellipse transform="matrix(0.3641 -0.9313 0.9313 0.3641 -839.3871 6026.7222)" class="st32" cx="3993.99" cy="3628.09" rx="143.25" ry="111.94"/>
	
		<ellipse transform="matrix(0.3641 -0.9313 0.9313 0.3641 -839.3871 6026.7222)" class="st31" cx="3993.99" cy="3628.09" rx="112.39" ry="87.83"/>
	
		<ellipse transform="matrix(0.9884 -0.152 0.152 0.9884 -500.4886 703.4575)" class="st32" cx="4350.01" cy="3624.67" rx="111.39" ry="142.54"/>
	
		<ellipse transform="matrix(0.9884 -0.152 0.152 0.9884 -500.4886 703.4575)" class="st31" cx="4350.01" cy="3624.67" rx="87.39" ry="111.83"/>
	<g>
		<path class="st21" d="M3777.92,3551.46c0,0,0.48,48.13,6.28,51.17c5.8,3.04,17.82-40.59,17.82-40.59L3777.92,3551.46z"/>
		<path class="st21" d="M3830.74,3582.63c0,0,12.55,46.46,18.93,47.95s7.05-43.76,7.05-43.76L3830.74,3582.63z"/>
		<path class="st21" d="M3886.77,3589.85c0,0,21.33,43.15,27.88,43.37c6.55,0.22-1.57-44.3-1.57-44.3L3886.77,3589.85z"/>
		<path class="st30" d="M3777.92,3551.46c53.86,57.31,128.99,66.66,141.12,45.15c12.12-21.51-24.37-157.5-1.84-239.39
			c11.63-42.28,85.43-221.05,85.43-221.05l-59.89-41.47C3942.75,3094.7,3681,3448.34,3777.92,3551.46z"/>
	</g>
	<g>
		<g>
			<path class="st30" d="M3857.27,2730.72c1.96-2.73,4.62-4.73,6.95-6.87c-6.92-4.99-10.83-11.02-4.92-17.35
				c6.92-7.41,16.95-7.11,26.24-4.28c-5.93-5.33-8.4-11.98,0.33-19.2c12.27-10.15,36.58-3.03,56.91,7.79
				c-2.91-7.77-1.43-14.77,9.1-17.77c33.05-9.39,70.37,61.16,70.37,61.16l-127.18,148.78
				C3895.06,2882.99,3787.92,2827.1,3857.27,2730.72z"/>
			<path class="st12" d="M3908.26,2860.62l83.67-95.33c0,0-49.92-39-88.02,3.58C3868.11,2808.88,3908.26,2860.62,3908.26,2860.62z"
				/>
			<path class="st30" d="M4472.05,2730.72c-1.96-2.73-4.62-4.73-6.95-6.87c6.92-4.99,10.83-11.02,4.92-17.35
				c-6.92-7.41-16.95-7.11-26.24-4.28c5.93-5.33,8.4-11.98-0.33-19.2c-12.27-10.15-36.58-3.03-56.91,7.79
				c2.91-7.77,1.43-14.77-9.1-17.77c-33.05-9.39-70.37,61.16-70.37,61.16l127.18,148.78
				C4434.26,2882.99,4541.4,2827.1,4472.05,2730.72z"/>
			<path class="st12" d="M4420.52,2854.93l-83.67-95.33c0,0,49.92-39,88.02,3.58C4460.67,2803.19,4420.52,2854.93,4420.52,2854.93z"
				/>
			<path class="st30" d="M4456.8,2980.94c0,156.82-130.12,198.22-290.64,198.22s-290.64-41.41-290.64-198.22
				S4005.65,2697,4166.17,2697S4456.8,2824.13,4456.8,2980.94z"/>
			
				<ellipse transform="matrix(0.9884 -0.152 0.152 0.9884 -396.6081 688.952)" class="st21" cx="4307.08" cy="2938.08" rx="32.48" ry="46.21"/>
			<ellipse class="st8" cx="4299.99" cy="2948.23" rx="11.38" ry="18.75"/>
			
				<ellipse transform="matrix(0.152 -0.9884 0.9884 0.152 501.1671 6460.3179)" class="st21" cx="4015.58" cy="2938.08" rx="46.21" ry="32.48"/>
			<ellipse class="st8" cx="4002.64" cy="2948.23" rx="11.38" ry="18.75"/>
			<ellipse class="st12" cx="3940.49" cy="2996.08" rx="36.5" ry="28.13"/>
			<ellipse class="st12" cx="4382.24" cy="2996.08" rx="36.5" ry="28.13"/>
			<path class="st21" d="M4169.18,2978.66c62.28,0,70.98,20.76,0,59.6C4169.18,3038.27,4059.35,2978.66,4169.18,2978.66z"/>
			<path class="st33" d="M4103.55,3054.34c43.04,19.88,84.86,21.2,125.23,0"/>
			<line class="st33" x1="4169.18" y1="3038.27" x2="4169.18" y2="3069.74"/>
			<path class="st34" d="M4349.65,2855.23c-3.53,11.34-15.58,2.29-32.29-2.91c-16.72-5.2-31.77-4.59-28.24-15.93
				c3.53-11.34,19.94-16.31,36.65-11.11S4353.18,2843.89,4349.65,2855.23z"/>
			<path class="st34" d="M3984.79,2854.48c3.88,12.46,15.78,2.94,32.49-2.26c16.72-5.2,31.92-4.11,28.04-16.58
				c-3.88-12.46-20.57-18.35-37.29-13.15C3991.31,2827.69,3980.91,2842.01,3984.79,2854.48z"/>
		</g>
		<path class="st31" d="M4080.89,2961.72c0,0,99.22-38.9,177.8,6.23C4258.69,2967.95,4183.68,2883.53,4080.89,2961.72z"/>
	</g>
	<path class="st31" d="M3919.04,3596.61C3919.04,3596.61,3919.04,3596.61,3919.04,3596.61c0.11-0.19,0.21-0.4,0.31-0.6
		c1.9-3.96,2.45-11.14,2.15-20.71c-221.63-109.63,5.95-458.19,5.95-458.19s-6.63,8.91-17.29,24.27
		c-66.9,99.54-207.38,330.11-132.25,410.08c0,0,0.01,0.01,0.01,0.01c28.61,30.45,63.23,47.35,91.22,53.29
		c0.82,0.17,1.64,0.34,2.45,0.5c6.9,1.32,13.35,1.97,19.18,1.97c2.06,0,4.03-0.08,5.92-0.24c1.26-0.1,2.48-0.24,3.66-0.42
		C3909.47,3605.22,3916.1,3601.82,3919.04,3596.61z"/>
	<g>
		<path class="st21" d="M4558.4,3551.46c0,0-0.48,48.13-6.28,51.17s-17.82-40.59-17.82-40.59L4558.4,3551.46z"/>
		<path class="st21" d="M4505.58,3582.63c0,0-12.56,46.46-18.93,47.95c-6.38,1.49-7.05-43.76-7.05-43.76L4505.58,3582.63z"/>
		<path class="st21" d="M4449.55,3589.85c0,0-21.33,43.15-27.88,43.37c-6.55,0.22,1.57-44.3,1.57-44.3L4449.55,3589.85z"/>
		<path class="st30" d="M4558.4,3551.46c-53.86,57.31-128.99,66.66-141.12,45.15c-12.12-21.51,19-156.87-3.53-238.76
			c-11.63-42.28-80.06-221.68-80.06-221.68l59.89-41.47C4393.57,3094.7,4655.32,3448.34,4558.4,3551.46z"/>
	</g>
	<path class="st31" d="M4417.28,3596.61C4417.28,3596.61,4417.28,3596.61,4417.28,3596.61c-0.11-0.19-0.21-0.4-0.31-0.6
		c-1.9-3.96-2.45-11.14-2.15-20.71c221.63-109.63-5.95-458.19-5.95-458.19s6.63,8.91,17.29,24.27
		c66.9,99.54,207.38,330.11,132.25,410.08c0,0-0.01,0.01-0.01,0.01c-28.62,30.45-63.23,47.35-91.22,53.29
		c-0.82,0.17-1.64,0.34-2.45,0.5c-6.9,1.32-13.35,1.97-19.18,1.97c-2.05,0-4.03-0.08-5.92-0.24c-1.26-0.1-2.48-0.24-3.66-0.42
		C4426.85,3605.22,4420.21,3601.82,4417.28,3596.61z"/>
</g>
</svg>
